M48
INCH
T01C.013
T02C.02992
T03C.031
T04C.034
T05C.04
T06C.1378
T07C.21299
;LEADER: 12 
;HEADER: 
;CODE  : ASCII 
;FILE  : DVM-1-2.drl for  ... layers TOP and BOTTOM
;DESIGN: DVM.brd
;T01 Holesize 1. = 13.000000 Tolerance = +0.000000/-0.000000 PLATED MILS Quantity = 177
;T02 Holesize 2. = 29.920000 Tolerance = +0.000000/-0.000000 PLATED MILS Quantity = 10
;T03 Holesize 3. = 31.000000 Tolerance = +0.000000/-0.000000 PLATED MILS Quantity = 16
;T04 Holesize 4. = 34.000000 Tolerance = +0.000000/-0.000000 PLATED MILS Quantity = 2
;T05 Holesize 5. = 40.000000 Tolerance = +0.000000/-0.000000 PLATED MILS Quantity = 9
;T06 Holesize 6. = 137.800000 Tolerance = +3.000000/-3.000000 PLATED MILS Quantity = 4
;T07 Holesize 7. = 212.990000 Tolerance = +0.000000/-0.000000 PLATED MILS Quantity = 2
%
G90
T01
X031000Y025500
X031000Y023000
X032250Y024250
X029750Y024250
X032250Y025500
X032250Y022250
X030500Y022250
X030000Y025250
X029750Y003750
X032250Y003750
X032250Y000500
X029750Y000500
X031000Y003000
X031000Y000500
X032250Y001750
X029750Y001750
X001750Y003000
X000500Y001750
X003000Y001750
X001750Y000500
X003000Y000500
X000500Y000500
X000500Y003750
X003000Y003750
X001750Y045250
X000500Y044000
X003000Y044000
X001750Y042750
X003250Y042250
X000500Y042250
X003250Y045250
X000500Y045250
X007150Y033000
X018650Y037300
R03X003500
X006150Y033000
X019150Y039050
R03X003500
X005150Y033000
X018900Y041800
R03X003500
X004150Y031300
X021400Y023550
X021900Y022550
X021900Y017800
X021650Y018550
X025150Y036800
R02X-003500
X028650Y036800
X019400Y033550
X019400Y034550
X010550Y043900
X010550Y043400
X010300Y042900
X012550Y043650
X012050Y042900
X017300Y043900
X017050Y043650
X015550Y043400
X016300Y042650
X020800Y043900
X020550Y043650
X024300Y043900
X024050Y043650
X027800Y043900
X027300Y043400
X028050Y042650
X023050Y043650
X019550Y043650
X014800Y042650
X029000Y024000
X024100Y029300
X026800Y034650
X029550Y034400
X030050Y034400
X026331Y034431
X029050Y034650
X022900Y033550
X022900Y034550
X021150Y013300
X019400Y013550
X027400Y022800
X027900Y028800
X024150Y010550
X029900Y015550
X022150Y029300
X024650Y023800
X028150Y015550
X019900Y010550
X024400Y023300
X018400Y029300
X027150Y015550
X015650Y010550
X027900Y028050
X027900Y023550
X025650Y015550
X011400Y010550
X006150Y000750
X013200Y004650
X002500Y006000
X012900Y002550
X008550Y005650
X010650Y006900
X001350Y014550
X007050Y007350
X007800Y007350
X011550Y006900
X024800Y008150
X001350Y012600
X024900Y013350
X027600Y012750
X000750Y013650
X009300Y015600
X013350Y012150
X013950Y012150
X020800Y014650
X011550Y020400
X010200Y018450
X009300Y016500
X012450Y018450
X029100Y012900
X025050Y012750
X013500Y018450
X009750Y027000
X007350Y019950
X010650Y023550
X013950Y016950
X030900Y012750
X016800Y027000
X022800Y023350
X003600Y023100
X002500Y005500
X026850Y027450
X024150Y027450
X032300Y027400
X002250Y028950
X013050Y028950
X016650Y031950
X019200Y030150
X029700Y031950
X026850Y030300
X011550Y031350
X012150Y031650
X019500Y031650
X020850Y027900
X027300Y032250
X006750Y039600
X013500Y038100
X021050Y038150
X029100Y032700
X028650Y031800
X029250Y032250
X007200Y039900
X010950Y044550
X016050Y044700
X018150Y044700
X022050Y044550
X029250Y031800
X016300Y008150
X020550Y008150
X002000Y005250
X002000Y006000
X001500Y041250
X002000Y041250
X004000Y003500
X004000Y003000
X031250Y021250
X031750Y021250
X030750Y004750
X031250Y004750
T02
X011650Y035050
R04X001000
X015650Y041050
R04X-001000
T03
X002150Y027300
R07X001000
X009150Y030300
R07X-001000
T04
X001486Y007235
X001486Y005266
T05
X004050Y024650
X004050Y023650
X007800Y003400
X008800Y003400
X027900Y020800
X027900Y019050
X029400Y019050
X027900Y017300
X026400Y019050
T06
X001750Y001750
X001750Y044000
X031000Y024250
X031000Y001750
T07
X018400Y002800
X023650Y002800
M30
