G04 ================== begin FILE IDENTIFICATION RECORD ==================*
G04 Layout Name:  C:/Users/Lucy/Desktop/OrCAD Practice/pcb/DVM.brd*
G04 Film Name:    Silkscreen_Top*
G04 File Format:  Gerber RS274X*
G04 File Origin:  Cadence Allegro 16.6-2015-S087*
G04 Origin Date:  Thu Apr 18 13:53:54 2019*
G04 *
G04 Layer:  REF DES/SILKSCREEN_TOP*
G04 Layer:  PACKAGE GEOMETRY/SILKSCREEN_TOP*
G04 Layer:  BOARD GEOMETRY/SILKSCREEN_TOP*
G04 *
G04 Offset:    (0.00 0.00)*
G04 Mirror:    No*
G04 Mode:      Positive*
G04 Rotation:  0*
G04 FullContactRelief:  No*
G04 UndefLineWidth:     0.10*
G04 ================== end FILE IDENTIFICATION RECORD ====================*
%FSLAX55Y55*MOIN*%
%IR0*IPPOS*OFA0.00000B0.00000*MIA0B0*SFA1.00000B1.00000*%
%ADD10C,.02*%
%ADD11C,.01181*%
%ADD12C,.006*%
G75*
%LPD*%
G75*
G36*
G01X198250Y163650D02*
X199750D01*
Y164650D01*
X198250D01*
Y163650D01*
G37*
G36*
G01X193250Y212350D02*
X194750D01*
Y211350D01*
X193250D01*
Y212350D01*
G37*
G54D10*
G01X34500Y251500D02*
G03I-1500J0D01*
G01X79500Y26500D02*
G03I-1500J0D01*
G01X265500Y183000D02*
G03I-1500J0D01*
G01X280500D02*
G03I-1500J0D01*
G01X273000Y173000D02*
G03I-1500J0D01*
G01Y208000D02*
G03I-1500J0D01*
G01X295500Y183000D02*
G03I-1500J0D01*
G54D11*
G01X109728Y341130D02*
Y419870D01*
X163272D01*
Y341130D01*
X109728D01*
G01X167858Y11858D02*
Y44142D01*
X200142D01*
Y11858D01*
X167858D01*
G01X165358Y349988D02*
Y411996D01*
X197642D01*
Y349004D01*
X166343D01*
X165358Y349988D01*
G01X200358D02*
Y411996D01*
X232642D01*
Y349004D01*
X201343D01*
X200358Y349988D01*
G01X220358Y11858D02*
Y44142D01*
X252642D01*
Y11858D01*
X220358D01*
G01X235358Y349988D02*
Y411996D01*
X267642D01*
Y349004D01*
X236343D01*
X235358Y349988D01*
G01X270358D02*
Y411996D01*
X302642D01*
Y349004D01*
X271343D01*
X270358Y349988D01*
G54D12*
G01X3400Y115000D02*
Y110000D01*
G01X1943Y115000D02*
X4857D01*
G01X7233Y110000D02*
Y115000D01*
X8753D01*
X9260Y114750D01*
X9640Y114167D01*
X9767Y113500D01*
X9640Y112833D01*
X9323Y112333D01*
X8753Y112083D01*
X7233D01*
G01X13600Y110000D02*
Y115000D01*
X12840Y114000D01*
G01Y110000D02*
X14360D01*
G01X2900Y122000D02*
Y117000D01*
G01X1443Y122000D02*
X4357D01*
G01X6733Y117000D02*
Y122000D01*
X8253D01*
X8760Y121750D01*
X9140Y121167D01*
X9267Y120500D01*
X9140Y119833D01*
X8823Y119333D01*
X8253Y119083D01*
X6733D01*
G01X13860Y117000D02*
Y122000D01*
X11517Y118417D01*
X14683D01*
G01X19233Y43500D02*
X19550Y43000D01*
X19930Y42667D01*
X20373Y42500D01*
X20880Y42667D01*
X21260Y43000D01*
X21640Y43500D01*
X21767Y44167D01*
Y47500D01*
G01X25600Y42500D02*
X26043Y42583D01*
X26550Y42833D01*
X26867Y43250D01*
X26993Y43833D01*
X26867Y44417D01*
X26487Y44917D01*
X25917Y45167D01*
X25283D01*
X24903Y45333D01*
X24587Y45750D01*
X24460Y46333D01*
X24650Y46917D01*
X25093Y47333D01*
X25600Y47500D01*
X26107Y47333D01*
X26550Y46917D01*
X26740Y46333D01*
X26613Y45750D01*
X26297Y45333D01*
X25917Y45167D01*
X25283D01*
X24713Y44917D01*
X24333Y44417D01*
X24207Y43833D01*
X24333Y43250D01*
X24650Y42833D01*
X25157Y42583D01*
X25600Y42500D01*
G01X8980Y47260D02*
X15360D01*
Y48530D01*
G01Y76480D02*
Y77760D01*
X8980D01*
G01X9507Y103250D02*
X9887Y102833D01*
X10330Y102583D01*
X10900Y102500D01*
X11470Y102667D01*
X11913Y103000D01*
X12230Y103583D01*
X12293Y104250D01*
X12167Y104917D01*
X11850Y105333D01*
X11407Y105667D01*
X10963Y105750D01*
X10520Y105667D01*
X9950Y105333D01*
X10140Y107500D01*
X11850D01*
G01X14417D02*
X16000Y102500D01*
X17583Y107500D01*
G01X20403Y104167D02*
X21923D01*
G01X21100Y105250D02*
Y103083D01*
G01X8780Y150500D02*
X10047D01*
Y149000D01*
X9667Y148500D01*
X9223Y148167D01*
X8590Y148000D01*
X7957Y148167D01*
X7513Y148500D01*
X7133Y149000D01*
X6880Y149583D01*
X6753Y150250D01*
Y150833D01*
X6880Y151333D01*
X7133Y151917D01*
X7513Y152417D01*
X7893Y152750D01*
X8400Y153000D01*
X8843D01*
X9350Y152833D01*
X9730Y152500D01*
G01X12043Y148000D02*
Y153000D01*
X14957Y148000D01*
Y153000D01*
G01X17207Y148000D02*
Y153000D01*
X18473D01*
X18980Y152750D01*
X19360Y152417D01*
X19677Y151917D01*
X19930Y151333D01*
X19993Y150500D01*
X19930Y149667D01*
X19677Y149083D01*
X19360Y148583D01*
X18980Y148250D01*
X18473Y148000D01*
X17207D01*
G01X16000Y159617D02*
X21000Y161200D01*
X16000Y162783D01*
G01X22667Y164400D02*
Y168200D01*
G01X21000Y170133D02*
X16000D01*
Y171717D01*
X16250Y172223D01*
X16583Y172540D01*
X17250Y172667D01*
X17917Y172540D01*
X18333Y172160D01*
X18583Y171717D01*
Y170133D01*
G01Y171717D02*
X21000Y172667D01*
G01Y177767D02*
Y175233D01*
X16000D01*
Y177767D01*
G01X18417Y176753D02*
Y175233D01*
G01X21000Y180397D02*
X16000D01*
Y182803D01*
G01X18417Y181917D02*
Y180397D01*
G01X25733Y240000D02*
X26050Y239500D01*
X26430Y239167D01*
X26873Y239000D01*
X27380Y239167D01*
X27760Y239500D01*
X28140Y240000D01*
X28267Y240667D01*
Y244000D01*
G01X31023Y239583D02*
X31467Y239167D01*
X31973Y239000D01*
X32480Y239167D01*
X32923Y239667D01*
X33240Y240417D01*
X33367Y241167D01*
Y242083D01*
X33240Y242833D01*
X32923Y243500D01*
X32543Y243833D01*
X32100Y244000D01*
X31593Y243833D01*
X31213Y243500D01*
X30960Y243000D01*
X30833Y242333D01*
X30960Y241750D01*
X31277Y241167D01*
X31657Y240833D01*
X32100Y240750D01*
X32607Y240917D01*
X32987Y241333D01*
X33367Y242083D01*
G01X16167Y270707D02*
X12500Y273493D01*
G01X11833Y272100D02*
X16833D01*
G01X16167Y273493D02*
X12500Y270707D01*
G01X14333Y270200D02*
Y274000D01*
G01X17107Y268000D02*
Y264417D01*
X17360Y263667D01*
X17867Y263167D01*
X18500Y263000D01*
X19133Y263167D01*
X19640Y263667D01*
X19893Y264417D01*
Y268000D01*
G01X23473Y263000D02*
X23600Y264083D01*
X23790Y265000D01*
X24043Y265833D01*
X24360Y266750D01*
X24867Y268000D01*
X22333D01*
G01X17940Y301500D02*
X17250D01*
Y274500D01*
G01X25360D02*
X27940D01*
G01Y301500D02*
X25060D01*
G01X9917Y292893D02*
X9667Y292513D01*
X9500Y292070D01*
Y291563D01*
X9750Y290993D01*
X10167Y290550D01*
X10667Y290233D01*
X11500Y289980D01*
X12250Y289917D01*
X13000Y290043D01*
X13500Y290233D01*
X14000Y290613D01*
X14333Y291057D01*
X14500Y291500D01*
Y291943D01*
X14333Y292387D01*
X14083Y292767D01*
X13750Y293083D01*
G01X14500Y296600D02*
X14417Y297043D01*
X14167Y297550D01*
X13750Y297867D01*
X13167Y297993D01*
X12583Y297867D01*
X12083Y297487D01*
X11833Y296917D01*
Y296283D01*
X11667Y295903D01*
X11250Y295587D01*
X10667Y295460D01*
X10083Y295650D01*
X9667Y296093D01*
X9500Y296600D01*
X9667Y297107D01*
X10083Y297550D01*
X10667Y297740D01*
X11250Y297613D01*
X11667Y297297D01*
X11833Y296917D01*
Y296283D01*
X12083Y295713D01*
X12583Y295333D01*
X13167Y295207D01*
X13750Y295333D01*
X14167Y295650D01*
X14417Y296157D01*
X14500Y296600D01*
G01X15100Y303660D02*
Y304340D01*
G01X10900D02*
Y303660D01*
G01X28000Y405633D02*
X23000D01*
Y407217D01*
X23250Y407723D01*
X23583Y408040D01*
X24250Y408167D01*
X24917Y408040D01*
X25333Y407660D01*
X25583Y407217D01*
Y405633D01*
G01Y407217D02*
X28000Y408167D01*
G01X27250Y410607D02*
X27667Y410987D01*
X27917Y411430D01*
X28000Y412000D01*
X27833Y412570D01*
X27500Y413013D01*
X26917Y413330D01*
X26250Y413393D01*
X25583Y413267D01*
X25167Y412950D01*
X24833Y412507D01*
X24750Y412063D01*
X24833Y411620D01*
X25167Y411050D01*
X23000Y411240D01*
Y412950D01*
G01X27000Y415707D02*
X27583Y416087D01*
X27917Y416593D01*
X28000Y417163D01*
X27917Y417670D01*
X27500Y418177D01*
X27000Y418493D01*
X26500Y418557D01*
X25917Y418430D01*
X25500Y417987D01*
X25333Y417543D01*
Y416973D01*
G01Y417543D02*
X25083Y417923D01*
X24667Y418240D01*
X24167Y418367D01*
X23667Y418240D01*
X23250Y417923D01*
X23000Y417353D01*
X23083Y416783D01*
X23417Y416213D01*
G01X19600Y419660D02*
Y420340D01*
G01X15400D02*
Y419660D01*
G01X52000Y6633D02*
X47000D01*
Y8217D01*
X47250Y8723D01*
X47583Y9040D01*
X48250Y9167D01*
X48917Y9040D01*
X49333Y8660D01*
X49583Y8217D01*
Y6633D01*
G01Y8217D02*
X52000Y9167D01*
G01Y13760D02*
X47000D01*
X50583Y11417D01*
Y14583D01*
G01X52000Y17973D02*
X50917Y18100D01*
X50000Y18290D01*
X49167Y18543D01*
X48250Y18860D01*
X47000Y19367D01*
Y16833D01*
G01X33633Y22000D02*
Y27000D01*
X35217D01*
X35723Y26750D01*
X36040Y26417D01*
X36167Y25750D01*
X36040Y25083D01*
X35660Y24667D01*
X35217Y24417D01*
X33633D01*
G01X35217D02*
X36167Y22000D01*
G01X38607Y22750D02*
X38987Y22333D01*
X39430Y22083D01*
X40000Y22000D01*
X40570Y22167D01*
X41013Y22500D01*
X41330Y23083D01*
X41393Y23750D01*
X41267Y24417D01*
X40950Y24833D01*
X40507Y25167D01*
X40063Y25250D01*
X39620Y25167D01*
X39050Y24833D01*
X39240Y27000D01*
X40950D01*
G01X45860Y22000D02*
Y27000D01*
X43517Y23417D01*
X46683D01*
G01X32840Y34600D02*
X32160D01*
G01Y30400D02*
X32840D01*
G01X34653Y37000D02*
Y42000D01*
X36300Y37833D01*
X37947Y42000D01*
Y37000D01*
G01X41400Y42000D02*
Y37000D01*
G01X39943Y42000D02*
X42857D01*
G01X46880Y39500D02*
X48147D01*
Y38000D01*
X47767Y37500D01*
X47323Y37167D01*
X46690Y37000D01*
X46057Y37167D01*
X45613Y37500D01*
X45233Y38000D01*
X44980Y38583D01*
X44853Y39250D01*
Y39833D01*
X44980Y40333D01*
X45233Y40917D01*
X45613Y41417D01*
X45993Y41750D01*
X46500Y42000D01*
X46943D01*
X47450Y41833D01*
X47830Y41500D01*
G01X50397Y41167D02*
X50777Y41667D01*
X51220Y41917D01*
X51727Y42000D01*
X52360Y41833D01*
X52803Y41417D01*
X52930Y40917D01*
X52867Y40417D01*
X52613Y40000D01*
X51347Y39167D01*
X50777Y38583D01*
X50397Y37750D01*
X50270Y37000D01*
X52930D01*
G01X43633Y93500D02*
Y98500D01*
X45217D01*
X45723Y98250D01*
X46040Y97917D01*
X46167Y97250D01*
X46040Y96583D01*
X45660Y96167D01*
X45217Y95917D01*
X43633D01*
G01X45217D02*
X46167Y93500D01*
G01X50760D02*
Y98500D01*
X48417Y94917D01*
X51583D01*
G01X55100Y93500D02*
Y98500D01*
X54340Y97500D01*
G01Y93500D02*
X55860D01*
G01X54500Y101133D02*
X49500D01*
Y102717D01*
X49750Y103223D01*
X50083Y103540D01*
X50750Y103667D01*
X51417Y103540D01*
X51833Y103160D01*
X52083Y102717D01*
Y101133D01*
G01Y102717D02*
X54500Y103667D01*
G01Y108260D02*
X49500D01*
X53083Y105917D01*
Y109083D01*
G01X53500Y111207D02*
X54083Y111587D01*
X54417Y112093D01*
X54500Y112663D01*
X54417Y113170D01*
X54000Y113677D01*
X53500Y113993D01*
X53000Y114057D01*
X52417Y113930D01*
X52000Y113487D01*
X51833Y113043D01*
Y112473D01*
G01Y113043D02*
X51583Y113423D01*
X51167Y113740D01*
X50667Y113867D01*
X50167Y113740D01*
X49750Y113423D01*
X49500Y112853D01*
X49583Y112283D01*
X49917Y111713D01*
G01X45793Y129583D02*
X45413Y129833D01*
X44970Y130000D01*
X44463D01*
X43893Y129750D01*
X43450Y129333D01*
X43133Y128833D01*
X42880Y128000D01*
X42817Y127250D01*
X42943Y126500D01*
X43133Y126000D01*
X43513Y125500D01*
X43957Y125167D01*
X44400Y125000D01*
X44843D01*
X45287Y125167D01*
X45667Y125417D01*
X45983Y125750D01*
G01X49500Y125000D02*
Y130000D01*
X48740Y129000D01*
G01Y125000D02*
X50260D01*
G01X53397Y127083D02*
X53840Y127667D01*
X54220Y128000D01*
X54727Y128167D01*
X55170Y128000D01*
X55487Y127667D01*
X55740Y127167D01*
X55803Y126583D01*
X55740Y126083D01*
X55487Y125583D01*
X55107Y125167D01*
X54663Y125000D01*
X54157Y125167D01*
X53713Y125667D01*
X53460Y126417D01*
X53397Y127250D01*
X53523Y128333D01*
X53713Y128917D01*
X54030Y129500D01*
X54473Y129917D01*
X54917Y130000D01*
X55360Y129833D01*
X55677Y129417D01*
G01X46293Y137583D02*
X45913Y137833D01*
X45470Y138000D01*
X44963D01*
X44393Y137750D01*
X43950Y137333D01*
X43633Y136833D01*
X43380Y136000D01*
X43317Y135250D01*
X43443Y134500D01*
X43633Y134000D01*
X44013Y133500D01*
X44457Y133167D01*
X44900Y133000D01*
X45343D01*
X45787Y133167D01*
X46167Y133417D01*
X46483Y133750D01*
G01X50000Y133000D02*
Y138000D01*
X49240Y137000D01*
G01Y133000D02*
X50760D01*
G01X54973D02*
X55100Y134083D01*
X55290Y135000D01*
X55543Y135833D01*
X55860Y136750D01*
X56367Y138000D01*
X53833D01*
G01X29400Y174000D02*
Y169000D01*
G01X27943Y174000D02*
X30857D01*
G01X33233Y169000D02*
Y174000D01*
X34753D01*
X35260Y173750D01*
X35640Y173167D01*
X35767Y172500D01*
X35640Y171833D01*
X35323Y171333D01*
X34753Y171083D01*
X33233D01*
G01X38207Y169750D02*
X38587Y169333D01*
X39030Y169083D01*
X39600Y169000D01*
X40170Y169167D01*
X40613Y169500D01*
X40930Y170083D01*
X40993Y170750D01*
X40867Y171417D01*
X40550Y171833D01*
X40107Y172167D01*
X39663Y172250D01*
X39220Y172167D01*
X38650Y171833D01*
X38840Y174000D01*
X40550D01*
G01X35500Y253000D02*
Y230000D01*
X46000D01*
Y253000D01*
X35500D01*
G01X45060Y274500D02*
X47940D01*
G01X35060D02*
X37940D01*
G01Y301500D02*
X35060D01*
G01X47940D02*
X45060D01*
G01X39400Y320840D02*
Y320160D01*
G01X43600D02*
Y320840D01*
G01X29400D02*
Y320160D01*
G01X33600D02*
Y320840D01*
G01X49400D02*
Y320160D01*
G01X51000Y402000D02*
X50493Y402083D01*
X50050Y402417D01*
X49670Y402917D01*
X49417Y403500D01*
X49290Y404167D01*
Y404833D01*
X49417Y405500D01*
X49670Y406083D01*
X50050Y406583D01*
X50493Y406917D01*
X51000Y407000D01*
X51507Y406917D01*
X51950Y406583D01*
X52330Y406083D01*
X52583Y405500D01*
X52710Y404833D01*
Y404167D01*
X52583Y403500D01*
X52330Y402917D01*
X51950Y402417D01*
X51507Y402083D01*
X51000Y402000D01*
G01X51507Y403333D02*
X52267Y402000D01*
G01X55973D02*
X56100Y403083D01*
X56290Y404000D01*
X56543Y404833D01*
X56860Y405750D01*
X57367Y407000D01*
X54833D01*
G01X36653Y434000D02*
Y439000D01*
X38300Y434833D01*
X39947Y439000D01*
Y434000D01*
G01X43400Y439000D02*
Y434000D01*
G01X41943Y439000D02*
X44857D01*
G01X48880Y436500D02*
X50147D01*
Y435000D01*
X49767Y434500D01*
X49323Y434167D01*
X48690Y434000D01*
X48057Y434167D01*
X47613Y434500D01*
X47233Y435000D01*
X46980Y435583D01*
X46853Y436250D01*
Y436833D01*
X46980Y437333D01*
X47233Y437917D01*
X47613Y438417D01*
X47993Y438750D01*
X48500Y439000D01*
X48943D01*
X49450Y438833D01*
X49830Y438500D01*
G01X53600Y434000D02*
Y439000D01*
X52840Y438000D01*
G01Y434000D02*
X54360D01*
G01X43607Y449500D02*
Y454500D01*
X44873D01*
X45380Y454250D01*
X45760Y453917D01*
X46077Y453417D01*
X46330Y452833D01*
X46393Y452000D01*
X46330Y451167D01*
X46077Y450583D01*
X45760Y450083D01*
X45380Y449750D01*
X44873Y449500D01*
X43607D01*
G01X49340Y454500D02*
X50860D01*
G01X50100D02*
Y449500D01*
G01X49340D02*
X50860D01*
G01X55580Y452000D02*
X56847D01*
Y450500D01*
X56467Y450000D01*
X56023Y449667D01*
X55390Y449500D01*
X54757Y449667D01*
X54313Y450000D01*
X53933Y450500D01*
X53680Y451083D01*
X53553Y451750D01*
Y452333D01*
X53680Y452833D01*
X53933Y453417D01*
X54313Y453917D01*
X54693Y454250D01*
X55200Y454500D01*
X55643D01*
X56150Y454333D01*
X56530Y454000D01*
G01X59540Y454500D02*
X61060D01*
G01X60300D02*
Y449500D01*
G01X59540D02*
X61060D01*
G01X65400Y454500D02*
Y449500D01*
G01X63943Y454500D02*
X66857D01*
G01X68917Y449500D02*
X70500Y454500D01*
X72083Y449500D01*
G01X71513Y451250D02*
X69487D01*
G01X74333Y454500D02*
Y449500D01*
X76867D01*
G01X84217Y454500D02*
X85800Y449500D01*
X87383Y454500D01*
G01X90900Y449500D02*
X90393Y449583D01*
X89950Y449917D01*
X89570Y450417D01*
X89317Y451000D01*
X89190Y451667D01*
Y452333D01*
X89317Y453000D01*
X89570Y453583D01*
X89950Y454083D01*
X90393Y454417D01*
X90900Y454500D01*
X91407Y454417D01*
X91850Y454083D01*
X92230Y453583D01*
X92483Y453000D01*
X92610Y452333D01*
Y451667D01*
X92483Y451000D01*
X92230Y450417D01*
X91850Y449917D01*
X91407Y449583D01*
X90900Y449500D01*
G01X94733Y454500D02*
Y449500D01*
X97267D01*
G01X101100Y454500D02*
Y449500D01*
G01X99643Y454500D02*
X102557D01*
G01X104553Y449500D02*
Y454500D01*
X106200Y450333D01*
X107847Y454500D01*
Y449500D01*
G01X112567D02*
X110033D01*
Y454500D01*
X112567D01*
G01X111553Y452083D02*
X110033D01*
G01X116400Y454500D02*
Y449500D01*
G01X114943Y454500D02*
X117857D01*
G01X122767Y449500D02*
X120233D01*
Y454500D01*
X122767D01*
G01X121753Y452083D02*
X120233D01*
G01X125333Y449500D02*
Y454500D01*
X126917D01*
X127423Y454250D01*
X127740Y453917D01*
X127867Y453250D01*
X127740Y452583D01*
X127360Y452167D01*
X126917Y451917D01*
X125333D01*
G01X126917D02*
X127867Y449500D01*
G01X58600Y11160D02*
Y11840D01*
G01X54400D02*
Y11160D01*
G01X71500Y29000D02*
X94500D01*
Y39500D01*
X71500D01*
Y29000D01*
G01X63107Y25000D02*
Y30000D01*
X64373D01*
X64880Y29750D01*
X65260Y29417D01*
X65577Y28917D01*
X65830Y28333D01*
X65893Y27500D01*
X65830Y26667D01*
X65577Y26083D01*
X65260Y25583D01*
X64880Y25250D01*
X64373Y25000D01*
X63107D01*
G01X68207Y26000D02*
X68587Y25417D01*
X69093Y25083D01*
X69663Y25000D01*
X70170Y25083D01*
X70677Y25500D01*
X70993Y26000D01*
X71057Y26500D01*
X70930Y27083D01*
X70487Y27500D01*
X70043Y27667D01*
X69473D01*
G01X70043D02*
X70423Y27917D01*
X70740Y28333D01*
X70867Y28833D01*
X70740Y29333D01*
X70423Y29750D01*
X69853Y30000D01*
X69283Y29917D01*
X68713Y29583D01*
G01X60510Y24250D02*
X59490D01*
G01Y19750D02*
X60510D01*
G01X60950Y28500D02*
X57950Y29500D01*
X60950Y29000D01*
G01Y27500D02*
X57950Y29500D01*
X60950Y28000D01*
G01Y31000D02*
X57950Y29500D01*
X60950Y30500D01*
G01Y31500D02*
X57950Y29500D01*
X60950Y32000D01*
Y27000D01*
X57950Y29500D01*
X60950Y30000D01*
G01X57950Y32000D02*
Y27000D01*
G01X61950Y29500D02*
X56950D01*
G01X67500Y69133D02*
X62500D01*
Y70717D01*
X62750Y71223D01*
X63083Y71540D01*
X63750Y71667D01*
X64417Y71540D01*
X64833Y71160D01*
X65083Y70717D01*
Y69133D01*
G01Y70717D02*
X67500Y71667D01*
G01Y76260D02*
X62500D01*
X66083Y73917D01*
Y77083D01*
G01X66750Y79207D02*
X67167Y79587D01*
X67417Y80030D01*
X67500Y80600D01*
X67333Y81170D01*
X67000Y81613D01*
X66417Y81930D01*
X65750Y81993D01*
X65083Y81867D01*
X64667Y81550D01*
X64333Y81107D01*
X64250Y80663D01*
X64333Y80220D01*
X64667Y79650D01*
X62500Y79840D01*
Y81550D01*
G01X72600Y81160D02*
Y81840D01*
G01X68400D02*
Y81160D01*
G01X64667Y92707D02*
X61000Y95493D01*
G01X60333Y94100D02*
X65333D01*
G01X64667Y95493D02*
X61000Y92707D01*
G01X62833Y92200D02*
Y96000D01*
G01X65150Y114850D02*
Y98150D01*
G01X55840Y91100D02*
X55160D01*
G01Y86900D02*
X55840D01*
G01X55900Y106840D02*
Y106160D01*
G01X60100D02*
Y106840D01*
G01X62660Y124400D02*
X63340D01*
G01Y128600D02*
X62660D01*
G01Y131900D02*
X63340D01*
G01X61133Y155000D02*
Y160000D01*
X62717D01*
X63223Y159750D01*
X63540Y159417D01*
X63667Y158750D01*
X63540Y158083D01*
X63160Y157667D01*
X62717Y157417D01*
X61133D01*
G01X62717D02*
X63667Y155000D01*
G01X66107Y156000D02*
X66487Y155417D01*
X66993Y155083D01*
X67563Y155000D01*
X68070Y155083D01*
X68577Y155500D01*
X68893Y156000D01*
X68957Y156500D01*
X68830Y157083D01*
X68387Y157500D01*
X67943Y157667D01*
X67373D01*
G01X67943D02*
X68323Y157917D01*
X68640Y158333D01*
X68767Y158833D01*
X68640Y159333D01*
X68323Y159750D01*
X67753Y160000D01*
X67183Y159917D01*
X66613Y159583D01*
G01X71523Y155583D02*
X71967Y155167D01*
X72473Y155000D01*
X72980Y155167D01*
X73423Y155667D01*
X73740Y156417D01*
X73867Y157167D01*
Y158083D01*
X73740Y158833D01*
X73423Y159500D01*
X73043Y159833D01*
X72600Y160000D01*
X72093Y159833D01*
X71713Y159500D01*
X71460Y159000D01*
X71333Y158333D01*
X71460Y157750D01*
X71777Y157167D01*
X72157Y156833D01*
X72600Y156750D01*
X73107Y156917D01*
X73487Y157333D01*
X73867Y158083D01*
G01X63340Y136100D02*
X62660D01*
G01X64067Y170007D02*
X60400Y172793D01*
G01X59733Y171400D02*
X64733D01*
G01X64067Y172793D02*
X60400Y170007D01*
G01X62233Y169500D02*
Y173300D01*
G01X62650Y192350D02*
Y175650D01*
G01X68340Y166100D02*
X67660D01*
G01Y161900D02*
X68340D01*
G01X74000Y207107D02*
X69000D01*
Y208373D01*
X69250Y208880D01*
X69583Y209260D01*
X70083Y209577D01*
X70667Y209830D01*
X71500Y209893D01*
X72333Y209830D01*
X72917Y209577D01*
X73417Y209260D01*
X73750Y208880D01*
X74000Y208373D01*
Y207107D01*
G01X69833Y212397D02*
X69333Y212777D01*
X69083Y213220D01*
X69000Y213727D01*
X69167Y214360D01*
X69583Y214803D01*
X70083Y214930D01*
X70583Y214867D01*
X71000Y214613D01*
X71833Y213347D01*
X72417Y212777D01*
X73250Y212397D01*
X74000Y212270D01*
Y214930D01*
G01X59133Y241000D02*
Y246000D01*
X60717D01*
X61223Y245750D01*
X61540Y245417D01*
X61667Y244750D01*
X61540Y244083D01*
X61160Y243667D01*
X60717Y243417D01*
X59133D01*
G01X60717D02*
X61667Y241000D01*
G01X64297Y245167D02*
X64677Y245667D01*
X65120Y245917D01*
X65627Y246000D01*
X66260Y245833D01*
X66703Y245417D01*
X66830Y244917D01*
X66767Y244417D01*
X66513Y244000D01*
X65247Y243167D01*
X64677Y242583D01*
X64297Y241750D01*
X64170Y241000D01*
X66830D01*
G01X69397Y243083D02*
X69840Y243667D01*
X70220Y244000D01*
X70727Y244167D01*
X71170Y244000D01*
X71487Y243667D01*
X71740Y243167D01*
X71803Y242583D01*
X71740Y242083D01*
X71487Y241583D01*
X71107Y241167D01*
X70663Y241000D01*
X70157Y241167D01*
X69713Y241667D01*
X69460Y242417D01*
X69397Y243250D01*
X69523Y244333D01*
X69713Y244917D01*
X70030Y245500D01*
X70473Y245917D01*
X70917Y246000D01*
X71360Y245833D01*
X71677Y245417D01*
G01X53400Y241840D02*
Y241160D01*
G01X57600D02*
Y241840D01*
G01X67000Y254133D02*
X62000D01*
Y255717D01*
X62250Y256223D01*
X62583Y256540D01*
X63250Y256667D01*
X63917Y256540D01*
X64333Y256160D01*
X64583Y255717D01*
Y254133D01*
G01Y255717D02*
X67000Y256667D01*
G01X62833Y259297D02*
X62333Y259677D01*
X62083Y260120D01*
X62000Y260627D01*
X62167Y261260D01*
X62583Y261703D01*
X63083Y261830D01*
X63583Y261767D01*
X64000Y261513D01*
X64833Y260247D01*
X65417Y259677D01*
X66250Y259297D01*
X67000Y259170D01*
Y261830D01*
G01Y265600D02*
X66917Y266043D01*
X66667Y266550D01*
X66250Y266867D01*
X65667Y266993D01*
X65083Y266867D01*
X64583Y266487D01*
X64333Y265917D01*
Y265283D01*
X64167Y264903D01*
X63750Y264587D01*
X63167Y264460D01*
X62583Y264650D01*
X62167Y265093D01*
X62000Y265600D01*
X62167Y266107D01*
X62583Y266550D01*
X63167Y266740D01*
X63750Y266613D01*
X64167Y266297D01*
X64333Y265917D01*
Y265283D01*
X64583Y264713D01*
X65083Y264333D01*
X65667Y264207D01*
X66250Y264333D01*
X66667Y264650D01*
X66917Y265157D01*
X67000Y265600D01*
G01X59500Y254133D02*
X54500D01*
Y255717D01*
X54750Y256223D01*
X55083Y256540D01*
X55750Y256667D01*
X56417Y256540D01*
X56833Y256160D01*
X57083Y255717D01*
Y254133D01*
G01Y255717D02*
X59500Y256667D01*
G01X58500Y259107D02*
X59083Y259487D01*
X59417Y259993D01*
X59500Y260563D01*
X59417Y261070D01*
X59000Y261577D01*
X58500Y261893D01*
X58000Y261957D01*
X57417Y261830D01*
X57000Y261387D01*
X56833Y260943D01*
Y260373D01*
G01Y260943D02*
X56583Y261323D01*
X56167Y261640D01*
X55667Y261767D01*
X55167Y261640D01*
X54750Y261323D01*
X54500Y260753D01*
X54583Y260183D01*
X54917Y259613D01*
G01X54500Y265600D02*
X54667Y265093D01*
X55083Y264713D01*
X55583Y264460D01*
X56250Y264270D01*
X57000Y264207D01*
X57750Y264270D01*
X58417Y264460D01*
X58917Y264713D01*
X59333Y265093D01*
X59500Y265600D01*
X59333Y266107D01*
X58917Y266487D01*
X58417Y266740D01*
X57750Y266930D01*
X57000Y266993D01*
X56250Y266930D01*
X55583Y266740D01*
X55083Y266487D01*
X54667Y266107D01*
X54500Y265600D01*
G01X74500Y254133D02*
X69500D01*
Y255717D01*
X69750Y256223D01*
X70083Y256540D01*
X70750Y256667D01*
X71417Y256540D01*
X71833Y256160D01*
X72083Y255717D01*
Y254133D01*
G01Y255717D02*
X74500Y256667D01*
G01X73500Y259107D02*
X74083Y259487D01*
X74417Y259993D01*
X74500Y260563D01*
X74417Y261070D01*
X74000Y261577D01*
X73500Y261893D01*
X73000Y261957D01*
X72417Y261830D01*
X72000Y261387D01*
X71833Y260943D01*
Y260373D01*
G01Y260943D02*
X71583Y261323D01*
X71167Y261640D01*
X70667Y261767D01*
X70167Y261640D01*
X69750Y261323D01*
X69500Y260753D01*
X69583Y260183D01*
X69917Y259613D01*
G01X73500Y264207D02*
X74083Y264587D01*
X74417Y265093D01*
X74500Y265663D01*
X74417Y266170D01*
X74000Y266677D01*
X73500Y266993D01*
X73000Y267057D01*
X72417Y266930D01*
X72000Y266487D01*
X71833Y266043D01*
Y265473D01*
G01Y266043D02*
X71583Y266423D01*
X71167Y266740D01*
X70667Y266867D01*
X70167Y266740D01*
X69750Y266423D01*
X69500Y265853D01*
X69583Y265283D01*
X69917Y264713D01*
G01X65060Y274500D02*
X67940D01*
G01X55060D02*
X57940D01*
G01Y301500D02*
X55060D01*
G01X67940D02*
X65060D01*
G01X53600Y320160D02*
Y320840D01*
G01X59400D02*
Y320160D01*
G01X63600D02*
Y320840D01*
G01X69400D02*
Y320160D01*
G01X67910Y402250D02*
X72000D01*
Y408750D01*
G01X59000D02*
Y402250D01*
X63090D01*
G01X66840Y408750D02*
X64160D01*
G01X65160Y418400D02*
X65840D01*
G01X63133Y425000D02*
Y430000D01*
X64717D01*
X65223Y429750D01*
X65540Y429417D01*
X65667Y428750D01*
X65540Y428083D01*
X65160Y427667D01*
X64717Y427417D01*
X63133D01*
G01X64717D02*
X65667Y425000D01*
G01X69500D02*
Y430000D01*
X68740Y429000D01*
G01Y425000D02*
X70260D01*
G01X74473D02*
X74600Y426083D01*
X74790Y427000D01*
X75043Y427833D01*
X75360Y428750D01*
X75867Y430000D01*
X73333D01*
G01X65840Y422600D02*
X65160D01*
G01X86933Y5000D02*
Y10000D01*
X88453D01*
X88960Y9750D01*
X89340Y9167D01*
X89467Y8500D01*
X89340Y7833D01*
X89023Y7333D01*
X88453Y7083D01*
X86933D01*
G01X93300Y5000D02*
X92793Y5083D01*
X92350Y5417D01*
X91970Y5917D01*
X91717Y6500D01*
X91590Y7167D01*
Y7833D01*
X91717Y8500D01*
X91970Y9083D01*
X92350Y9583D01*
X92793Y9917D01*
X93300Y10000D01*
X93807Y9917D01*
X94250Y9583D01*
X94630Y9083D01*
X94883Y8500D01*
X95010Y7833D01*
Y7167D01*
X94883Y6500D01*
X94630Y5917D01*
X94250Y5417D01*
X93807Y5083D01*
X93300Y5000D01*
G01X96500Y10000D02*
X97387Y5000D01*
X98400Y10000D01*
X99413Y5000D01*
X100300Y10000D01*
G01X104767Y5000D02*
X102233D01*
Y10000D01*
X104767D01*
G01X103753Y7583D02*
X102233D01*
G01X107333Y5000D02*
Y10000D01*
X108917D01*
X109423Y9750D01*
X109740Y9417D01*
X109867Y8750D01*
X109740Y8083D01*
X109360Y7667D01*
X108917Y7417D01*
X107333D01*
G01X108917D02*
X109867Y5000D01*
G01X87900Y18500D02*
Y13500D01*
G01X86443Y18500D02*
X89357D01*
G01X91733Y13500D02*
Y18500D01*
X93253D01*
X93760Y18250D01*
X94140Y17667D01*
X94267Y17000D01*
X94140Y16333D01*
X93823Y15833D01*
X93253Y15583D01*
X91733D01*
G01X96897Y17667D02*
X97277Y18167D01*
X97720Y18417D01*
X98227Y18500D01*
X98860Y18333D01*
X99303Y17917D01*
X99430Y17417D01*
X99367Y16917D01*
X99113Y16500D01*
X97847Y15667D01*
X97277Y15083D01*
X96897Y14250D01*
X96770Y13500D01*
X99430D01*
G01X95417Y44793D02*
X95167Y44413D01*
X95000Y43970D01*
Y43463D01*
X95250Y42893D01*
X95667Y42450D01*
X96167Y42133D01*
X97000Y41880D01*
X97750Y41817D01*
X98500Y41943D01*
X99000Y42133D01*
X99500Y42513D01*
X99833Y42957D01*
X100000Y43400D01*
Y43843D01*
X99833Y44287D01*
X99583Y44667D01*
X99250Y44983D01*
G01X100000Y48500D02*
X95000D01*
X96000Y47740D01*
G01X100000D02*
Y49260D01*
G01X95833Y52397D02*
X95333Y52777D01*
X95083Y53220D01*
X95000Y53727D01*
X95167Y54360D01*
X95583Y54803D01*
X96083Y54930D01*
X96583Y54867D01*
X97000Y54613D01*
X97833Y53347D01*
X98417Y52777D01*
X99250Y52397D01*
X100000Y52270D01*
Y54930D01*
G01X76133Y43000D02*
X76450Y42500D01*
X76830Y42167D01*
X77273Y42000D01*
X77780Y42167D01*
X78160Y42500D01*
X78540Y43000D01*
X78667Y43667D01*
Y47000D01*
G01X82500Y42000D02*
Y47000D01*
X81740Y46000D01*
G01Y42000D02*
X83260D01*
G01X87600Y47000D02*
X87093Y46833D01*
X86713Y46417D01*
X86460Y45917D01*
X86270Y45250D01*
X86207Y44500D01*
X86270Y43750D01*
X86460Y43083D01*
X86713Y42583D01*
X87093Y42167D01*
X87600Y42000D01*
X88107Y42167D01*
X88487Y42583D01*
X88740Y43083D01*
X88930Y43750D01*
X88993Y44500D01*
X88930Y45250D01*
X88740Y45917D01*
X88487Y46417D01*
X88107Y46833D01*
X87600Y47000D01*
G01X83417Y75793D02*
X83167Y75413D01*
X83000Y74970D01*
Y74463D01*
X83250Y73893D01*
X83667Y73450D01*
X84167Y73133D01*
X85000Y72880D01*
X85750Y72817D01*
X86500Y72943D01*
X87000Y73133D01*
X87500Y73513D01*
X87833Y73957D01*
X88000Y74400D01*
Y74843D01*
X87833Y75287D01*
X87583Y75667D01*
X87250Y75983D01*
G01X88000Y79500D02*
X83000D01*
X84000Y78740D01*
G01X88000D02*
Y80260D01*
G01Y84600D02*
X87917Y85043D01*
X87667Y85550D01*
X87250Y85867D01*
X86667Y85993D01*
X86083Y85867D01*
X85583Y85487D01*
X85333Y84917D01*
Y84283D01*
X85167Y83903D01*
X84750Y83587D01*
X84167Y83460D01*
X83583Y83650D01*
X83167Y84093D01*
X83000Y84600D01*
X83167Y85107D01*
X83583Y85550D01*
X84167Y85740D01*
X84750Y85613D01*
X85167Y85297D01*
X85333Y84917D01*
Y84283D01*
X85583Y83713D01*
X86083Y83333D01*
X86667Y83207D01*
X87250Y83333D01*
X87667Y83650D01*
X87917Y84157D01*
X88000Y84600D01*
G01X80100Y81160D02*
Y81840D01*
G01X75900D02*
Y81160D01*
G01X95007Y97500D02*
Y93917D01*
X95260Y93167D01*
X95767Y92667D01*
X96400Y92500D01*
X97033Y92667D01*
X97540Y93167D01*
X97793Y93917D01*
Y97500D01*
G01X101500Y92500D02*
Y97500D01*
X100740Y96500D01*
G01Y92500D02*
X102260D01*
G01X106600D02*
Y97500D01*
X105840Y96500D01*
G01Y92500D02*
X107360D01*
G01X85850Y98150D02*
Y114850D01*
G01X101500Y101633D02*
X96500D01*
Y103217D01*
X96750Y103723D01*
X97083Y104040D01*
X97750Y104167D01*
X98417Y104040D01*
X98833Y103660D01*
X99083Y103217D01*
Y101633D01*
G01Y103217D02*
X101500Y104167D01*
G01Y108760D02*
X96500D01*
X100083Y106417D01*
Y109583D01*
G01X101500Y113860D02*
X96500D01*
X100083Y111517D01*
Y114683D01*
G01X95100Y106160D02*
Y106840D01*
G01X90900D02*
Y106160D01*
G01X76133Y129500D02*
Y134500D01*
X77717D01*
X78223Y134250D01*
X78540Y133917D01*
X78667Y133250D01*
X78540Y132583D01*
X78160Y132167D01*
X77717Y131917D01*
X76133D01*
G01X77717D02*
X78667Y129500D01*
G01X83260D02*
Y134500D01*
X80917Y130917D01*
X84083D01*
G01X86397Y133667D02*
X86777Y134167D01*
X87220Y134417D01*
X87727Y134500D01*
X88360Y134333D01*
X88803Y133917D01*
X88930Y133417D01*
X88867Y132917D01*
X88613Y132500D01*
X87347Y131667D01*
X86777Y131083D01*
X86397Y130250D01*
X86270Y129500D01*
X88930D01*
G01X75840Y128600D02*
X75160D01*
G01Y124400D02*
X75840D01*
G01X79133Y139500D02*
Y144500D01*
X80717D01*
X81223Y144250D01*
X81540Y143917D01*
X81667Y143250D01*
X81540Y142583D01*
X81160Y142167D01*
X80717Y141917D01*
X79133D01*
G01X80717D02*
X81667Y139500D01*
G01X86260D02*
Y144500D01*
X83917Y140917D01*
X87083D01*
G01X90600Y144500D02*
X90093Y144333D01*
X89713Y143917D01*
X89460Y143417D01*
X89270Y142750D01*
X89207Y142000D01*
X89270Y141250D01*
X89460Y140583D01*
X89713Y140083D01*
X90093Y139667D01*
X90600Y139500D01*
X91107Y139667D01*
X91487Y140083D01*
X91740Y140583D01*
X91930Y141250D01*
X91993Y142000D01*
X91930Y142750D01*
X91740Y143417D01*
X91487Y143917D01*
X91107Y144333D01*
X90600Y144500D01*
G01X85160Y149400D02*
X85840D01*
G01Y153600D02*
X85160D01*
G01X84507Y179500D02*
Y175917D01*
X84760Y175167D01*
X85267Y174667D01*
X85900Y174500D01*
X86533Y174667D01*
X87040Y175167D01*
X87293Y175917D01*
Y179500D01*
G01X91000Y174500D02*
Y179500D01*
X90240Y178500D01*
G01Y174500D02*
X91760D01*
G01X96100Y179500D02*
X95593Y179333D01*
X95213Y178917D01*
X94960Y178417D01*
X94770Y177750D01*
X94707Y177000D01*
X94770Y176250D01*
X94960Y175583D01*
X95213Y175083D01*
X95593Y174667D01*
X96100Y174500D01*
X96607Y174667D01*
X96987Y175083D01*
X97240Y175583D01*
X97430Y176250D01*
X97493Y177000D01*
X97430Y177750D01*
X97240Y178417D01*
X96987Y178917D01*
X96607Y179333D01*
X96100Y179500D01*
G01X83350Y175650D02*
Y192350D01*
G01X87293Y170583D02*
X86913Y170833D01*
X86470Y171000D01*
X85963D01*
X85393Y170750D01*
X84950Y170333D01*
X84633Y169833D01*
X84380Y169000D01*
X84317Y168250D01*
X84443Y167500D01*
X84633Y167000D01*
X85013Y166500D01*
X85457Y166167D01*
X85900Y166000D01*
X86343D01*
X86787Y166167D01*
X87167Y166417D01*
X87483Y166750D01*
G01X91000Y166000D02*
Y171000D01*
X90240Y170000D01*
G01Y166000D02*
X91760D01*
G01X94707Y166750D02*
X95087Y166333D01*
X95530Y166083D01*
X96100Y166000D01*
X96670Y166167D01*
X97113Y166500D01*
X97430Y167083D01*
X97493Y167750D01*
X97367Y168417D01*
X97050Y168833D01*
X96607Y169167D01*
X96163Y169250D01*
X95720Y169167D01*
X95150Y168833D01*
X95340Y171000D01*
X97050D01*
G01X86417Y188793D02*
X86167Y188413D01*
X86000Y187970D01*
Y187463D01*
X86250Y186893D01*
X86667Y186450D01*
X87167Y186133D01*
X88000Y185880D01*
X88750Y185817D01*
X89500Y185943D01*
X90000Y186133D01*
X90500Y186513D01*
X90833Y186957D01*
X91000Y187400D01*
Y187843D01*
X90833Y188287D01*
X90583Y188667D01*
X90250Y188983D01*
G01X91000Y192500D02*
X86000D01*
X87000Y191740D01*
G01X91000D02*
Y193260D01*
G01X86000Y197600D02*
X86167Y197093D01*
X86583Y196713D01*
X87083Y196460D01*
X87750Y196270D01*
X88500Y196207D01*
X89250Y196270D01*
X89917Y196460D01*
X90417Y196713D01*
X90833Y197093D01*
X91000Y197600D01*
X90833Y198107D01*
X90417Y198487D01*
X89917Y198740D01*
X89250Y198930D01*
X88500Y198993D01*
X87750Y198930D01*
X87083Y198740D01*
X86583Y198487D01*
X86167Y198107D01*
X86000Y197600D01*
G01X93400Y194340D02*
Y193660D01*
G01X91400Y225500D02*
X90893Y225583D01*
X90450Y225917D01*
X90070Y226417D01*
X89817Y227000D01*
X89690Y227667D01*
Y228333D01*
X89817Y229000D01*
X90070Y229583D01*
X90450Y230083D01*
X90893Y230417D01*
X91400Y230500D01*
X91907Y230417D01*
X92350Y230083D01*
X92730Y229583D01*
X92983Y229000D01*
X93110Y228333D01*
Y227667D01*
X92983Y227000D01*
X92730Y226417D01*
X92350Y225917D01*
X91907Y225583D01*
X91400Y225500D01*
G01X91907Y226833D02*
X92667Y225500D01*
G01X96500D02*
Y230500D01*
X95740Y229500D01*
G01Y225500D02*
X97260D01*
G01X100397Y229667D02*
X100777Y230167D01*
X101220Y230417D01*
X101727Y230500D01*
X102360Y230333D01*
X102803Y229917D01*
X102930Y229417D01*
X102867Y228917D01*
X102613Y228500D01*
X101347Y227667D01*
X100777Y227083D01*
X100397Y226250D01*
X100270Y225500D01*
X102930D01*
G01X79500Y219133D02*
X74500D01*
Y220717D01*
X74750Y221223D01*
X75083Y221540D01*
X75750Y221667D01*
X76417Y221540D01*
X76833Y221160D01*
X77083Y220717D01*
Y219133D01*
G01Y220717D02*
X79500Y221667D01*
G01Y226260D02*
X74500D01*
X78083Y223917D01*
Y227083D01*
G01X77417Y229397D02*
X76833Y229840D01*
X76500Y230220D01*
X76333Y230727D01*
X76500Y231170D01*
X76833Y231487D01*
X77333Y231740D01*
X77917Y231803D01*
X78417Y231740D01*
X78917Y231487D01*
X79333Y231107D01*
X79500Y230663D01*
X79333Y230157D01*
X78833Y229713D01*
X78083Y229460D01*
X77250Y229397D01*
X76167Y229523D01*
X75583Y229713D01*
X75000Y230030D01*
X74583Y230473D01*
X74500Y230917D01*
X74667Y231360D01*
X75083Y231677D01*
G01X80900Y229340D02*
Y228660D01*
G01X85100D02*
Y229340D01*
G01X85250Y213490D02*
Y214510D01*
G01X80750D02*
Y213490D01*
G01X89500Y213050D02*
X90500Y216050D01*
X90000Y213050D01*
G01X88500D02*
X90500Y216050D01*
X89000Y213050D01*
G01X92000D02*
X90500Y216050D01*
X91500Y213050D01*
G01X92500D02*
X90500Y216050D01*
X93000Y213050D01*
X88000D01*
X90500Y216050D01*
X91000Y213050D01*
G01X93000Y216050D02*
X88000D01*
G01X90500Y212050D02*
Y217050D01*
G01X99750Y240410D02*
Y244500D01*
X93250D01*
G01Y231500D02*
X99750D01*
Y235590D01*
G01X93250Y239340D02*
Y236660D01*
G01X91300Y245500D02*
G03I-500J0D01*
G01X82000Y254133D02*
X77000D01*
Y255717D01*
X77250Y256223D01*
X77583Y256540D01*
X78250Y256667D01*
X78917Y256540D01*
X79333Y256160D01*
X79583Y255717D01*
Y254133D01*
G01Y255717D02*
X82000Y256667D01*
G01X81000Y259107D02*
X81583Y259487D01*
X81917Y259993D01*
X82000Y260563D01*
X81917Y261070D01*
X81500Y261577D01*
X81000Y261893D01*
X80500Y261957D01*
X79917Y261830D01*
X79500Y261387D01*
X79333Y260943D01*
Y260373D01*
G01Y260943D02*
X79083Y261323D01*
X78667Y261640D01*
X78167Y261767D01*
X77667Y261640D01*
X77250Y261323D01*
X77000Y260753D01*
X77083Y260183D01*
X77417Y259613D01*
G01X82000Y266360D02*
X77000D01*
X80583Y264017D01*
Y267183D01*
G01X89500Y254133D02*
X84500D01*
Y255717D01*
X84750Y256223D01*
X85083Y256540D01*
X85750Y256667D01*
X86417Y256540D01*
X86833Y256160D01*
X87083Y255717D01*
Y254133D01*
G01Y255717D02*
X89500Y256667D01*
G01X88500Y259107D02*
X89083Y259487D01*
X89417Y259993D01*
X89500Y260563D01*
X89417Y261070D01*
X89000Y261577D01*
X88500Y261893D01*
X88000Y261957D01*
X87417Y261830D01*
X87000Y261387D01*
X86833Y260943D01*
Y260373D01*
G01Y260943D02*
X86583Y261323D01*
X86167Y261640D01*
X85667Y261767D01*
X85167Y261640D01*
X84750Y261323D01*
X84500Y260753D01*
X84583Y260183D01*
X84917Y259613D01*
G01X87417Y264397D02*
X86833Y264840D01*
X86500Y265220D01*
X86333Y265727D01*
X86500Y266170D01*
X86833Y266487D01*
X87333Y266740D01*
X87917Y266803D01*
X88417Y266740D01*
X88917Y266487D01*
X89333Y266107D01*
X89500Y265663D01*
X89333Y265157D01*
X88833Y264713D01*
X88083Y264460D01*
X87250Y264397D01*
X86167Y264523D01*
X85583Y264713D01*
X85000Y265030D01*
X84583Y265473D01*
X84500Y265917D01*
X84667Y266360D01*
X85083Y266677D01*
G01X97000Y254133D02*
X92000D01*
Y255717D01*
X92250Y256223D01*
X92583Y256540D01*
X93250Y256667D01*
X93917Y256540D01*
X94333Y256160D01*
X94583Y255717D01*
Y254133D01*
G01Y255717D02*
X97000Y256667D01*
G01X96000Y259107D02*
X96583Y259487D01*
X96917Y259993D01*
X97000Y260563D01*
X96917Y261070D01*
X96500Y261577D01*
X96000Y261893D01*
X95500Y261957D01*
X94917Y261830D01*
X94500Y261387D01*
X94333Y260943D01*
Y260373D01*
G01Y260943D02*
X94083Y261323D01*
X93667Y261640D01*
X93167Y261767D01*
X92667Y261640D01*
X92250Y261323D01*
X92000Y260753D01*
X92083Y260183D01*
X92417Y259613D01*
G01X97000Y265473D02*
X95917Y265600D01*
X95000Y265790D01*
X94167Y266043D01*
X93250Y266360D01*
X92000Y266867D01*
Y264333D01*
G01X95060Y274500D02*
X95750D01*
Y301500D01*
X95060D01*
G01X85060Y274500D02*
X87940D01*
G01X75060D02*
X77940D01*
G01Y301500D02*
X75060D01*
G01X87940D02*
X85060D01*
G01X73600Y320160D02*
Y320840D01*
G01X79400D02*
Y320160D01*
G01X83600D02*
Y320840D01*
G01X89400D02*
Y320160D01*
G01X93600D02*
Y320840D01*
G01X96507Y337000D02*
Y342000D01*
X97773D01*
X98280Y341750D01*
X98660Y341417D01*
X98977Y340917D01*
X99230Y340333D01*
X99293Y339500D01*
X99230Y338667D01*
X98977Y338083D01*
X98660Y337583D01*
X98280Y337250D01*
X97773Y337000D01*
X96507D01*
G01X101670Y337667D02*
X102177Y337250D01*
X102747Y337000D01*
X103253D01*
X103760Y337250D01*
X104140Y337667D01*
X104330Y338250D01*
X104203Y338833D01*
X103887Y339333D01*
X103317Y339667D01*
X102557Y339833D01*
X102113Y340167D01*
X101923Y340750D01*
X102050Y341333D01*
X102367Y341750D01*
X102810Y342000D01*
X103253D01*
X103697Y341833D01*
X104077Y341417D01*
G01X108100Y337000D02*
Y342000D01*
X107340Y341000D01*
G01Y337000D02*
X108860D01*
G01X77000Y410700D02*
G03I-500J0D01*
G01X133650Y28750D02*
X106350D01*
Y13250D01*
X133650D01*
Y28750D01*
G01X100900Y41840D02*
Y41160D01*
G01X105100D02*
Y41840D01*
G01X108000Y72233D02*
X103000D01*
Y73817D01*
X103250Y74323D01*
X103583Y74640D01*
X104250Y74767D01*
X104917Y74640D01*
X105333Y74260D01*
X105583Y73817D01*
Y72233D01*
G01Y73817D02*
X108000Y74767D01*
G01X107000Y77207D02*
X107583Y77587D01*
X107917Y78093D01*
X108000Y78663D01*
X107917Y79170D01*
X107500Y79677D01*
X107000Y79993D01*
X106500Y80057D01*
X105917Y79930D01*
X105500Y79487D01*
X105333Y79043D01*
Y78473D01*
G01Y79043D02*
X105083Y79423D01*
X104667Y79740D01*
X104167Y79867D01*
X103667Y79740D01*
X103250Y79423D01*
X103000Y78853D01*
X103083Y78283D01*
X103417Y77713D01*
G01X113600Y72660D02*
Y73340D01*
G01X109400D02*
Y72660D01*
G01X118207Y104833D02*
X120993Y108500D01*
G01X119600Y109167D02*
Y104167D01*
G01X120993Y104833D02*
X118207Y108500D01*
G01X117700Y106667D02*
X121500D01*
G01X111293Y158583D02*
X110913Y158833D01*
X110470Y159000D01*
X109963D01*
X109393Y158750D01*
X108950Y158333D01*
X108633Y157833D01*
X108380Y157000D01*
X108317Y156250D01*
X108443Y155500D01*
X108633Y155000D01*
X109013Y154500D01*
X109457Y154167D01*
X109900Y154000D01*
X110343D01*
X110787Y154167D01*
X111167Y154417D01*
X111483Y154750D01*
G01X115000Y154000D02*
Y159000D01*
X114240Y158000D01*
G01Y154000D02*
X115760D01*
G01X120100D02*
Y159000D01*
X119340Y158000D01*
G01Y154000D02*
X120860D01*
G01X104067Y172507D02*
X100400Y175293D01*
G01X99733Y173900D02*
X104733D01*
G01X104067Y175293D02*
X100400Y172507D01*
G01X102233Y172000D02*
Y175800D01*
G01X102650Y194850D02*
Y178150D01*
G01X115840Y168600D02*
X115160D01*
G01Y164400D02*
X115840D01*
G01X97600Y193660D02*
Y194340D01*
G01X121507Y224750D02*
X121887Y224333D01*
X122330Y224083D01*
X122900Y224000D01*
X123470Y224167D01*
X123913Y224500D01*
X124230Y225083D01*
X124293Y225750D01*
X124167Y226417D01*
X123850Y226833D01*
X123407Y227167D01*
X122963Y227250D01*
X122520Y227167D01*
X121950Y226833D01*
X122140Y229000D01*
X123850D01*
G01X126417D02*
X128000Y224000D01*
X129583Y229000D01*
G01X132277Y225667D02*
X133923D01*
G01X105900Y221500D02*
Y216500D01*
G01X104443Y221500D02*
X107357D01*
G01X109733Y216500D02*
Y221500D01*
X111253D01*
X111760Y221250D01*
X112140Y220667D01*
X112267Y220000D01*
X112140Y219333D01*
X111823Y218833D01*
X111253Y218583D01*
X109733D01*
G01X114707Y217500D02*
X115087Y216917D01*
X115593Y216583D01*
X116163Y216500D01*
X116670Y216583D01*
X117177Y217000D01*
X117493Y217500D01*
X117557Y218000D01*
X117430Y218583D01*
X116987Y219000D01*
X116543Y219167D01*
X115973D01*
G01X116543D02*
X116923Y219417D01*
X117240Y219833D01*
X117367Y220333D01*
X117240Y220833D01*
X116923Y221250D01*
X116353Y221500D01*
X115783Y221417D01*
X115213Y221083D01*
G01X104500Y254133D02*
X99500D01*
Y255717D01*
X99750Y256223D01*
X100083Y256540D01*
X100750Y256667D01*
X101417Y256540D01*
X101833Y256160D01*
X102083Y255717D01*
Y254133D01*
G01Y255717D02*
X104500Y256667D01*
G01X103500Y259107D02*
X104083Y259487D01*
X104417Y259993D01*
X104500Y260563D01*
X104417Y261070D01*
X104000Y261577D01*
X103500Y261893D01*
X103000Y261957D01*
X102417Y261830D01*
X102000Y261387D01*
X101833Y260943D01*
Y260373D01*
G01Y260943D02*
X101583Y261323D01*
X101167Y261640D01*
X100667Y261767D01*
X100167Y261640D01*
X99750Y261323D01*
X99500Y260753D01*
X99583Y260183D01*
X99917Y259613D01*
G01X104500Y265600D02*
X104417Y266043D01*
X104167Y266550D01*
X103750Y266867D01*
X103167Y266993D01*
X102583Y266867D01*
X102083Y266487D01*
X101833Y265917D01*
Y265283D01*
X101667Y264903D01*
X101250Y264587D01*
X100667Y264460D01*
X100083Y264650D01*
X99667Y265093D01*
X99500Y265600D01*
X99667Y266107D01*
X100083Y266550D01*
X100667Y266740D01*
X101250Y266613D01*
X101667Y266297D01*
X101833Y265917D01*
Y265283D01*
X102083Y264713D01*
X102583Y264333D01*
X103167Y264207D01*
X103750Y264333D01*
X104167Y264650D01*
X104417Y265157D01*
X104500Y265600D01*
G01X111133Y233000D02*
Y238000D01*
X112717D01*
X113223Y237750D01*
X113540Y237417D01*
X113667Y236750D01*
X113540Y236083D01*
X113160Y235667D01*
X112717Y235417D01*
X111133D01*
G01X112717D02*
X113667Y233000D01*
G01X116107Y233750D02*
X116487Y233333D01*
X116930Y233083D01*
X117500Y233000D01*
X118070Y233167D01*
X118513Y233500D01*
X118830Y234083D01*
X118893Y234750D01*
X118767Y235417D01*
X118450Y235833D01*
X118007Y236167D01*
X117563Y236250D01*
X117120Y236167D01*
X116550Y235833D01*
X116740Y238000D01*
X118450D01*
G01X121397Y237167D02*
X121777Y237667D01*
X122220Y237917D01*
X122727Y238000D01*
X123360Y237833D01*
X123803Y237417D01*
X123930Y236917D01*
X123867Y236417D01*
X123613Y236000D01*
X122347Y235167D01*
X121777Y234583D01*
X121397Y233750D01*
X121270Y233000D01*
X123930D01*
G01X112660Y239400D02*
X113340D01*
G01Y243600D02*
X112660D01*
G01X112500Y301300D02*
G03I-500J0D01*
G01X117000Y279633D02*
X112000D01*
Y281217D01*
X112250Y281723D01*
X112583Y282040D01*
X113250Y282167D01*
X113917Y282040D01*
X114333Y281660D01*
X114583Y281217D01*
Y279633D01*
G01Y281217D02*
X117000Y282167D01*
G01Y286000D02*
X112000D01*
X113000Y285240D01*
G01X117000D02*
Y286760D01*
G01Y291100D02*
X116917Y291543D01*
X116667Y292050D01*
X116250Y292367D01*
X115667Y292493D01*
X115083Y292367D01*
X114583Y291987D01*
X114333Y291417D01*
Y290783D01*
X114167Y290403D01*
X113750Y290087D01*
X113167Y289960D01*
X112583Y290150D01*
X112167Y290593D01*
X112000Y291100D01*
X112167Y291607D01*
X112583Y292050D01*
X113167Y292240D01*
X113750Y292113D01*
X114167Y291797D01*
X114333Y291417D01*
Y290783D01*
X114583Y290213D01*
X115083Y289833D01*
X115667Y289707D01*
X116250Y289833D01*
X116667Y290150D01*
X116917Y290657D01*
X117000Y291100D01*
G01X118400Y286840D02*
Y286160D01*
G01X120590Y309750D02*
X116500D01*
Y303250D01*
G01X103207Y345333D02*
X105993Y349000D01*
G01X104600Y349667D02*
Y344667D01*
G01X105993Y345333D02*
X103207Y349000D01*
G01X102700Y347167D02*
X106500D01*
G01X109633Y329000D02*
Y334000D01*
X111217D01*
X111723Y333750D01*
X112040Y333417D01*
X112167Y332750D01*
X112040Y332083D01*
X111660Y331667D01*
X111217Y331417D01*
X109633D01*
G01X111217D02*
X112167Y329000D01*
G01X116000D02*
Y334000D01*
X115240Y333000D01*
G01Y329000D02*
X116760D01*
G01X119707Y329750D02*
X120087Y329333D01*
X120530Y329083D01*
X121100Y329000D01*
X121670Y329167D01*
X122113Y329500D01*
X122430Y330083D01*
X122493Y330750D01*
X122367Y331417D01*
X122050Y331833D01*
X121607Y332167D01*
X121163Y332250D01*
X120720Y332167D01*
X120150Y331833D01*
X120340Y334000D01*
X122050D01*
G01X131607Y11500D02*
Y7917D01*
X131860Y7167D01*
X132367Y6667D01*
X133000Y6500D01*
X133633Y6667D01*
X134140Y7167D01*
X134393Y7917D01*
Y11500D01*
G01X138100Y6500D02*
X138543Y6583D01*
X139050Y6833D01*
X139367Y7250D01*
X139493Y7833D01*
X139367Y8417D01*
X138987Y8917D01*
X138417Y9167D01*
X137783D01*
X137403Y9333D01*
X137087Y9750D01*
X136960Y10333D01*
X137150Y10917D01*
X137593Y11333D01*
X138100Y11500D01*
X138607Y11333D01*
X139050Y10917D01*
X139240Y10333D01*
X139113Y9750D01*
X138797Y9333D01*
X138417Y9167D01*
X137783D01*
X137213Y8917D01*
X136833Y8417D01*
X136707Y7833D01*
X136833Y7250D01*
X137150Y6833D01*
X137657Y6583D01*
X138100Y6500D01*
G01X134393Y43583D02*
X134013Y43833D01*
X133570Y44000D01*
X133063D01*
X132493Y43750D01*
X132050Y43333D01*
X131733Y42833D01*
X131480Y42000D01*
X131417Y41250D01*
X131543Y40500D01*
X131733Y40000D01*
X132113Y39500D01*
X132557Y39167D01*
X133000Y39000D01*
X133443D01*
X133887Y39167D01*
X134267Y39417D01*
X134583Y39750D01*
G01X137023Y39583D02*
X137467Y39167D01*
X137973Y39000D01*
X138480Y39167D01*
X138923Y39667D01*
X139240Y40417D01*
X139367Y41167D01*
Y42083D01*
X139240Y42833D01*
X138923Y43500D01*
X138543Y43833D01*
X138100Y44000D01*
X137593Y43833D01*
X137213Y43500D01*
X136960Y43000D01*
X136833Y42333D01*
X136960Y41750D01*
X137277Y41167D01*
X137657Y40833D01*
X138100Y40750D01*
X138607Y40917D01*
X138987Y41333D01*
X139367Y42083D01*
G01X138650Y35350D02*
G03I-500J0D01*
G01X123340Y43600D02*
X122660D01*
G01Y39400D02*
X123340D01*
G01X128607Y86000D02*
Y82417D01*
X128860Y81667D01*
X129367Y81167D01*
X130000Y81000D01*
X130633Y81167D01*
X131140Y81667D01*
X131393Y82417D01*
Y86000D01*
G01X133897Y85167D02*
X134277Y85667D01*
X134720Y85917D01*
X135227Y86000D01*
X135860Y85833D01*
X136303Y85417D01*
X136430Y84917D01*
X136367Y84417D01*
X136113Y84000D01*
X134847Y83167D01*
X134277Y82583D01*
X133897Y81750D01*
X133770Y81000D01*
X136430D01*
G01X143950Y101930D02*
Y103300D01*
X124050D01*
Y101930D01*
G01X143950Y91930D02*
Y99070D01*
G01X124050Y89070D02*
Y87700D01*
X143950D01*
Y89070D01*
G01X124050Y99070D02*
Y91930D01*
G01X133000Y125233D02*
X128000D01*
Y126817D01*
X128250Y127323D01*
X128583Y127640D01*
X129250Y127767D01*
X129917Y127640D01*
X130333Y127260D01*
X130583Y126817D01*
Y125233D01*
G01Y126817D02*
X133000Y127767D01*
G01X128833Y130397D02*
X128333Y130777D01*
X128083Y131220D01*
X128000Y131727D01*
X128167Y132360D01*
X128583Y132803D01*
X129083Y132930D01*
X129583Y132867D01*
X130000Y132613D01*
X130833Y131347D01*
X131417Y130777D01*
X132250Y130397D01*
X133000Y130270D01*
Y132930D01*
G01X138600Y127660D02*
Y128340D01*
G01X134400D02*
Y127660D01*
G01X144950Y133290D02*
Y132350D01*
X153050D01*
Y133290D01*
G01X143107Y159500D02*
Y155917D01*
X143360Y155167D01*
X143867Y154667D01*
X144500Y154500D01*
X145133Y154667D01*
X145640Y155167D01*
X145893Y155917D01*
Y159500D01*
G01X149600Y154500D02*
Y159500D01*
X148840Y158500D01*
G01Y154500D02*
X150360D01*
G01X132607Y138500D02*
Y143500D01*
X133873D01*
X134380Y143250D01*
X134760Y142917D01*
X135077Y142417D01*
X135330Y141833D01*
X135393Y141000D01*
X135330Y140167D01*
X135077Y139583D01*
X134760Y139083D01*
X134380Y138750D01*
X133873Y138500D01*
X132607D01*
G01X139100D02*
Y143500D01*
X138340Y142500D01*
G01Y138500D02*
X139860D01*
G01X153050Y137710D02*
Y138650D01*
X144950D01*
Y137710D01*
G01X150167Y166707D02*
X146500Y169493D01*
G01X145833Y168100D02*
X150833D01*
G01X150167Y169493D02*
X146500Y166707D01*
G01X148333Y166200D02*
Y170000D01*
G01X124607Y177500D02*
Y173917D01*
X124860Y173167D01*
X125367Y172667D01*
X126000Y172500D01*
X126633Y172667D01*
X127140Y173167D01*
X127393Y173917D01*
Y177500D01*
G01X130023Y173083D02*
X130467Y172667D01*
X130973Y172500D01*
X131480Y172667D01*
X131923Y173167D01*
X132240Y173917D01*
X132367Y174667D01*
Y175583D01*
X132240Y176333D01*
X131923Y177000D01*
X131543Y177333D01*
X131100Y177500D01*
X130593Y177333D01*
X130213Y177000D01*
X129960Y176500D01*
X129833Y175833D01*
X129960Y175250D01*
X130277Y174667D01*
X130657Y174333D01*
X131100Y174250D01*
X131607Y174417D01*
X131987Y174833D01*
X132367Y175583D01*
G01X123350Y178150D02*
Y194850D01*
G01X137417Y175893D02*
X137167Y175513D01*
X137000Y175070D01*
Y174563D01*
X137250Y173993D01*
X137667Y173550D01*
X138167Y173233D01*
X139000Y172980D01*
X139750Y172917D01*
X140500Y173043D01*
X141000Y173233D01*
X141500Y173613D01*
X141833Y174057D01*
X142000Y174500D01*
Y174943D01*
X141833Y175387D01*
X141583Y175767D01*
X141250Y176083D01*
G01X142000Y179600D02*
X137000D01*
X138000Y178840D01*
G01X142000D02*
Y180360D01*
G01X143400Y176840D02*
Y176160D01*
G01X139917Y200793D02*
X139667Y200413D01*
X139500Y199970D01*
Y199463D01*
X139750Y198893D01*
X140167Y198450D01*
X140667Y198133D01*
X141500Y197880D01*
X142250Y197817D01*
X143000Y197943D01*
X143500Y198133D01*
X144000Y198513D01*
X144333Y198957D01*
X144500Y199400D01*
Y199843D01*
X144333Y200287D01*
X144083Y200667D01*
X143750Y200983D01*
G01X144500Y204500D02*
X139500D01*
X140500Y203740D01*
G01X144500D02*
Y205260D01*
G01Y210360D02*
X139500D01*
X143083Y208017D01*
Y211183D01*
G01X135900Y191840D02*
Y191160D01*
G01X140100D02*
Y191840D01*
G01X133417Y200793D02*
X133167Y200413D01*
X133000Y199970D01*
Y199463D01*
X133250Y198893D01*
X133667Y198450D01*
X134167Y198133D01*
X135000Y197880D01*
X135750Y197817D01*
X136500Y197943D01*
X137000Y198133D01*
X137500Y198513D01*
X137833Y198957D01*
X138000Y199400D01*
Y199843D01*
X137833Y200287D01*
X137583Y200667D01*
X137250Y200983D01*
G01X138000Y204500D02*
X133000D01*
X134000Y203740D01*
G01X138000D02*
Y205260D01*
G01X137000Y208207D02*
X137583Y208587D01*
X137917Y209093D01*
X138000Y209663D01*
X137917Y210170D01*
X137500Y210677D01*
X137000Y210993D01*
X136500Y211057D01*
X135917Y210930D01*
X135500Y210487D01*
X135333Y210043D01*
Y209473D01*
G01Y210043D02*
X135083Y210423D01*
X134667Y210740D01*
X134167Y210867D01*
X133667Y210740D01*
X133250Y210423D01*
X133000Y209853D01*
X133083Y209283D01*
X133417Y208713D01*
G01X128400Y191840D02*
Y191160D01*
G01X132600D02*
Y191840D01*
G01X126000Y293000D02*
X125493Y293083D01*
X125050Y293417D01*
X124670Y293917D01*
X124417Y294500D01*
X124290Y295167D01*
Y295833D01*
X124417Y296500D01*
X124670Y297083D01*
X125050Y297583D01*
X125493Y297917D01*
X126000Y298000D01*
X126507Y297917D01*
X126950Y297583D01*
X127330Y297083D01*
X127583Y296500D01*
X127710Y295833D01*
Y295167D01*
X127583Y294500D01*
X127330Y293917D01*
X126950Y293417D01*
X126507Y293083D01*
X126000Y293000D01*
G01X126507Y294333D02*
X127267Y293000D01*
G01X129897Y295083D02*
X130340Y295667D01*
X130720Y296000D01*
X131227Y296167D01*
X131670Y296000D01*
X131987Y295667D01*
X132240Y295167D01*
X132303Y294583D01*
X132240Y294083D01*
X131987Y293583D01*
X131607Y293167D01*
X131163Y293000D01*
X130657Y293167D01*
X130213Y293667D01*
X129960Y294417D01*
X129897Y295250D01*
X130023Y296333D01*
X130213Y296917D01*
X130530Y297500D01*
X130973Y297917D01*
X131417Y298000D01*
X131860Y297833D01*
X132177Y297417D01*
G01X135000Y301300D02*
G03I-500J0D01*
G01X122600Y286160D02*
Y286840D01*
G01X139500Y280633D02*
X134500D01*
Y282217D01*
X134750Y282723D01*
X135083Y283040D01*
X135750Y283167D01*
X136417Y283040D01*
X136833Y282660D01*
X137083Y282217D01*
Y280633D01*
G01Y282217D02*
X139500Y283167D01*
G01X135333Y285797D02*
X134833Y286177D01*
X134583Y286620D01*
X134500Y287127D01*
X134667Y287760D01*
X135083Y288203D01*
X135583Y288330D01*
X136083Y288267D01*
X136500Y288013D01*
X137333Y286747D01*
X137917Y286177D01*
X138750Y285797D01*
X139500Y285670D01*
Y288330D01*
G01X138500Y290707D02*
X139083Y291087D01*
X139417Y291593D01*
X139500Y292163D01*
X139417Y292670D01*
X139000Y293177D01*
X138500Y293493D01*
X138000Y293557D01*
X137417Y293430D01*
X137000Y292987D01*
X136833Y292543D01*
Y291973D01*
G01Y292543D02*
X136583Y292923D01*
X136167Y293240D01*
X135667Y293367D01*
X135167Y293240D01*
X134750Y292923D01*
X134500Y292353D01*
X134583Y291783D01*
X134917Y291213D01*
G01X140900Y286840D02*
Y286160D01*
G01X145100D02*
Y286840D01*
G01X129500Y303250D02*
Y309750D01*
X125410D01*
G01X121660Y303250D02*
X124340D01*
G01X143090Y309750D02*
X139000D01*
Y303250D01*
G01X144160D02*
X146840D01*
G01X122660Y324400D02*
X123340D01*
G01X142000Y320133D02*
X137000D01*
Y321717D01*
X137250Y322223D01*
X137583Y322540D01*
X138250Y322667D01*
X138917Y322540D01*
X139333Y322160D01*
X139583Y321717D01*
Y320133D01*
G01Y321717D02*
X142000Y322667D01*
G01X137833Y325297D02*
X137333Y325677D01*
X137083Y326120D01*
X137000Y326627D01*
X137167Y327260D01*
X137583Y327703D01*
X138083Y327830D01*
X138583Y327767D01*
X139000Y327513D01*
X139833Y326247D01*
X140417Y325677D01*
X141250Y325297D01*
X142000Y325170D01*
Y327830D01*
G01X141250Y330207D02*
X141667Y330587D01*
X141917Y331030D01*
X142000Y331600D01*
X141833Y332170D01*
X141500Y332613D01*
X140917Y332930D01*
X140250Y332993D01*
X139583Y332867D01*
X139167Y332550D01*
X138833Y332107D01*
X138750Y331663D01*
X138833Y331220D01*
X139167Y330650D01*
X137000Y330840D01*
Y332550D01*
G01X123340Y328600D02*
X122660D01*
G01X143400Y326840D02*
Y326160D01*
G01X128000Y422500D02*
X127493Y422583D01*
X127050Y422917D01*
X126670Y423417D01*
X126417Y424000D01*
X126290Y424667D01*
Y425333D01*
X126417Y426000D01*
X126670Y426583D01*
X127050Y427083D01*
X127493Y427417D01*
X128000Y427500D01*
X128507Y427417D01*
X128950Y427083D01*
X129330Y426583D01*
X129583Y426000D01*
X129710Y425333D01*
Y424667D01*
X129583Y424000D01*
X129330Y423417D01*
X128950Y422917D01*
X128507Y422583D01*
X128000Y422500D01*
G01X128507Y423833D02*
X129267Y422500D01*
G01X133100D02*
Y427500D01*
X132340Y426500D01*
G01Y422500D02*
X133860D01*
G01X138910Y429750D02*
X143000D01*
Y436250D01*
G01X130000D02*
Y429750D01*
X134090D01*
G01X137840Y436250D02*
X135160D01*
G01X143724Y443973D02*
G03I-500J0D01*
G01X158233Y14000D02*
X158550Y13500D01*
X158930Y13167D01*
X159373Y13000D01*
X159880Y13167D01*
X160260Y13500D01*
X160640Y14000D01*
X160767Y14667D01*
Y18000D01*
G01X163397Y15083D02*
X163840Y15667D01*
X164220Y16000D01*
X164727Y16167D01*
X165170Y16000D01*
X165487Y15667D01*
X165740Y15167D01*
X165803Y14583D01*
X165740Y14083D01*
X165487Y13583D01*
X165107Y13167D01*
X164663Y13000D01*
X164157Y13167D01*
X163713Y13667D01*
X163460Y14417D01*
X163397Y15250D01*
X163523Y16333D01*
X163713Y16917D01*
X164030Y17500D01*
X164473Y17917D01*
X164917Y18000D01*
X165360Y17833D01*
X165677Y17417D01*
G01X160207Y104833D02*
X162993Y108500D01*
G01X161600Y109167D02*
Y104167D01*
G01X162993Y104833D02*
X160207Y108500D01*
G01X159700Y106667D02*
X163500D01*
G01X186450Y101930D02*
Y103300D01*
X166550D01*
Y101930D01*
G01Y89070D02*
Y87700D01*
X186450D01*
Y89070D01*
G01X166550Y99070D02*
Y91930D01*
G01X166917Y126393D02*
X166667Y126013D01*
X166500Y125570D01*
Y125063D01*
X166750Y124493D01*
X167167Y124050D01*
X167667Y123733D01*
X168500Y123480D01*
X169250Y123417D01*
X170000Y123543D01*
X170500Y123733D01*
X171000Y124113D01*
X171333Y124557D01*
X171500Y125000D01*
Y125443D01*
X171333Y125887D01*
X171083Y126267D01*
X170750Y126583D01*
G01X170500Y128707D02*
X171083Y129087D01*
X171417Y129593D01*
X171500Y130163D01*
X171417Y130670D01*
X171000Y131177D01*
X170500Y131493D01*
X170000Y131557D01*
X169417Y131430D01*
X169000Y130987D01*
X168833Y130543D01*
Y129973D01*
G01Y130543D02*
X168583Y130923D01*
X168167Y131240D01*
X167667Y131367D01*
X167167Y131240D01*
X166750Y130923D01*
X166500Y130353D01*
X166583Y129783D01*
X166917Y129213D01*
G01X146700Y129000D02*
X149700Y128000D01*
X146700Y128500D01*
G01Y130000D02*
X149700Y128000D01*
X146700Y129500D01*
G01Y126500D02*
X149700Y128000D01*
X146700Y127000D01*
G01Y126000D02*
X149700Y128000D01*
X146700Y125500D01*
Y130500D01*
X149700Y128000D01*
X146700Y127500D01*
G01X149700Y125500D02*
Y130500D01*
G01X145700Y128000D02*
X150700D01*
G01X166900Y148340D02*
Y147660D01*
G01X152917Y145893D02*
X152667Y145513D01*
X152500Y145070D01*
Y144563D01*
X152750Y143993D01*
X153167Y143550D01*
X153667Y143233D01*
X154500Y142980D01*
X155250Y142917D01*
X156000Y143043D01*
X156500Y143233D01*
X157000Y143613D01*
X157333Y144057D01*
X157500Y144500D01*
Y144943D01*
X157333Y145387D01*
X157083Y145767D01*
X156750Y146083D01*
G01X153333Y148397D02*
X152833Y148777D01*
X152583Y149220D01*
X152500Y149727D01*
X152667Y150360D01*
X153083Y150803D01*
X153583Y150930D01*
X154083Y150867D01*
X154500Y150613D01*
X155333Y149347D01*
X155917Y148777D01*
X156750Y148397D01*
X157500Y148270D01*
Y150930D01*
G01X159400Y148340D02*
Y147660D01*
G01X163600D02*
Y148340D01*
G01X151590Y203450D02*
X150350D01*
Y172550D01*
X151590D01*
G01X147600Y176160D02*
Y176840D01*
G01X153000Y293500D02*
X152493Y293583D01*
X152050Y293917D01*
X151670Y294417D01*
X151417Y295000D01*
X151290Y295667D01*
Y296333D01*
X151417Y297000D01*
X151670Y297583D01*
X152050Y298083D01*
X152493Y298417D01*
X153000Y298500D01*
X153507Y298417D01*
X153950Y298083D01*
X154330Y297583D01*
X154583Y297000D01*
X154710Y296333D01*
Y295667D01*
X154583Y295000D01*
X154330Y294417D01*
X153950Y293917D01*
X153507Y293583D01*
X153000Y293500D01*
G01X153507Y294833D02*
X154267Y293500D01*
G01X157023Y294083D02*
X157467Y293667D01*
X157973Y293500D01*
X158480Y293667D01*
X158923Y294167D01*
X159240Y294917D01*
X159367Y295667D01*
Y296583D01*
X159240Y297333D01*
X158923Y298000D01*
X158543Y298333D01*
X158100Y298500D01*
X157593Y298333D01*
X157213Y298000D01*
X156960Y297500D01*
X156833Y296833D01*
X156960Y296250D01*
X157277Y295667D01*
X157657Y295333D01*
X158100Y295250D01*
X158607Y295417D01*
X158987Y295833D01*
X159367Y296583D01*
G01X164400Y312000D02*
X163893Y312083D01*
X163450Y312417D01*
X163070Y312917D01*
X162817Y313500D01*
X162690Y314167D01*
Y314833D01*
X162817Y315500D01*
X163070Y316083D01*
X163450Y316583D01*
X163893Y316917D01*
X164400Y317000D01*
X164907Y316917D01*
X165350Y316583D01*
X165730Y316083D01*
X165983Y315500D01*
X166110Y314833D01*
Y314167D01*
X165983Y313500D01*
X165730Y312917D01*
X165350Y312417D01*
X164907Y312083D01*
X164400Y312000D01*
G01X164907Y313333D02*
X165667Y312000D01*
G01X169500D02*
Y317000D01*
X168740Y316000D01*
G01Y312000D02*
X170260D01*
G01X174600Y317000D02*
X174093Y316833D01*
X173713Y316417D01*
X173460Y315917D01*
X173270Y315250D01*
X173207Y314500D01*
X173270Y313750D01*
X173460Y313083D01*
X173713Y312583D01*
X174093Y312167D01*
X174600Y312000D01*
X175107Y312167D01*
X175487Y312583D01*
X175740Y313083D01*
X175930Y313750D01*
X175993Y314500D01*
X175930Y315250D01*
X175740Y315917D01*
X175487Y316417D01*
X175107Y316833D01*
X174600Y317000D01*
G01X152000Y303250D02*
Y309750D01*
X147910D01*
G01X153500Y321133D02*
X148500D01*
Y322717D01*
X148750Y323223D01*
X149083Y323540D01*
X149750Y323667D01*
X150417Y323540D01*
X150833Y323160D01*
X151083Y322717D01*
Y321133D01*
G01Y322717D02*
X153500Y323667D01*
G01X149333Y326297D02*
X148833Y326677D01*
X148583Y327120D01*
X148500Y327627D01*
X148667Y328260D01*
X149083Y328703D01*
X149583Y328830D01*
X150083Y328767D01*
X150500Y328513D01*
X151333Y327247D01*
X151917Y326677D01*
X152750Y326297D01*
X153500Y326170D01*
Y328830D01*
G01Y333360D02*
X148500D01*
X152083Y331017D01*
Y334183D01*
G01X158600Y325160D02*
Y325840D01*
G01X154400D02*
Y325160D01*
G01X164707Y341833D02*
X167493Y345500D01*
G01X166100Y346167D02*
Y341167D01*
G01X167493Y341833D02*
X164707Y345500D01*
G01X164200Y343667D02*
X168000D01*
G01X147600Y326160D02*
Y326840D01*
G01X160500Y432500D02*
X159993Y432583D01*
X159550Y432917D01*
X159170Y433417D01*
X158917Y434000D01*
X158790Y434667D01*
Y435333D01*
X158917Y436000D01*
X159170Y436583D01*
X159550Y437083D01*
X159993Y437417D01*
X160500Y437500D01*
X161007Y437417D01*
X161450Y437083D01*
X161830Y436583D01*
X162083Y436000D01*
X162210Y435333D01*
Y434667D01*
X162083Y434000D01*
X161830Y433417D01*
X161450Y432917D01*
X161007Y432583D01*
X160500Y432500D01*
G01X161007Y433833D02*
X161767Y432500D01*
G01X164397Y436667D02*
X164777Y437167D01*
X165220Y437417D01*
X165727Y437500D01*
X166360Y437333D01*
X166803Y436917D01*
X166930Y436417D01*
X166867Y435917D01*
X166613Y435500D01*
X165347Y434667D01*
X164777Y434083D01*
X164397Y433250D01*
X164270Y432500D01*
X166930D01*
G01X146733Y444000D02*
Y449000D01*
X148317D01*
X148823Y448750D01*
X149140Y448417D01*
X149267Y447750D01*
X149140Y447083D01*
X148760Y446667D01*
X148317Y446417D01*
X146733D01*
G01X148317D02*
X149267Y444000D01*
G01X152023Y444583D02*
X152467Y444167D01*
X152973Y444000D01*
X153480Y444167D01*
X153923Y444667D01*
X154240Y445417D01*
X154367Y446167D01*
Y447083D01*
X154240Y447833D01*
X153923Y448500D01*
X153543Y448833D01*
X153100Y449000D01*
X152593Y448833D01*
X152213Y448500D01*
X151960Y448000D01*
X151833Y447333D01*
X151960Y446750D01*
X152277Y446167D01*
X152657Y445833D01*
X153100Y445750D01*
X153607Y445917D01*
X153987Y446333D01*
X154367Y447083D01*
G01X151160Y438400D02*
X151840D01*
G01Y442600D02*
X151160D01*
G01X185703Y58167D02*
X187223D01*
G01X186400Y59250D02*
Y57083D01*
G01X190360Y59833D02*
X191500Y56500D01*
X192640Y59833D01*
G01X195650Y58750D02*
X197677D01*
X197487Y59333D01*
X197170Y59667D01*
X196727Y59833D01*
X196283Y59750D01*
X195903Y59500D01*
X195650Y58917D01*
X195523Y58417D01*
Y57917D01*
X195650Y57417D01*
X195967Y56917D01*
X196347Y56583D01*
X196790Y56500D01*
X197233Y56667D01*
X197677Y57167D01*
G01X173107Y86500D02*
Y82917D01*
X173360Y82167D01*
X173867Y81667D01*
X174500Y81500D01*
X175133Y81667D01*
X175640Y82167D01*
X175893Y82917D01*
Y86500D01*
G01X178207Y82500D02*
X178587Y81917D01*
X179093Y81583D01*
X179663Y81500D01*
X180170Y81583D01*
X180677Y82000D01*
X180993Y82500D01*
X181057Y83000D01*
X180930Y83583D01*
X180487Y84000D01*
X180043Y84167D01*
X179473D01*
G01X180043D02*
X180423Y84417D01*
X180740Y84833D01*
X180867Y85333D01*
X180740Y85833D01*
X180423Y86250D01*
X179853Y86500D01*
X179283Y86417D01*
X178713Y86083D01*
G01X173233Y67500D02*
Y72500D01*
X174817D01*
X175323Y72250D01*
X175640Y71917D01*
X175767Y71250D01*
X175640Y70583D01*
X175260Y70167D01*
X174817Y69917D01*
X173233D01*
G01X174817D02*
X175767Y67500D01*
G01X180360D02*
Y72500D01*
X178017Y68917D01*
X181183D01*
G01X176840Y77600D02*
X176160D01*
G01Y73400D02*
X176840D01*
G01X186450Y91930D02*
Y99070D01*
G01X194893Y132583D02*
X194513Y132833D01*
X194070Y133000D01*
X193563D01*
X192993Y132750D01*
X192550Y132333D01*
X192233Y131833D01*
X191980Y131000D01*
X191917Y130250D01*
X192043Y129500D01*
X192233Y129000D01*
X192613Y128500D01*
X193057Y128167D01*
X193500Y128000D01*
X193943D01*
X194387Y128167D01*
X194767Y128417D01*
X195083Y128750D01*
G01X197397Y130083D02*
X197840Y130667D01*
X198220Y131000D01*
X198727Y131167D01*
X199170Y131000D01*
X199487Y130667D01*
X199740Y130167D01*
X199803Y129583D01*
X199740Y129083D01*
X199487Y128583D01*
X199107Y128167D01*
X198663Y128000D01*
X198157Y128167D01*
X197713Y128667D01*
X197460Y129417D01*
X197397Y130250D01*
X197523Y131333D01*
X197713Y131917D01*
X198030Y132500D01*
X198473Y132917D01*
X198917Y133000D01*
X199360Y132833D01*
X199677Y132417D01*
G01X171100Y147660D02*
Y148340D01*
G01X185393Y153583D02*
X185013Y153833D01*
X184570Y154000D01*
X184063D01*
X183493Y153750D01*
X183050Y153333D01*
X182733Y152833D01*
X182480Y152000D01*
X182417Y151250D01*
X182543Y150500D01*
X182733Y150000D01*
X183113Y149500D01*
X183557Y149167D01*
X184000Y149000D01*
X184443D01*
X184887Y149167D01*
X185267Y149417D01*
X185583Y149750D01*
G01X189860Y149000D02*
Y154000D01*
X187517Y150417D01*
X190683D01*
G01X186160Y155900D02*
X186840D01*
G01X184500Y138733D02*
X179500D01*
Y140317D01*
X179750Y140823D01*
X180083Y141140D01*
X180750Y141267D01*
X181417Y141140D01*
X181833Y140760D01*
X182083Y140317D01*
Y138733D01*
G01Y140317D02*
X184500Y141267D01*
G01Y145100D02*
X179500D01*
X180500Y144340D01*
G01X184500D02*
Y145860D01*
G01X174400Y148340D02*
Y147660D01*
G01X178600D02*
Y148340D01*
G01X186840Y160100D02*
X186160D01*
G01X180500Y297633D02*
X175500D01*
Y299217D01*
X175750Y299723D01*
X176083Y300040D01*
X176750Y300167D01*
X177417Y300040D01*
X177833Y299660D01*
X178083Y299217D01*
Y297633D01*
G01Y299217D02*
X180500Y300167D01*
G01X176333Y302797D02*
X175833Y303177D01*
X175583Y303620D01*
X175500Y304127D01*
X175667Y304760D01*
X176083Y305203D01*
X176583Y305330D01*
X177083Y305267D01*
X177500Y305013D01*
X178333Y303747D01*
X178917Y303177D01*
X179750Y302797D01*
X180500Y302670D01*
Y305330D01*
G01X179917Y308023D02*
X180333Y308467D01*
X180500Y308973D01*
X180333Y309480D01*
X179833Y309923D01*
X179083Y310240D01*
X178333Y310367D01*
X177417D01*
X176667Y310240D01*
X176000Y309923D01*
X175667Y309543D01*
X175500Y309100D01*
X175667Y308593D01*
X176000Y308213D01*
X176500Y307960D01*
X177167Y307833D01*
X177750Y307960D01*
X178333Y308277D01*
X178667Y308657D01*
X178750Y309100D01*
X178583Y309607D01*
X178167Y309987D01*
X177417Y310367D01*
G01X170750Y323090D02*
Y319000D01*
X177250D01*
G01Y324160D02*
Y326840D01*
G01X179700Y314500D02*
G03I-500J0D01*
G01X191000Y324633D02*
X186000D01*
Y326217D01*
X186250Y326723D01*
X186583Y327040D01*
X187250Y327167D01*
X187917Y327040D01*
X188333Y326660D01*
X188583Y326217D01*
Y324633D01*
G01Y326217D02*
X191000Y327167D01*
G01X186833Y329797D02*
X186333Y330177D01*
X186083Y330620D01*
X186000Y331127D01*
X186167Y331760D01*
X186583Y332203D01*
X187083Y332330D01*
X187583Y332267D01*
X188000Y332013D01*
X188833Y330747D01*
X189417Y330177D01*
X190250Y329797D01*
X191000Y329670D01*
Y332330D01*
G01Y335973D02*
X189917Y336100D01*
X189000Y336290D01*
X188167Y336543D01*
X187250Y336860D01*
X186000Y337367D01*
Y334833D01*
G01X191900Y325840D02*
Y325160D01*
G01X181900Y303340D02*
Y302660D01*
G01X186100D02*
Y303340D01*
G01X189133Y304500D02*
Y309500D01*
X190717D01*
X191223Y309250D01*
X191540Y308917D01*
X191667Y308250D01*
X191540Y307583D01*
X191160Y307167D01*
X190717Y306917D01*
X189133D01*
G01X190717D02*
X191667Y304500D01*
G01X194107Y305500D02*
X194487Y304917D01*
X194993Y304583D01*
X195563Y304500D01*
X196070Y304583D01*
X196577Y305000D01*
X196893Y305500D01*
X196957Y306000D01*
X196830Y306583D01*
X196387Y307000D01*
X195943Y307167D01*
X195373D01*
G01X195943D02*
X196323Y307417D01*
X196640Y307833D01*
X196767Y308333D01*
X196640Y308833D01*
X196323Y309250D01*
X195753Y309500D01*
X195183Y309417D01*
X194613Y309083D01*
G01X200600Y304500D02*
Y309500D01*
X199840Y308500D01*
G01Y304500D02*
X201360D01*
G01X186840Y315100D02*
X186160D01*
G01Y310900D02*
X186840D01*
G01X178007Y342500D02*
Y347500D01*
X179273D01*
X179780Y347250D01*
X180160Y346917D01*
X180477Y346417D01*
X180730Y345833D01*
X180793Y345000D01*
X180730Y344167D01*
X180477Y343583D01*
X180160Y343083D01*
X179780Y342750D01*
X179273Y342500D01*
X178007D01*
G01X183170Y343167D02*
X183677Y342750D01*
X184247Y342500D01*
X184753D01*
X185260Y342750D01*
X185640Y343167D01*
X185830Y343750D01*
X185703Y344333D01*
X185387Y344833D01*
X184817Y345167D01*
X184057Y345333D01*
X183613Y345667D01*
X183423Y346250D01*
X183550Y346833D01*
X183867Y347250D01*
X184310Y347500D01*
X184753D01*
X185197Y347333D01*
X185577Y346917D01*
G01X188397Y346667D02*
X188777Y347167D01*
X189220Y347417D01*
X189727Y347500D01*
X190360Y347333D01*
X190803Y346917D01*
X190930Y346417D01*
X190867Y345917D01*
X190613Y345500D01*
X189347Y344667D01*
X188777Y344083D01*
X188397Y343250D01*
X188270Y342500D01*
X190930D01*
G01X177250Y332000D02*
X170750D01*
Y327910D01*
G01X183910Y429750D02*
X188000D01*
Y436250D01*
G01X175000D02*
Y429750D01*
X179090D01*
G01X182840Y436250D02*
X180160D01*
G01X188000Y443200D02*
G03I-500J0D01*
G01X191633Y445000D02*
Y450000D01*
X193217D01*
X193723Y449750D01*
X194040Y449417D01*
X194167Y448750D01*
X194040Y448083D01*
X193660Y447667D01*
X193217Y447417D01*
X191633D01*
G01X193217D02*
X194167Y445000D01*
G01X198000D02*
Y450000D01*
X197240Y449000D01*
G01Y445000D02*
X198760D01*
G01X203100Y450000D02*
X202593Y449833D01*
X202213Y449417D01*
X201960Y448917D01*
X201770Y448250D01*
X201707Y447500D01*
X201770Y446750D01*
X201960Y446083D01*
X202213Y445583D01*
X202593Y445167D01*
X203100Y445000D01*
X203607Y445167D01*
X203987Y445583D01*
X204240Y446083D01*
X204430Y446750D01*
X204493Y447500D01*
X204430Y448250D01*
X204240Y448917D01*
X203987Y449417D01*
X203607Y449833D01*
X203100Y450000D01*
G01X211733Y13000D02*
X212050Y12500D01*
X212430Y12167D01*
X212873Y12000D01*
X213380Y12167D01*
X213760Y12500D01*
X214140Y13000D01*
X214267Y13667D01*
Y17000D01*
G01X217973Y12000D02*
X218100Y13083D01*
X218290Y14000D01*
X218543Y14833D01*
X218860Y15750D01*
X219367Y17000D01*
X216833D01*
G01X199440Y52500D02*
X200960D01*
G01X200200D02*
Y47500D01*
G01X199440D02*
X200960D01*
G01X204223D02*
Y50833D01*
G01Y50000D02*
X204477Y50417D01*
X204857Y50750D01*
X205363Y50833D01*
X205807Y50750D01*
X206187Y50417D01*
X206377Y49833D01*
Y47500D01*
G01X209260Y45833D02*
Y50833D01*
G01Y50083D02*
X209577Y50500D01*
X209893Y50750D01*
X210400Y50833D01*
X210843Y50750D01*
X211287Y50333D01*
X211477Y49750D01*
X211540Y49167D01*
X211477Y48583D01*
X211287Y48000D01*
X210907Y47667D01*
X210400Y47500D01*
X209957Y47583D01*
X209513Y47833D01*
X209260Y48167D01*
G01X214423Y50833D02*
Y48500D01*
X214677Y47917D01*
X215057Y47583D01*
X215500Y47500D01*
X215943Y47583D01*
X216323Y47917D01*
X216577Y48500D01*
G01Y47500D02*
Y50833D01*
G01X220600Y52500D02*
Y47500D01*
G01X219713Y50833D02*
X221487D01*
G01X215107Y86500D02*
Y82917D01*
X215360Y82167D01*
X215867Y81667D01*
X216500Y81500D01*
X217133Y81667D01*
X217640Y82167D01*
X217893Y82917D01*
Y86500D01*
G01X222360Y81500D02*
Y86500D01*
X220017Y82917D01*
X223183D01*
G01X215233Y66500D02*
Y71500D01*
X216817D01*
X217323Y71250D01*
X217640Y70917D01*
X217767Y70250D01*
X217640Y69583D01*
X217260Y69167D01*
X216817Y68917D01*
X215233D01*
G01X216817D02*
X217767Y66500D01*
G01X220397Y68583D02*
X220840Y69167D01*
X221220Y69500D01*
X221727Y69667D01*
X222170Y69500D01*
X222487Y69167D01*
X222740Y68667D01*
X222803Y68083D01*
X222740Y67583D01*
X222487Y67083D01*
X222107Y66667D01*
X221663Y66500D01*
X221157Y66667D01*
X220713Y67167D01*
X220460Y67917D01*
X220397Y68750D01*
X220523Y69833D01*
X220713Y70417D01*
X221030Y71000D01*
X221473Y71417D01*
X221917Y71500D01*
X222360Y71333D01*
X222677Y70917D01*
G01X202207Y104833D02*
X204993Y108500D01*
G01X203600Y109167D02*
Y104167D01*
G01X204993Y104833D02*
X202207Y108500D01*
G01X201700Y106667D02*
X205500D01*
G01X228950Y101930D02*
Y103300D01*
X209050D01*
Y101930D01*
G01Y89070D02*
Y87700D01*
X228950D01*
Y89070D01*
G01X209050Y99070D02*
Y91930D01*
G01X202000Y115733D02*
X197000D01*
Y117317D01*
X197250Y117823D01*
X197583Y118140D01*
X198250Y118267D01*
X198917Y118140D01*
X199333Y117760D01*
X199583Y117317D01*
Y115733D01*
G01Y117317D02*
X202000Y118267D01*
G01X201250Y120707D02*
X201667Y121087D01*
X201917Y121530D01*
X202000Y122100D01*
X201833Y122670D01*
X201500Y123113D01*
X200917Y123430D01*
X200250Y123493D01*
X199583Y123367D01*
X199167Y123050D01*
X198833Y122607D01*
X198750Y122163D01*
X198833Y121720D01*
X199167Y121150D01*
X197000Y121340D01*
Y123050D01*
G01X201900Y133340D02*
Y132660D01*
G01X206100D02*
Y133340D01*
G01X211417Y147393D02*
X211167Y147013D01*
X211000Y146570D01*
Y146063D01*
X211250Y145493D01*
X211667Y145050D01*
X212167Y144733D01*
X213000Y144480D01*
X213750Y144417D01*
X214500Y144543D01*
X215000Y144733D01*
X215500Y145113D01*
X215833Y145557D01*
X216000Y146000D01*
Y146443D01*
X215833Y146887D01*
X215583Y147267D01*
X215250Y147583D01*
G01Y149707D02*
X215667Y150087D01*
X215917Y150530D01*
X216000Y151100D01*
X215833Y151670D01*
X215500Y152113D01*
X214917Y152430D01*
X214250Y152493D01*
X213583Y152367D01*
X213167Y152050D01*
X212833Y151607D01*
X212750Y151163D01*
X212833Y150720D01*
X213167Y150150D01*
X211000Y150340D01*
Y152050D01*
G01X206100Y155160D02*
Y155840D01*
G01X201900D02*
Y155160D01*
G01X196160Y140900D02*
X196840D01*
G01Y145100D02*
X196160D01*
G01X217500Y296133D02*
X212500D01*
Y297717D01*
X212750Y298223D01*
X213083Y298540D01*
X213750Y298667D01*
X214417Y298540D01*
X214833Y298160D01*
X215083Y297717D01*
Y296133D01*
G01Y297717D02*
X217500Y298667D01*
G01X216500Y301107D02*
X217083Y301487D01*
X217417Y301993D01*
X217500Y302563D01*
X217417Y303070D01*
X217000Y303577D01*
X216500Y303893D01*
X216000Y303957D01*
X215417Y303830D01*
X215000Y303387D01*
X214833Y302943D01*
Y302373D01*
G01Y302943D02*
X214583Y303323D01*
X214167Y303640D01*
X213667Y303767D01*
X213167Y303640D01*
X212750Y303323D01*
X212500Y302753D01*
X212583Y302183D01*
X212917Y301613D01*
G01X213333Y306397D02*
X212833Y306777D01*
X212583Y307220D01*
X212500Y307727D01*
X212667Y308360D01*
X213083Y308803D01*
X213583Y308930D01*
X214083Y308867D01*
X214500Y308613D01*
X215333Y307347D01*
X215917Y306777D01*
X216750Y306397D01*
X217500Y306270D01*
Y308930D01*
G01X204400Y312000D02*
X203893Y312083D01*
X203450Y312417D01*
X203070Y312917D01*
X202817Y313500D01*
X202690Y314167D01*
Y314833D01*
X202817Y315500D01*
X203070Y316083D01*
X203450Y316583D01*
X203893Y316917D01*
X204400Y317000D01*
X204907Y316917D01*
X205350Y316583D01*
X205730Y316083D01*
X205983Y315500D01*
X206110Y314833D01*
Y314167D01*
X205983Y313500D01*
X205730Y312917D01*
X205350Y312417D01*
X204907Y312083D01*
X204400Y312000D01*
G01X204907Y313333D02*
X205667Y312000D01*
G01X209500D02*
Y317000D01*
X208740Y316000D01*
G01Y312000D02*
X210260D01*
G01X214600D02*
Y317000D01*
X213840Y316000D01*
G01Y312000D02*
X215360D01*
G01X208250Y323090D02*
Y319000D01*
X214750D01*
G01Y324160D02*
Y326840D01*
G01X217200Y314500D02*
G03I-500J0D01*
G01X196100Y325160D02*
Y325840D01*
G01X205207Y342833D02*
X207993Y346500D01*
G01X206600Y347167D02*
Y342167D01*
G01X207993Y342833D02*
X205207Y346500D01*
G01X204700Y344667D02*
X208500D01*
G01X210007Y342500D02*
Y347500D01*
X211273D01*
X211780Y347250D01*
X212160Y346917D01*
X212477Y346417D01*
X212730Y345833D01*
X212793Y345000D01*
X212730Y344167D01*
X212477Y343583D01*
X212160Y343083D01*
X211780Y342750D01*
X211273Y342500D01*
X210007D01*
G01X215170Y343167D02*
X215677Y342750D01*
X216247Y342500D01*
X216753D01*
X217260Y342750D01*
X217640Y343167D01*
X217830Y343750D01*
X217703Y344333D01*
X217387Y344833D01*
X216817Y345167D01*
X216057Y345333D01*
X215613Y345667D01*
X215423Y346250D01*
X215550Y346833D01*
X215867Y347250D01*
X216310Y347500D01*
X216753D01*
X217197Y347333D01*
X217577Y346917D01*
G01X220207Y343500D02*
X220587Y342917D01*
X221093Y342583D01*
X221663Y342500D01*
X222170Y342583D01*
X222677Y343000D01*
X222993Y343500D01*
X223057Y344000D01*
X222930Y344583D01*
X222487Y345000D01*
X222043Y345167D01*
X221473D01*
G01X222043D02*
X222423Y345417D01*
X222740Y345833D01*
X222867Y346333D01*
X222740Y346833D01*
X222423Y347250D01*
X221853Y347500D01*
X221283Y347417D01*
X220713Y347083D01*
G01X214750Y332000D02*
X208250D01*
Y327910D01*
G01X210000Y436250D02*
Y429750D01*
X214090D01*
G01X217840Y436250D02*
X215160D01*
G01X196160Y438400D02*
X196840D01*
G01Y442600D02*
X196160D01*
G01X222077Y57167D02*
X223723D01*
G01X226860Y58833D02*
X228000Y55500D01*
X229140Y58833D01*
G01X232150Y57750D02*
X234177D01*
X233987Y58333D01*
X233670Y58667D01*
X233227Y58833D01*
X232783Y58750D01*
X232403Y58500D01*
X232150Y57917D01*
X232023Y57417D01*
Y56917D01*
X232150Y56417D01*
X232467Y55917D01*
X232847Y55583D01*
X233290Y55500D01*
X233733Y55667D01*
X234177Y56167D01*
G01X219340Y77600D02*
X218660D01*
G01Y73400D02*
X219340D01*
G01X228950Y91930D02*
Y99070D01*
G01X231697Y176667D02*
X232077Y177167D01*
X232520Y177417D01*
X233027Y177500D01*
X233660Y177333D01*
X234103Y176917D01*
X234230Y176417D01*
X234167Y175917D01*
X233913Y175500D01*
X232647Y174667D01*
X232077Y174083D01*
X231697Y173250D01*
X231570Y172500D01*
X234230D01*
G01X238000Y177500D02*
X237493Y177333D01*
X237113Y176917D01*
X236860Y176417D01*
X236670Y175750D01*
X236607Y175000D01*
X236670Y174250D01*
X236860Y173583D01*
X237113Y173083D01*
X237493Y172667D01*
X238000Y172500D01*
X238507Y172667D01*
X238887Y173083D01*
X239140Y173583D01*
X239330Y174250D01*
X239393Y175000D01*
X239330Y175750D01*
X239140Y176417D01*
X238887Y176917D01*
X238507Y177333D01*
X238000Y177500D01*
G01X241517D02*
X243100Y172500D01*
X244683Y177500D01*
G01X225833Y179097D02*
X225333Y179477D01*
X225083Y179920D01*
X225000Y180427D01*
X225167Y181060D01*
X225583Y181503D01*
X226083Y181630D01*
X226583Y181567D01*
X227000Y181313D01*
X227833Y180047D01*
X228417Y179477D01*
X229250Y179097D01*
X230000Y178970D01*
Y181630D01*
G01X225000Y185400D02*
X225167Y184893D01*
X225583Y184513D01*
X226083Y184260D01*
X226750Y184070D01*
X227500Y184007D01*
X228250Y184070D01*
X228917Y184260D01*
X229417Y184513D01*
X229833Y184893D01*
X230000Y185400D01*
X229833Y185907D01*
X229417Y186287D01*
X228917Y186540D01*
X228250Y186730D01*
X227500Y186793D01*
X226750Y186730D01*
X226083Y186540D01*
X225583Y186287D01*
X225167Y185907D01*
X225000Y185400D01*
G01Y190500D02*
X225167Y189993D01*
X225583Y189613D01*
X226083Y189360D01*
X226750Y189170D01*
X227500Y189107D01*
X228250Y189170D01*
X228917Y189360D01*
X229417Y189613D01*
X229833Y189993D01*
X230000Y190500D01*
X229833Y191007D01*
X229417Y191387D01*
X228917Y191640D01*
X228250Y191830D01*
X227500Y191893D01*
X226750Y191830D01*
X226083Y191640D01*
X225583Y191387D01*
X225167Y191007D01*
X225000Y190500D01*
G01Y194017D02*
X230000Y195600D01*
X225000Y197183D01*
G01X221410Y172550D02*
X222650D01*
Y203450D01*
X221410D01*
G01X231900Y203000D02*
X231393Y202833D01*
X231013Y202417D01*
X230760Y201917D01*
X230570Y201250D01*
X230507Y200500D01*
X230570Y199750D01*
X230760Y199083D01*
X231013Y198583D01*
X231393Y198167D01*
X231900Y198000D01*
X232407Y198167D01*
X232787Y198583D01*
X233040Y199083D01*
X233230Y199750D01*
X233293Y200500D01*
X233230Y201250D01*
X233040Y201917D01*
X232787Y202417D01*
X232407Y202833D01*
X231900Y203000D01*
G01X235417D02*
X237000Y198000D01*
X238583Y203000D01*
G01X240897Y202167D02*
X241277Y202667D01*
X241720Y202917D01*
X242227Y203000D01*
X242860Y202833D01*
X243303Y202417D01*
X243430Y201917D01*
X243367Y201417D01*
X243113Y201000D01*
X241847Y200167D01*
X241277Y199583D01*
X240897Y198750D01*
X240770Y198000D01*
X243430D01*
G01X236903Y188167D02*
X238423D01*
G01X237600Y189250D02*
Y187083D01*
G01X230233Y207500D02*
X230550Y207000D01*
X230930Y206667D01*
X231373Y206500D01*
X231880Y206667D01*
X232260Y207000D01*
X232640Y207500D01*
X232767Y208167D01*
Y211500D01*
G01X237360Y206500D02*
Y211500D01*
X235017Y207917D01*
X238183D01*
G01X231233Y216000D02*
X231550Y215500D01*
X231930Y215167D01*
X232373Y215000D01*
X232880Y215167D01*
X233260Y215500D01*
X233640Y216000D01*
X233767Y216667D01*
Y220000D01*
G01X237600Y215000D02*
Y220000D01*
X236840Y219000D01*
G01Y215000D02*
X238360D01*
G01X230733Y225000D02*
X231050Y224500D01*
X231430Y224167D01*
X231873Y224000D01*
X232380Y224167D01*
X232760Y224500D01*
X233140Y225000D01*
X233267Y225667D01*
Y229000D01*
G01X235897Y228167D02*
X236277Y228667D01*
X236720Y228917D01*
X237227Y229000D01*
X237860Y228833D01*
X238303Y228417D01*
X238430Y227917D01*
X238367Y227417D01*
X238113Y227000D01*
X236847Y226167D01*
X236277Y225583D01*
X235897Y224750D01*
X235770Y224000D01*
X238430D01*
G01X240733Y215500D02*
X241050Y215000D01*
X241430Y214667D01*
X241873Y214500D01*
X242380Y214667D01*
X242760Y215000D01*
X243140Y215500D01*
X243267Y216167D01*
Y219500D01*
G01X245707Y215500D02*
X246087Y214917D01*
X246593Y214583D01*
X247163Y214500D01*
X247670Y214583D01*
X248177Y215000D01*
X248493Y215500D01*
X248557Y216000D01*
X248430Y216583D01*
X247987Y217000D01*
X247543Y217167D01*
X246973D01*
G01X247543D02*
X247923Y217417D01*
X248240Y217833D01*
X248367Y218333D01*
X248240Y218833D01*
X247923Y219250D01*
X247353Y219500D01*
X246783Y219417D01*
X246213Y219083D01*
G01X220733Y216000D02*
X221050Y215500D01*
X221430Y215167D01*
X221873Y215000D01*
X222380Y215167D01*
X222760Y215500D01*
X223140Y216000D01*
X223267Y216667D01*
Y220000D01*
G01X225707Y215750D02*
X226087Y215333D01*
X226530Y215083D01*
X227100Y215000D01*
X227670Y215167D01*
X228113Y215500D01*
X228430Y216083D01*
X228493Y216750D01*
X228367Y217417D01*
X228050Y217833D01*
X227607Y218167D01*
X227163Y218250D01*
X226720Y218167D01*
X226150Y217833D01*
X226340Y220000D01*
X228050D01*
G01X233417Y285393D02*
X233167Y285013D01*
X233000Y284570D01*
Y284063D01*
X233250Y283493D01*
X233667Y283050D01*
X234167Y282733D01*
X235000Y282480D01*
X235750Y282417D01*
X236500Y282543D01*
X237000Y282733D01*
X237500Y283113D01*
X237833Y283557D01*
X238000Y284000D01*
Y284443D01*
X237833Y284887D01*
X237583Y285267D01*
X237250Y285583D01*
G01X238000Y288973D02*
X236917Y289100D01*
X236000Y289290D01*
X235167Y289543D01*
X234250Y289860D01*
X233000Y290367D01*
Y287833D01*
G01X239400Y283340D02*
Y282660D01*
G01X225133Y304500D02*
Y309500D01*
X226717D01*
X227223Y309250D01*
X227540Y308917D01*
X227667Y308250D01*
X227540Y307583D01*
X227160Y307167D01*
X226717Y306917D01*
X225133D01*
G01X226717D02*
X227667Y304500D01*
G01X230107Y305500D02*
X230487Y304917D01*
X230993Y304583D01*
X231563Y304500D01*
X232070Y304583D01*
X232577Y305000D01*
X232893Y305500D01*
X232957Y306000D01*
X232830Y306583D01*
X232387Y307000D01*
X231943Y307167D01*
X231373D01*
G01X231943D02*
X232323Y307417D01*
X232640Y307833D01*
X232767Y308333D01*
X232640Y308833D01*
X232323Y309250D01*
X231753Y309500D01*
X231183Y309417D01*
X230613Y309083D01*
G01X235207Y305250D02*
X235587Y304833D01*
X236030Y304583D01*
X236600Y304500D01*
X237170Y304667D01*
X237613Y305000D01*
X237930Y305583D01*
X237993Y306250D01*
X237867Y306917D01*
X237550Y307333D01*
X237107Y307667D01*
X236663Y307750D01*
X236220Y307667D01*
X235650Y307333D01*
X235840Y309500D01*
X237550D01*
G01X224340Y315100D02*
X223660D01*
G01Y310900D02*
X224340D01*
G01X226000Y321133D02*
X221000D01*
Y322717D01*
X221250Y323223D01*
X221583Y323540D01*
X222250Y323667D01*
X222917Y323540D01*
X223333Y323160D01*
X223583Y322717D01*
Y321133D01*
G01Y322717D02*
X226000Y323667D01*
G01Y327500D02*
X221000D01*
X222000Y326740D01*
G01X226000D02*
Y328260D01*
G01X223917Y331397D02*
X223333Y331840D01*
X223000Y332220D01*
X222833Y332727D01*
X223000Y333170D01*
X223333Y333487D01*
X223833Y333740D01*
X224417Y333803D01*
X224917Y333740D01*
X225417Y333487D01*
X225833Y333107D01*
X226000Y332663D01*
X225833Y332157D01*
X225333Y331713D01*
X224583Y331460D01*
X223750Y331397D01*
X222667Y331523D01*
X222083Y331713D01*
X221500Y332030D01*
X221083Y332473D01*
X221000Y332917D01*
X221167Y333360D01*
X221583Y333677D01*
G01X231100Y325160D02*
Y325840D01*
G01X226900D02*
Y325160D01*
G01X219400Y303340D02*
Y302660D01*
G01X223600D02*
Y303340D01*
G01X241207Y343333D02*
X243993Y347000D01*
G01X242600Y347667D02*
Y342667D01*
G01X243993Y343333D02*
X241207Y347000D01*
G01X240700Y345167D02*
X244500D01*
G01X226500Y425000D02*
X225993Y425083D01*
X225550Y425417D01*
X225170Y425917D01*
X224917Y426500D01*
X224790Y427167D01*
Y427833D01*
X224917Y428500D01*
X225170Y429083D01*
X225550Y429583D01*
X225993Y429917D01*
X226500Y430000D01*
X227007Y429917D01*
X227450Y429583D01*
X227830Y429083D01*
X228083Y428500D01*
X228210Y427833D01*
Y427167D01*
X228083Y426500D01*
X227830Y425917D01*
X227450Y425417D01*
X227007Y425083D01*
X226500Y425000D01*
G01X227007Y426333D02*
X227767Y425000D01*
G01X230207Y426000D02*
X230587Y425417D01*
X231093Y425083D01*
X231663Y425000D01*
X232170Y425083D01*
X232677Y425500D01*
X232993Y426000D01*
X233057Y426500D01*
X232930Y427083D01*
X232487Y427500D01*
X232043Y427667D01*
X231473D01*
G01X232043D02*
X232423Y427917D01*
X232740Y428333D01*
X232867Y428833D01*
X232740Y429333D01*
X232423Y429750D01*
X231853Y430000D01*
X231283Y429917D01*
X230713Y429583D01*
G01X218910Y429750D02*
X223000D01*
Y436250D01*
G01Y443200D02*
G03I-500J0D01*
G01X226633Y443500D02*
Y448500D01*
X228217D01*
X228723Y448250D01*
X229040Y447917D01*
X229167Y447250D01*
X229040Y446583D01*
X228660Y446167D01*
X228217Y445917D01*
X226633D01*
G01X228217D02*
X229167Y443500D01*
G01X233000D02*
Y448500D01*
X232240Y447500D01*
G01Y443500D02*
X233760D01*
G01X238100D02*
Y448500D01*
X237340Y447500D01*
G01Y443500D02*
X238860D01*
G01X231160Y438400D02*
X231840D01*
G01Y442600D02*
X231160D01*
G01X257607Y86500D02*
Y82917D01*
X257860Y82167D01*
X258367Y81667D01*
X259000Y81500D01*
X259633Y81667D01*
X260140Y82167D01*
X260393Y82917D01*
Y86500D01*
G01X262707Y82250D02*
X263087Y81833D01*
X263530Y81583D01*
X264100Y81500D01*
X264670Y81667D01*
X265113Y82000D01*
X265430Y82583D01*
X265493Y83250D01*
X265367Y83917D01*
X265050Y84333D01*
X264607Y84667D01*
X264163Y84750D01*
X263720Y84667D01*
X263150Y84333D01*
X263340Y86500D01*
X265050D01*
G01X257733Y67000D02*
Y72000D01*
X259317D01*
X259823Y71750D01*
X260140Y71417D01*
X260267Y70750D01*
X260140Y70083D01*
X259760Y69667D01*
X259317Y69417D01*
X257733D01*
G01X259317D02*
X260267Y67000D01*
G01X263973D02*
X264100Y68083D01*
X264290Y69000D01*
X264543Y69833D01*
X264860Y70750D01*
X265367Y72000D01*
X262833D01*
G01X261840Y77600D02*
X261160D01*
G01Y73400D02*
X261840D01*
G01X244207Y103333D02*
X246993Y107000D01*
G01X245600Y107667D02*
Y102667D01*
G01X246993Y103333D02*
X244207Y107000D01*
G01X243700Y105167D02*
X247500D01*
G01X271450Y101930D02*
Y103300D01*
X251550D01*
Y101930D01*
G01Y89070D02*
Y87700D01*
X271450D01*
Y89070D01*
G01X251550Y99070D02*
Y91930D01*
G01X247000Y125633D02*
X242000D01*
Y127217D01*
X242250Y127723D01*
X242583Y128040D01*
X243250Y128167D01*
X243917Y128040D01*
X244333Y127660D01*
X244583Y127217D01*
Y125633D01*
G01Y127217D02*
X247000Y128167D01*
G01Y132760D02*
X242000D01*
X245583Y130417D01*
Y133583D01*
G01X247000Y137100D02*
X246917Y137543D01*
X246667Y138050D01*
X246250Y138367D01*
X245667Y138493D01*
X245083Y138367D01*
X244583Y137987D01*
X244333Y137417D01*
Y136783D01*
X244167Y136403D01*
X243750Y136087D01*
X243167Y135960D01*
X242583Y136150D01*
X242167Y136593D01*
X242000Y137100D01*
X242167Y137607D01*
X242583Y138050D01*
X243167Y138240D01*
X243750Y138113D01*
X244167Y137797D01*
X244333Y137417D01*
Y136783D01*
X244583Y136213D01*
X245083Y135833D01*
X245667Y135707D01*
X246250Y135833D01*
X246667Y136150D01*
X246917Y136657D01*
X247000Y137100D01*
G01X258600Y130160D02*
Y130840D01*
G01X254400D02*
Y130160D01*
G01X267500Y126133D02*
X262500D01*
Y127717D01*
X262750Y128223D01*
X263083Y128540D01*
X263750Y128667D01*
X264417Y128540D01*
X264833Y128160D01*
X265083Y127717D01*
Y126133D01*
G01Y127717D02*
X267500Y128667D01*
G01Y133260D02*
X262500D01*
X266083Y130917D01*
Y134083D01*
G01X266917Y136523D02*
X267333Y136967D01*
X267500Y137473D01*
X267333Y137980D01*
X266833Y138423D01*
X266083Y138740D01*
X265333Y138867D01*
X264417D01*
X263667Y138740D01*
X263000Y138423D01*
X262667Y138043D01*
X262500Y137600D01*
X262667Y137093D01*
X263000Y136713D01*
X263500Y136460D01*
X264167Y136333D01*
X264750Y136460D01*
X265333Y136777D01*
X265667Y137157D01*
X265750Y137600D01*
X265583Y138107D01*
X265167Y138487D01*
X264417Y138867D01*
G01X260107Y149000D02*
Y154000D01*
X261373D01*
X261880Y153750D01*
X262260Y153417D01*
X262577Y152917D01*
X262830Y152333D01*
X262893Y151500D01*
X262830Y150667D01*
X262577Y150083D01*
X262260Y149583D01*
X261880Y149250D01*
X261373Y149000D01*
X260107D01*
G01X265207Y149750D02*
X265587Y149333D01*
X266030Y149083D01*
X266600Y149000D01*
X267170Y149167D01*
X267613Y149500D01*
X267930Y150083D01*
X267993Y150750D01*
X267867Y151417D01*
X267550Y151833D01*
X267107Y152167D01*
X266663Y152250D01*
X266220Y152167D01*
X265650Y151833D01*
X265840Y154000D01*
X267550D01*
G01X265000Y146450D02*
X264000Y143450D01*
X264500Y146450D01*
G01X266000D02*
X264000Y143450D01*
X265500Y146450D01*
G01X262500D02*
X264000Y143450D01*
X263000Y146450D01*
G01X262000D02*
X264000Y143450D01*
X261500Y146450D01*
X266500D01*
X264000Y143450D01*
X263500Y146450D01*
G01X261500Y143450D02*
X266500D01*
G01X264000Y147450D02*
Y142450D01*
G01X245107Y149500D02*
Y154500D01*
X246373D01*
X246880Y154250D01*
X247260Y153917D01*
X247577Y153417D01*
X247830Y152833D01*
X247893Y152000D01*
X247830Y151167D01*
X247577Y150583D01*
X247260Y150083D01*
X246880Y149750D01*
X246373Y149500D01*
X245107D01*
G01X252360D02*
Y154500D01*
X250017Y150917D01*
X253183D01*
G01X254250Y146010D02*
Y144990D01*
G01X258750D02*
Y146010D01*
G01X250000Y146450D02*
X249000Y143450D01*
X249500Y146450D01*
G01X251000D02*
X249000Y143450D01*
X250500Y146450D01*
G01X247500D02*
X249000Y143450D01*
X248000Y146450D01*
G01X247000D02*
X249000Y143450D01*
X246500Y146450D01*
X251500D01*
X249000Y143450D01*
X248500Y146450D01*
G01X246500Y143450D02*
X251500D01*
G01X249000Y147450D02*
Y142450D01*
G01X248667Y191203D02*
X249167Y190823D01*
X249417Y190380D01*
X249500Y189873D01*
X249333Y189240D01*
X248917Y188797D01*
X248417Y188670D01*
X247917Y188733D01*
X247500Y188987D01*
X246667Y190253D01*
X246083Y190823D01*
X245250Y191203D01*
X244500Y191330D01*
Y188670D01*
G01X249500Y186483D02*
X244500Y184900D01*
X249500Y183317D01*
G01X257500Y185500D02*
X270500D01*
Y196000D01*
X257500D01*
Y185500D01*
G01X262793Y282167D02*
X260007Y278500D01*
G01X261400Y277833D02*
Y282833D01*
G01X260007Y282167D02*
X262793Y278500D01*
G01X263300Y280333D02*
X259500D01*
G01X248607Y280000D02*
Y276417D01*
X248860Y275667D01*
X249367Y275167D01*
X250000Y275000D01*
X250633Y275167D01*
X251140Y275667D01*
X251393Y276417D01*
Y280000D01*
G01X253897Y277083D02*
X254340Y277667D01*
X254720Y278000D01*
X255227Y278167D01*
X255670Y278000D01*
X255987Y277667D01*
X256240Y277167D01*
X256303Y276583D01*
X256240Y276083D01*
X255987Y275583D01*
X255607Y275167D01*
X255163Y275000D01*
X254657Y275167D01*
X254213Y275667D01*
X253960Y276417D01*
X253897Y277250D01*
X254023Y278333D01*
X254213Y278917D01*
X254530Y279500D01*
X254973Y279917D01*
X255417Y280000D01*
X255860Y279833D01*
X256177Y279417D01*
G01X250050Y284000D02*
X257950D01*
G01X250050Y291830D02*
Y289170D01*
G01X257950Y297000D02*
X250050D01*
G01X243600Y282660D02*
Y283340D01*
G01X252000Y298133D02*
X247000D01*
Y299717D01*
X247250Y300223D01*
X247583Y300540D01*
X248250Y300667D01*
X248917Y300540D01*
X249333Y300160D01*
X249583Y299717D01*
Y298133D01*
G01Y299717D02*
X252000Y300667D01*
G01Y304500D02*
X247000D01*
X248000Y303740D01*
G01X252000D02*
Y305260D01*
G01X251417Y308523D02*
X251833Y308967D01*
X252000Y309473D01*
X251833Y309980D01*
X251333Y310423D01*
X250583Y310740D01*
X249833Y310867D01*
X248917D01*
X248167Y310740D01*
X247500Y310423D01*
X247167Y310043D01*
X247000Y309600D01*
X247167Y309093D01*
X247500Y308713D01*
X248000Y308460D01*
X248667Y308333D01*
X249250Y308460D01*
X249833Y308777D01*
X250167Y309157D01*
X250250Y309600D01*
X250083Y310107D01*
X249667Y310487D01*
X248917Y310867D01*
G01X246500Y312500D02*
X245993Y312583D01*
X245550Y312917D01*
X245170Y313417D01*
X244917Y314000D01*
X244790Y314667D01*
Y315333D01*
X244917Y316000D01*
X245170Y316583D01*
X245550Y317083D01*
X245993Y317417D01*
X246500Y317500D01*
X247007Y317417D01*
X247450Y317083D01*
X247830Y316583D01*
X248083Y316000D01*
X248210Y315333D01*
Y314667D01*
X248083Y314000D01*
X247830Y313417D01*
X247450Y312917D01*
X247007Y312583D01*
X246500Y312500D01*
G01X247007Y313833D02*
X247767Y312500D01*
G01X251600D02*
X252043Y312583D01*
X252550Y312833D01*
X252867Y313250D01*
X252993Y313833D01*
X252867Y314417D01*
X252487Y314917D01*
X251917Y315167D01*
X251283D01*
X250903Y315333D01*
X250587Y315750D01*
X250460Y316333D01*
X250650Y316917D01*
X251093Y317333D01*
X251600Y317500D01*
X252107Y317333D01*
X252550Y316917D01*
X252740Y316333D01*
X252613Y315750D01*
X252297Y315333D01*
X251917Y315167D01*
X251283D01*
X250713Y314917D01*
X250333Y314417D01*
X250207Y313833D01*
X250333Y313250D01*
X250650Y312833D01*
X251157Y312583D01*
X251600Y312500D01*
G01X248250Y323090D02*
Y319000D01*
X254750D01*
G01Y324160D02*
Y326840D01*
G01X257200Y314500D02*
G03I-500J0D01*
G01X263133Y309000D02*
Y314000D01*
X264717D01*
X265223Y313750D01*
X265540Y313417D01*
X265667Y312750D01*
X265540Y312083D01*
X265160Y311667D01*
X264717Y311417D01*
X263133D01*
G01X264717D02*
X265667Y309000D01*
G01X268297Y313167D02*
X268677Y313667D01*
X269120Y313917D01*
X269627Y314000D01*
X270260Y313833D01*
X270703Y313417D01*
X270830Y312917D01*
X270767Y312417D01*
X270513Y312000D01*
X269247Y311167D01*
X268677Y310583D01*
X268297Y309750D01*
X268170Y309000D01*
X270830D01*
G01X273397Y313167D02*
X273777Y313667D01*
X274220Y313917D01*
X274727Y314000D01*
X275360Y313833D01*
X275803Y313417D01*
X275930Y312917D01*
X275867Y312417D01*
X275613Y312000D01*
X274347Y311167D01*
X273777Y310583D01*
X273397Y309750D01*
X273270Y309000D01*
X275930D01*
G01X256900Y308340D02*
Y307660D01*
G01X261100D02*
Y308340D01*
G01X247007Y343000D02*
Y348000D01*
X248273D01*
X248780Y347750D01*
X249160Y347417D01*
X249477Y346917D01*
X249730Y346333D01*
X249793Y345500D01*
X249730Y344667D01*
X249477Y344083D01*
X249160Y343583D01*
X248780Y343250D01*
X248273Y343000D01*
X247007D01*
G01X252170Y343667D02*
X252677Y343250D01*
X253247Y343000D01*
X253753D01*
X254260Y343250D01*
X254640Y343667D01*
X254830Y344250D01*
X254703Y344833D01*
X254387Y345333D01*
X253817Y345667D01*
X253057Y345833D01*
X252613Y346167D01*
X252423Y346750D01*
X252550Y347333D01*
X252867Y347750D01*
X253310Y348000D01*
X253753D01*
X254197Y347833D01*
X254577Y347417D01*
G01X259360Y343000D02*
Y348000D01*
X257017Y344417D01*
X260183D01*
G01X254750Y332000D02*
X248250D01*
Y327910D01*
G01X262000Y425000D02*
X261493Y425083D01*
X261050Y425417D01*
X260670Y425917D01*
X260417Y426500D01*
X260290Y427167D01*
Y427833D01*
X260417Y428500D01*
X260670Y429083D01*
X261050Y429583D01*
X261493Y429917D01*
X262000Y430000D01*
X262507Y429917D01*
X262950Y429583D01*
X263330Y429083D01*
X263583Y428500D01*
X263710Y427833D01*
Y427167D01*
X263583Y426500D01*
X263330Y425917D01*
X262950Y425417D01*
X262507Y425083D01*
X262000Y425000D01*
G01X262507Y426333D02*
X263267Y425000D01*
G01X267860D02*
Y430000D01*
X265517Y426417D01*
X268683D01*
G01X253910Y429750D02*
X258000D01*
Y436250D01*
G01X245000D02*
Y429750D01*
X249090D01*
G01X252840Y436250D02*
X250160D01*
G01X258000Y443200D02*
G03I-500J0D01*
G01X259133Y445000D02*
Y450000D01*
X260717D01*
X261223Y449750D01*
X261540Y449417D01*
X261667Y448750D01*
X261540Y448083D01*
X261160Y447667D01*
X260717Y447417D01*
X259133D01*
G01X260717D02*
X261667Y445000D01*
G01X265500D02*
Y450000D01*
X264740Y449000D01*
G01Y445000D02*
X266260D01*
G01X269397Y449167D02*
X269777Y449667D01*
X270220Y449917D01*
X270727Y450000D01*
X271360Y449833D01*
X271803Y449417D01*
X271930Y448917D01*
X271867Y448417D01*
X271613Y448000D01*
X270347Y447167D01*
X269777Y446583D01*
X269397Y445750D01*
X269270Y445000D01*
X271930D01*
G01X275153Y21000D02*
Y26000D01*
X276800Y21833D01*
X278447Y26000D01*
Y21000D01*
G01X281900Y26000D02*
Y21000D01*
G01X280443Y26000D02*
X283357D01*
G01X287380Y23500D02*
X288647D01*
Y22000D01*
X288267Y21500D01*
X287823Y21167D01*
X287190Y21000D01*
X286557Y21167D01*
X286113Y21500D01*
X285733Y22000D01*
X285480Y22583D01*
X285353Y23250D01*
Y23833D01*
X285480Y24333D01*
X285733Y24917D01*
X286113Y25417D01*
X286493Y25750D01*
X287000Y26000D01*
X287443D01*
X287950Y25833D01*
X288330Y25500D01*
G01X290707Y22000D02*
X291087Y21417D01*
X291593Y21083D01*
X292163Y21000D01*
X292670Y21083D01*
X293177Y21500D01*
X293493Y22000D01*
X293557Y22500D01*
X293430Y23083D01*
X292987Y23500D01*
X292543Y23667D01*
X291973D01*
G01X292543D02*
X292923Y23917D01*
X293240Y24333D01*
X293367Y24833D01*
X293240Y25333D01*
X292923Y25750D01*
X292353Y26000D01*
X291783Y25917D01*
X291213Y25583D01*
G01X286733Y80500D02*
Y85500D01*
X288317D01*
X288823Y85250D01*
X289140Y84917D01*
X289267Y84250D01*
X289140Y83583D01*
X288760Y83167D01*
X288317Y82917D01*
X286733D01*
G01X288317D02*
X289267Y80500D01*
G01X293100D02*
X293543Y80583D01*
X294050Y80833D01*
X294367Y81250D01*
X294493Y81833D01*
X294367Y82417D01*
X293987Y82917D01*
X293417Y83167D01*
X292783D01*
X292403Y83333D01*
X292087Y83750D01*
X291960Y84333D01*
X292150Y84917D01*
X292593Y85333D01*
X293100Y85500D01*
X293607Y85333D01*
X294050Y84917D01*
X294240Y84333D01*
X294113Y83750D01*
X293797Y83333D01*
X293417Y83167D01*
X292783D01*
X292213Y82917D01*
X291833Y82417D01*
X291707Y81833D01*
X291833Y81250D01*
X292150Y80833D01*
X292657Y80583D01*
X293100Y80500D01*
G01X271450Y91930D02*
Y99070D01*
G01X273600Y130160D02*
Y130840D01*
G01X269400D02*
Y130160D01*
G01X289500Y125633D02*
X284500D01*
Y127217D01*
X284750Y127723D01*
X285083Y128040D01*
X285750Y128167D01*
X286417Y128040D01*
X286833Y127660D01*
X287083Y127217D01*
Y125633D01*
G01Y127217D02*
X289500Y128167D01*
G01X288750Y130607D02*
X289167Y130987D01*
X289417Y131430D01*
X289500Y132000D01*
X289333Y132570D01*
X289000Y133013D01*
X288417Y133330D01*
X287750Y133393D01*
X287083Y133267D01*
X286667Y132950D01*
X286333Y132507D01*
X286250Y132063D01*
X286333Y131620D01*
X286667Y131050D01*
X284500Y131240D01*
Y132950D01*
G01Y137100D02*
X284667Y136593D01*
X285083Y136213D01*
X285583Y135960D01*
X286250Y135770D01*
X287000Y135707D01*
X287750Y135770D01*
X288417Y135960D01*
X288917Y136213D01*
X289333Y136593D01*
X289500Y137100D01*
X289333Y137607D01*
X288917Y137987D01*
X288417Y138240D01*
X287750Y138430D01*
X287000Y138493D01*
X286250Y138430D01*
X285583Y138240D01*
X285083Y137987D01*
X284667Y137607D01*
X284500Y137100D01*
G01X283600Y130160D02*
Y130840D01*
G01X279400D02*
Y130160D01*
G01X285107Y149500D02*
Y154500D01*
X286373D01*
X286880Y154250D01*
X287260Y153917D01*
X287577Y153417D01*
X287830Y152833D01*
X287893Y152000D01*
X287830Y151167D01*
X287577Y150583D01*
X287260Y150083D01*
X286880Y149750D01*
X286373Y149500D01*
X285107D01*
G01X290397Y151583D02*
X290840Y152167D01*
X291220Y152500D01*
X291727Y152667D01*
X292170Y152500D01*
X292487Y152167D01*
X292740Y151667D01*
X292803Y151083D01*
X292740Y150583D01*
X292487Y150083D01*
X292107Y149667D01*
X291663Y149500D01*
X291157Y149667D01*
X290713Y150167D01*
X290460Y150917D01*
X290397Y151750D01*
X290523Y152833D01*
X290713Y153417D01*
X291030Y154000D01*
X291473Y154417D01*
X291917Y154500D01*
X292360Y154333D01*
X292677Y153917D01*
G01X279250Y146010D02*
Y144990D01*
G01X283750D02*
Y146010D01*
G01X290000Y146450D02*
X289000Y143450D01*
X289500Y146450D01*
G01X291000D02*
X289000Y143450D01*
X290500Y146450D01*
G01X287500D02*
X289000Y143450D01*
X288000Y146450D01*
G01X287000D02*
X289000Y143450D01*
X286500Y146450D01*
X291500D01*
X289000Y143450D01*
X288500Y146450D01*
G01X286500Y143450D02*
X291500D01*
G01X289000Y147450D02*
Y142450D01*
G01X269250Y146010D02*
Y144990D01*
G01X273750D02*
Y146010D01*
G01X274000Y179500D02*
Y166500D01*
X284500D01*
Y179500D01*
X274000D01*
G01X272500Y185500D02*
X285500D01*
Y196000D01*
X272500D01*
Y185500D01*
G01X274000Y214500D02*
Y201500D01*
X284500D01*
Y214500D01*
X274000D01*
G01X287500Y185500D02*
X300500D01*
Y196000D01*
X287500D01*
Y185500D01*
G01X289500Y276133D02*
X284500D01*
Y277717D01*
X284750Y278223D01*
X285083Y278540D01*
X285750Y278667D01*
X286417Y278540D01*
X286833Y278160D01*
X287083Y277717D01*
Y276133D01*
G01Y277717D02*
X289500Y278667D01*
G01X285333Y281297D02*
X284833Y281677D01*
X284583Y282120D01*
X284500Y282627D01*
X284667Y283260D01*
X285083Y283703D01*
X285583Y283830D01*
X286083Y283767D01*
X286500Y283513D01*
X287333Y282247D01*
X287917Y281677D01*
X288750Y281297D01*
X289500Y281170D01*
Y283830D01*
G01X284500Y287600D02*
X284667Y287093D01*
X285083Y286713D01*
X285583Y286460D01*
X286250Y286270D01*
X287000Y286207D01*
X287750Y286270D01*
X288417Y286460D01*
X288917Y286713D01*
X289333Y287093D01*
X289500Y287600D01*
X289333Y288107D01*
X288917Y288487D01*
X288417Y288740D01*
X287750Y288930D01*
X287000Y288993D01*
X286250Y288930D01*
X285583Y288740D01*
X285083Y288487D01*
X284667Y288107D01*
X284500Y287600D01*
G01X289500Y292633D02*
X284500D01*
Y294217D01*
X284750Y294723D01*
X285083Y295040D01*
X285750Y295167D01*
X286417Y295040D01*
X286833Y294660D01*
X287083Y294217D01*
Y292633D01*
G01Y294217D02*
X289500Y295167D01*
G01X285333Y297797D02*
X284833Y298177D01*
X284583Y298620D01*
X284500Y299127D01*
X284667Y299760D01*
X285083Y300203D01*
X285583Y300330D01*
X286083Y300267D01*
X286500Y300013D01*
X287333Y298747D01*
X287917Y298177D01*
X288750Y297797D01*
X289500Y297670D01*
Y300330D01*
G01Y304100D02*
X284500D01*
X285500Y303340D01*
G01X289500D02*
Y304860D01*
G01X266900Y295840D02*
Y295160D01*
G01X271100D02*
Y295840D01*
G01Y282660D02*
Y283340D01*
G01X266900D02*
Y282660D01*
G01X269340Y320100D02*
X268660D01*
G01Y315900D02*
X269340D01*
G01X282000Y318133D02*
X277000D01*
Y319717D01*
X277250Y320223D01*
X277583Y320540D01*
X278250Y320667D01*
X278917Y320540D01*
X279333Y320160D01*
X279583Y319717D01*
Y318133D01*
G01Y319717D02*
X282000Y320667D01*
G01Y324500D02*
X277000D01*
X278000Y323740D01*
G01X282000D02*
Y325260D01*
G01Y330360D02*
X277000D01*
X280583Y328017D01*
Y331183D01*
G01X288600Y325160D02*
Y325840D01*
G01X284400D02*
Y325160D01*
G01X276707Y343333D02*
X279493Y347000D01*
G01X278100Y347667D02*
Y342667D01*
G01X279493Y343333D02*
X276707Y347000D01*
G01X276200Y345167D02*
X280000D01*
G01X288910Y429750D02*
X293000D01*
Y436250D01*
G01X280000D02*
Y429750D01*
X284090D01*
G01X287840Y436250D02*
X285160D01*
G01X266160Y438400D02*
X266840D01*
G01Y442600D02*
X266160D01*
G01X307900Y40340D02*
Y39660D01*
G01X312100D02*
Y40340D01*
G01X294340Y77600D02*
X293660D01*
G01Y73400D02*
X294340D01*
G01X307000Y125133D02*
X302000D01*
Y126717D01*
X302250Y127223D01*
X302583Y127540D01*
X303250Y127667D01*
X303917Y127540D01*
X304333Y127160D01*
X304583Y126717D01*
Y125133D01*
G01Y126717D02*
X307000Y127667D01*
G01X306250Y130107D02*
X306667Y130487D01*
X306917Y130930D01*
X307000Y131500D01*
X306833Y132070D01*
X306500Y132513D01*
X305917Y132830D01*
X305250Y132893D01*
X304583Y132767D01*
X304167Y132450D01*
X303833Y132007D01*
X303750Y131563D01*
X303833Y131120D01*
X304167Y130550D01*
X302000Y130740D01*
Y132450D01*
G01X307000Y136600D02*
X302000D01*
X303000Y135840D01*
G01X307000D02*
Y137360D01*
G01X301100Y130160D02*
Y130840D01*
G01X296900D02*
Y130160D01*
G01X302607Y148000D02*
Y153000D01*
X303873D01*
X304380Y152750D01*
X304760Y152417D01*
X305077Y151917D01*
X305330Y151333D01*
X305393Y150500D01*
X305330Y149667D01*
X305077Y149083D01*
X304760Y148583D01*
X304380Y148250D01*
X303873Y148000D01*
X302607D01*
G01X308973D02*
X309100Y149083D01*
X309290Y150000D01*
X309543Y150833D01*
X309860Y151750D01*
X310367Y153000D01*
X307833D01*
G01X296750Y146010D02*
Y144990D01*
G01X301250D02*
Y146010D01*
G01X307500Y146450D02*
X306500Y143450D01*
X307000Y146450D01*
G01X308500D02*
X306500Y143450D01*
X308000Y146450D01*
G01X305000D02*
X306500Y143450D01*
X305500Y146450D01*
G01X304500D02*
X306500Y143450D01*
X304000Y146450D01*
X309000D01*
X306500Y143450D01*
X306000Y146450D01*
G01X304000Y143450D02*
X309000D01*
G01X306500Y147450D02*
Y142450D01*
G01X312900Y220340D02*
Y219660D01*
G01X306653Y259000D02*
Y264000D01*
X308300Y259833D01*
X309947Y264000D01*
Y259000D01*
G01X313400Y264000D02*
Y259000D01*
G01X311943Y264000D02*
X314857D01*
G01X318880Y261500D02*
X320147D01*
Y260000D01*
X319767Y259500D01*
X319323Y259167D01*
X318690Y259000D01*
X318057Y259167D01*
X317613Y259500D01*
X317233Y260000D01*
X316980Y260583D01*
X316853Y261250D01*
Y261833D01*
X316980Y262333D01*
X317233Y262917D01*
X317613Y263417D01*
X317993Y263750D01*
X318500Y264000D01*
X318943D01*
X319450Y263833D01*
X319830Y263500D01*
G01X324360Y259000D02*
Y264000D01*
X322017Y260417D01*
X325183D01*
G01X291507Y336500D02*
Y341500D01*
X292773D01*
X293280Y341250D01*
X293660Y340917D01*
X293977Y340417D01*
X294230Y339833D01*
X294293Y339000D01*
X294230Y338167D01*
X293977Y337583D01*
X293660Y337083D01*
X293280Y336750D01*
X292773Y336500D01*
X291507D01*
G01X296670Y337167D02*
X297177Y336750D01*
X297747Y336500D01*
X298253D01*
X298760Y336750D01*
X299140Y337167D01*
X299330Y337750D01*
X299203Y338333D01*
X298887Y338833D01*
X298317Y339167D01*
X297557Y339333D01*
X297113Y339667D01*
X296923Y340250D01*
X297050Y340833D01*
X297367Y341250D01*
X297810Y341500D01*
X298253D01*
X298697Y341333D01*
X299077Y340917D01*
G01X301707Y337250D02*
X302087Y336833D01*
X302530Y336583D01*
X303100Y336500D01*
X303670Y336667D01*
X304113Y337000D01*
X304430Y337583D01*
X304493Y338250D01*
X304367Y338917D01*
X304050Y339333D01*
X303607Y339667D01*
X303163Y339750D01*
X302720Y339667D01*
X302150Y339333D01*
X302340Y341500D01*
X304050D01*
G01X301000Y424000D02*
X300493Y424083D01*
X300050Y424417D01*
X299670Y424917D01*
X299417Y425500D01*
X299290Y426167D01*
Y426833D01*
X299417Y427500D01*
X299670Y428083D01*
X300050Y428583D01*
X300493Y428917D01*
X301000Y429000D01*
X301507Y428917D01*
X301950Y428583D01*
X302330Y428083D01*
X302583Y427500D01*
X302710Y426833D01*
Y426167D01*
X302583Y425500D01*
X302330Y424917D01*
X301950Y424417D01*
X301507Y424083D01*
X301000Y424000D01*
G01X301507Y425333D02*
X302267Y424000D01*
G01X304707Y424750D02*
X305087Y424333D01*
X305530Y424083D01*
X306100Y424000D01*
X306670Y424167D01*
X307113Y424500D01*
X307430Y425083D01*
X307493Y425750D01*
X307367Y426417D01*
X307050Y426833D01*
X306607Y427167D01*
X306163Y427250D01*
X305720Y427167D01*
X305150Y426833D01*
X305340Y429000D01*
X307050D01*
G01X293000Y443200D02*
G03I-500J0D01*
G01X295133Y432500D02*
Y437500D01*
X296717D01*
X297223Y437250D01*
X297540Y436917D01*
X297667Y436250D01*
X297540Y435583D01*
X297160Y435167D01*
X296717Y434917D01*
X295133D01*
G01X296717D02*
X297667Y432500D01*
G01X301500D02*
Y437500D01*
X300740Y436500D01*
G01Y432500D02*
X302260D01*
G01X305207Y433500D02*
X305587Y432917D01*
X306093Y432583D01*
X306663Y432500D01*
X307170Y432583D01*
X307677Y433000D01*
X307993Y433500D01*
X308057Y434000D01*
X307930Y434583D01*
X307487Y435000D01*
X307043Y435167D01*
X306473D01*
G01X307043D02*
X307423Y435417D01*
X307740Y435833D01*
X307867Y436333D01*
X307740Y436833D01*
X307423Y437250D01*
X306853Y437500D01*
X306283Y437417D01*
X305713Y437083D01*
G01X301160Y438400D02*
X301840D01*
G01Y442600D02*
X301160D01*
G01X325000Y41133D02*
X320000D01*
Y42717D01*
X320250Y43223D01*
X320583Y43540D01*
X321250Y43667D01*
X321917Y43540D01*
X322333Y43160D01*
X322583Y42717D01*
Y41133D01*
G01Y42717D02*
X325000Y43667D01*
G01X324250Y46107D02*
X324667Y46487D01*
X324917Y46930D01*
X325000Y47500D01*
X324833Y48070D01*
X324500Y48513D01*
X323917Y48830D01*
X323250Y48893D01*
X322583Y48767D01*
X322167Y48450D01*
X321833Y48007D01*
X321750Y47563D01*
X321833Y47120D01*
X322167Y46550D01*
X320000Y46740D01*
Y48450D01*
G01X324250Y51207D02*
X324667Y51587D01*
X324917Y52030D01*
X325000Y52600D01*
X324833Y53170D01*
X324500Y53613D01*
X323917Y53930D01*
X323250Y53993D01*
X322583Y53867D01*
X322167Y53550D01*
X321833Y53107D01*
X321750Y52663D01*
X321833Y52220D01*
X322167Y51650D01*
X320000Y51840D01*
Y53550D01*
G01X325000Y203633D02*
X320000D01*
Y205217D01*
X320250Y205723D01*
X320583Y206040D01*
X321250Y206167D01*
X321917Y206040D01*
X322333Y205660D01*
X322583Y205217D01*
Y203633D01*
G01Y205217D02*
X325000Y206167D01*
G01X324250Y208607D02*
X324667Y208987D01*
X324917Y209430D01*
X325000Y210000D01*
X324833Y210570D01*
X324500Y211013D01*
X323917Y211330D01*
X323250Y211393D01*
X322583Y211267D01*
X322167Y210950D01*
X321833Y210507D01*
X321750Y210063D01*
X321833Y209620D01*
X322167Y209050D01*
X320000Y209240D01*
Y210950D01*
G01X322917Y213897D02*
X322333Y214340D01*
X322000Y214720D01*
X321833Y215227D01*
X322000Y215670D01*
X322333Y215987D01*
X322833Y216240D01*
X323417Y216303D01*
X323917Y216240D01*
X324417Y215987D01*
X324833Y215607D01*
X325000Y215163D01*
X324833Y214657D01*
X324333Y214213D01*
X323583Y213960D01*
X322750Y213897D01*
X321667Y214023D01*
X321083Y214213D01*
X320500Y214530D01*
X320083Y214973D01*
X320000Y215417D01*
X320167Y215860D01*
X320583Y216177D01*
G01X317100Y219660D02*
Y220340D01*
M02*
