G04 ================== begin FILE IDENTIFICATION RECORD ==================*
G04 Layout Name:  C:/Users/Lucy/Desktop/OrCAD Practice/pcb/DVM.brd*
G04 Film Name:    Soldermask_Bottom*
G04 File Format:  Gerber RS274X*
G04 File Origin:  Cadence Allegro 16.6-2015-S087*
G04 Origin Date:  Thu Apr 18 13:53:54 2019*
G04 *
G04 Layer:  VIA CLASS/SOLDERMASK_BOTTOM*
G04 Layer:  PIN/SOLDERMASK_BOTTOM*
G04 Layer:  PACKAGE GEOMETRY/SOLDERMASK_BOTTOM*
G04 Layer:  BOARD GEOMETRY/SOLDERMASK_BOTTOM*
G04 *
G04 Offset:    (0.00 0.00)*
G04 Mirror:    No*
G04 Mode:      Positive*
G04 Rotation:  0*
G04 FullContactRelief:  No*
G04 UndefLineWidth:     0.00*
G04 ================== end FILE IDENTIFICATION RECORD ====================*
%FSLAX55Y55*MOIN*%
%IR0*IPPOS*OFA0.00000B0.00000*MIA0B0*SFA1.00000B1.00000*%
%ADD15C,.06*%
%ADD14C,.051*%
%ADD11C,.044*%
%ADD12C,.057*%
%ADD13R,.051X.051*%
%ADD16C,.05748*%
%ADD17C,.24055*%
%ADD10C,.25591*%
%LPD*%
G75*
G54D10*
X17500Y17500D03*
Y440000D03*
X310000Y17500D03*
Y242500D03*
G54D11*
X5000Y5000D03*
X17500D03*
X5000Y37500D03*
Y17500D03*
X17500Y30000D03*
X20000Y60000D03*
Y52500D03*
X25000Y55000D03*
Y60000D03*
X13500Y126000D03*
X7500Y136500D03*
X13500Y145500D03*
X22500Y289500D03*
X20000Y412500D03*
X15000D03*
X5000Y422500D03*
X17500Y427500D03*
X5000Y440000D03*
Y452500D03*
X17500D03*
X30000Y5000D03*
X40000Y30000D03*
Y35000D03*
X30000Y37500D03*
Y17500D03*
X36000Y231000D03*
X41500Y313000D03*
X32500Y422500D03*
X30000Y440000D03*
X32500Y452500D03*
X61500Y7500D03*
X70500Y73500D03*
X73500Y199500D03*
X51500Y330000D03*
X61500D03*
X71500D03*
X72000Y399000D03*
X67500Y396000D03*
X85500Y56500D03*
X78000Y73500D03*
X93000Y156000D03*
Y165000D03*
X97500Y270000D03*
X115500Y69000D03*
X106500D03*
X114000Y105500D03*
X102000Y184500D03*
X115500Y204000D03*
X106500Y235500D03*
X121500Y316500D03*
X115500Y313500D03*
X109500Y445500D03*
X120500Y429000D03*
X103000D03*
X105500Y434000D03*
Y439000D03*
X129000Y25500D03*
X132000Y46500D03*
X139500Y121500D03*
X133500D03*
X139500Y169500D03*
X135000Y184500D03*
X124500D03*
X130500Y289500D03*
X135000Y381000D03*
X125500Y436500D03*
X163000Y81500D03*
X156500Y105500D03*
X168000Y270000D03*
X166500Y319500D03*
X160500Y447000D03*
X148000Y426500D03*
X163000D03*
X155500Y434000D03*
X170500Y436500D03*
X194000Y135500D03*
X192000Y301500D03*
X184000Y293000D03*
X195000Y316500D03*
X194000Y345500D03*
Y335500D03*
X181500Y368000D03*
X186500Y373000D03*
X191500Y390500D03*
X189000Y418000D03*
X181500Y447000D03*
X173000Y439000D03*
X205500Y81500D03*
X199000Y105500D03*
X211500Y133000D03*
X208000Y146500D03*
X219000Y178000D03*
X216500Y185500D03*
X219000Y225500D03*
X214000Y235500D03*
X208500Y279000D03*
X216500Y368000D03*
X210500Y381500D03*
X195500Y436500D03*
X205500D03*
X208000Y439000D03*
X241500Y105500D03*
X228000Y233500D03*
X241500Y274500D03*
X221500Y293000D03*
X241000D03*
X229000Y345500D03*
Y335500D03*
X221500Y373000D03*
X226500Y390500D03*
X224000Y418000D03*
X220500Y445500D03*
X230500Y436500D03*
X240500D03*
X243000Y439000D03*
X248000Y81500D03*
X250500Y127500D03*
X249000Y133500D03*
X256500Y155500D03*
X244000Y233000D03*
X246500Y238000D03*
X263311Y344311D03*
X251500Y368000D03*
X256500Y373000D03*
X261500Y390500D03*
X259000Y418000D03*
X291000Y129000D03*
X276000Y127500D03*
X271500Y155500D03*
X281500D03*
X274000Y228000D03*
X279000Y235500D03*
X290000Y240000D03*
X268500Y274500D03*
Y303000D03*
X279000Y280500D03*
Y288000D03*
X286500Y318000D03*
X291000Y327000D03*
X273000Y322500D03*
X290500Y346500D03*
X268000D03*
X286500Y368000D03*
X280500Y426500D03*
X273000Y434000D03*
X278000Y439000D03*
X310000Y5000D03*
X297500D03*
Y17500D03*
X310000Y30000D03*
X297500Y37500D03*
X312500Y47500D03*
X307500D03*
X309000Y127500D03*
X299000Y155500D03*
X312500Y212500D03*
X305000Y222500D03*
X310000Y230000D03*
X300000Y252500D03*
X297500Y242500D03*
X310000Y255000D03*
X292500Y318000D03*
Y322500D03*
X297000Y319500D03*
X300500Y344000D03*
X295500D03*
X291500Y373000D03*
X296500Y390500D03*
X294000Y418000D03*
X322500Y5000D03*
Y17500D03*
Y37500D03*
X317500Y212500D03*
X322500Y222500D03*
Y255000D03*
Y242500D03*
X323000Y274000D03*
G54D12*
X14857Y52664D03*
Y72349D03*
G54D13*
X21500Y273000D03*
G54D14*
Y303000D03*
X51500Y273000D03*
X41500D03*
X31500D03*
Y303000D03*
X41500D03*
X51500D03*
X71500Y273000D03*
X61500D03*
Y303000D03*
X71500D03*
X91500Y273000D03*
X81500D03*
Y303000D03*
X91500D03*
G54D15*
X40500Y236500D03*
Y246500D03*
X88000Y34000D03*
X78000D03*
X264000Y190500D03*
X279000Y173000D03*
Y190500D03*
Y208000D03*
X294000Y190500D03*
G54D16*
X116500Y350500D03*
Y410500D03*
X146500Y350500D03*
X136500D03*
X126500D03*
Y410500D03*
X136500D03*
X146500D03*
X156500Y350500D03*
Y410500D03*
G54D17*
X184000Y28000D03*
X236500D03*
M02*
