G04 ================== begin FILE IDENTIFICATION RECORD ==================*
G04 Layout Name:  C:/Users/Lucy/Desktop/OrCAD Practice/pcb/DVM.brd*
G04 Film Name:    TOP*
G04 File Format:  Gerber RS274X*
G04 File Origin:  Cadence Allegro 16.6-2015-S087*
G04 Origin Date:  Thu Apr 18 13:53:54 2019*
G04 *
G04 Layer:  ETCH/TOP*
G04 Layer:  PIN/TOP*
G04 Layer:  VIA CLASS/TOP*
G04 *
G04 Offset:    (0.00 0.00)*
G04 Mirror:    No*
G04 Mode:      Positive*
G04 Rotation:  0*
G04 FullContactRelief:  No*
G04 UndefLineWidth:     0.00*
G04 ================== end FILE IDENTIFICATION RECORD ====================*
%FSLAX55Y55*MOIN*%
%IR0*IPPOS*OFA0.00000B0.00000*MIA0B0*SFA1.00000B1.00000*%
%ADD24C,.06*%
%ADD19C,.051*%
%ADD14C,.024*%
%ADD15C,.057*%
%ADD18R,.051X.051*%
%ADD21C,.03937*%
%ADD38R,.04724X.1378*%
%ADD35C,.05748*%
%ADD32R,.14961X.07874*%
%ADD17R,.07992X.14961*%
%ADD23R,.14961X.07992*%
%ADD20R,.032X.03*%
%ADD22R,.03X.032*%
%ADD30R,.032X.032*%
%ADD25R,.032X.032*%
%ADD29R,.04X.061*%
%ADD37R,.022X.091*%
%ADD33R,.024X.061*%
%ADD31R,.056X.022*%
%ADD16R,.053X.016*%
%ADD28R,.022X.056*%
%ADD40R,.058X.022*%
%ADD27R,.021X.078*%
%ADD26R,.022X.078*%
%ADD11O,.075X.047*%
%ADD34R,.048X.018*%
%ADD36R,.0535X.018*%
%ADD39C,.24055*%
%ADD12R,.075X.059*%
%ADD13C,.25591*%
%ADD10R,.075X.04726*%
%ADD41C,.02*%
%ADD42C,.015*%
%ADD43C,.025*%
%ADD44C,.006*%
%ADD57R,.03204X.10104*%
%ADD51C,.06104*%
%ADD50C,.07004*%
%ADD56C,.06752*%
%ADD47R,.15964X.08876*%
%ADD46R,.08996X.15964*%
%ADD49R,.06104X.06104*%
%ADD48R,.03404X.07104*%
%ADD55R,.03204X.06604*%
%ADD54R,.06604X.03204*%
%ADD59R,.06804X.03204*%
%ADD53R,.03104X.08804*%
%ADD45C,.11972*%
%ADD52R,.03204X.08804*%
%ADD58R,.05804X.02804*%
G75*
%LPD*%
G75*
G36*
G01X699Y78184D02*
G02X0Y78449I-299J266D01*
G01Y457000D01*
X327500D01*
Y0D01*
X0D01*
Y46564D01*
G02X699Y46829I400J-1D01*
G03X2827Y45876I2128J1899D01*
G01X5627D01*
G03X8403Y48073I0J2852D01*
G01X8439Y48228D01*
X8478D01*
Y53956D01*
X0D01*
Y55118D01*
X8478D01*
Y62020D01*
X0D01*
Y62992D01*
X8478D01*
Y69894D01*
X0D01*
Y71060D01*
X8478D01*
Y76788D01*
X8438D01*
X8402Y76942D01*
G03X5627Y79138I-2775J-655D01*
G01X2827D01*
G03X699Y78184I1J-2852D01*
G37*
%LPC*%
G75*
G36*
G01X17328Y69126D02*
X24131D01*
G02X25474Y68295I0J-1501D01*
G01X25489Y68265D01*
X38879Y54876D01*
X59601D01*
X77092Y37385D01*
X77201Y37410D01*
G02X74590Y34799I799J-3410D01*
G01X74615Y34908D01*
X58151Y51372D01*
X38507D01*
G02X36821Y52651I0J1751D01*
G01X36807Y52701D01*
X23385Y66122D01*
X18009D01*
Y56086D01*
X17081D01*
G03X16844Y55364I0J-400D01*
G02X12870I-1987J-2700D01*
G03X12633Y56086I-237J322D01*
G01X11705D01*
Y68926D01*
X12635D01*
G03X12872Y69648I0J400D01*
G02X17064Y69826I1985J2701D01*
G03X17328Y69126I264J-300D01*
G37*
G36*
G01X23748Y92487D02*
Y198275D01*
X3748Y218275D01*
Y330225D01*
X44748Y371225D01*
Y421225D01*
X61775Y438252D01*
X97498D01*
Y442002D01*
X121732D01*
X133982Y454252D01*
X319518D01*
X325252Y448518D01*
Y284982D01*
X282018Y241748D01*
X212018D01*
X210252Y239982D01*
Y223518D01*
X212066Y221704D01*
G03X212748Y221987I282J283D01*
G01Y234347D01*
G02X215252I1252J1153D01*
G01Y210852D01*
X215602D01*
Y200748D01*
X212752D01*
Y200222D01*
X210252Y197722D01*
Y175252D01*
X210602D01*
Y165148D01*
X207502D01*
Y163708D01*
X208708Y162502D01*
X219502D01*
Y154975D01*
X251225Y123252D01*
X306225D01*
X315566Y113911D01*
G03X316248Y114194I282J283D01*
G01Y198275D01*
X309775Y204748D01*
X295725D01*
X282385Y191408D01*
X282410Y191299D01*
G02X279799Y193910I-3410J-799D01*
G01X279908Y193885D01*
X294275Y208252D01*
X305306D01*
G03X305589Y208934I0J400D01*
G01X288248Y226275D01*
Y240000D01*
G02X291752I1752J0D01*
G01Y227725D01*
X319752Y199725D01*
Y72275D01*
X297675Y50198D01*
X297502D01*
X286802Y39498D01*
Y39325D01*
X252225Y4748D01*
X149775D01*
X141248Y13275D01*
Y48275D01*
X137275Y52248D01*
X126225D01*
X123502Y49525D01*
Y43102D01*
X124048D01*
Y43602D01*
X128052D01*
Y39398D01*
X124048D01*
Y39898D01*
X123502D01*
Y21998D01*
X114998D01*
Y50925D01*
X106175Y59748D01*
X47275D01*
X23748Y83275D01*
Y87982D01*
X19482Y92248D01*
X18498D01*
Y85518D01*
X9502D01*
Y101482D01*
X18498D01*
Y94752D01*
X20518D01*
X23066Y92204D01*
G03X23748Y92487I282J283D01*
G37*
G36*
G01X33548Y30898D02*
X33002D01*
Y1998D01*
X1998D01*
Y40502D01*
X33002D01*
Y34102D01*
X33548D01*
Y34602D01*
X37552D01*
Y30398D01*
X33548D01*
Y30898D01*
G37*
G36*
G01X280252Y234347D02*
Y211271D01*
G02X277748I-1252J-3271D01*
G01Y234347D01*
G02X280252I1252J1153D01*
G37*
G36*
G01X220602Y210852D02*
Y200748D01*
X217398D01*
Y210852D01*
X217748D01*
Y224347D01*
G02X220252I1252J1153D01*
G01Y210852D01*
X220602D01*
G37*
G36*
G01X265252Y209982D02*
Y193771D01*
G02X262748I-1252J-3271D01*
G01Y211018D01*
X272748Y221018D01*
Y226847D01*
G02X275252I1252J1153D01*
G01Y219982D01*
X265252Y209982D01*
G37*
G36*
G01X220602Y175252D02*
Y165148D01*
X217398D01*
Y175252D01*
X217748D01*
Y176847D01*
G02X220252I1252J1153D01*
G01Y175252D01*
X220602D01*
G37*
G36*
G01X216641Y183804D02*
X216568Y183798D01*
X215252Y182482D01*
Y175252D01*
X215602D01*
Y165148D01*
X212398D01*
Y175252D01*
X212748D01*
Y183518D01*
X214798Y185568D01*
X214804Y185641D01*
G02X216641Y183804I1696J-141D01*
G37*
G36*
G01X301102Y129452D02*
Y125448D01*
X296898D01*
Y129452D01*
X297398D01*
Y131548D01*
X296898D01*
Y135552D01*
X297748D01*
Y140148D01*
X296898D01*
Y144352D01*
X297448D01*
Y146648D01*
X296898D01*
Y150852D01*
X297748D01*
Y154347D01*
G02X300252I1252J1153D01*
G01Y150852D01*
X301102D01*
Y146648D01*
X300552D01*
Y144352D01*
X301102D01*
Y140148D01*
X300252D01*
Y135552D01*
X301102D01*
Y131548D01*
X300602D01*
Y129452D01*
X301102D01*
G37*
G36*
G01X283602D02*
Y125448D01*
X279398D01*
Y129452D01*
X279898D01*
Y131548D01*
X279398D01*
Y135552D01*
X280248D01*
Y140148D01*
X279398D01*
Y144352D01*
X279948D01*
Y146648D01*
X279398D01*
Y150852D01*
X280248D01*
Y154347D01*
G02X282752I1252J1153D01*
G01Y150852D01*
X283602D01*
Y146648D01*
X283052D01*
Y144352D01*
X283602D01*
Y140148D01*
X282752D01*
Y135552D01*
X283602D01*
Y131548D01*
X283102D01*
Y129452D01*
X283602D01*
G37*
G36*
G01X250248Y224982D02*
X243932Y231298D01*
X243859Y231304D01*
G02X245696Y233141I141J1696D01*
G01X245702Y233068D01*
X252066Y226704D01*
G03X252748Y226987I282J283D01*
G01Y229982D01*
X246432Y236298D01*
X246359Y236304D01*
G02X248196Y238141I141J1696D01*
G01X248202Y238068D01*
X255252Y231018D01*
Y176018D01*
X262018Y169252D01*
X273482D01*
X275800Y171570D01*
X275751Y171693D01*
G02X277693Y169751I3249J1307D01*
G01X277570Y169800D01*
X274518Y166748D01*
X260982D01*
X253434Y174296D01*
G03X252752Y174013I-282J-283D01*
G01Y173518D01*
X262018Y164252D01*
X285982D01*
X292748Y171018D01*
Y187229D01*
G02X295252I1252J3271D01*
G01Y169982D01*
X287018Y161748D01*
X274518D01*
X272752Y159982D01*
Y156653D01*
G02Y154347I-1252J-1153D01*
G01Y150852D01*
X273602D01*
Y146648D01*
X273052D01*
Y144352D01*
X273602D01*
Y140148D01*
X272752D01*
Y135552D01*
X273602D01*
Y131548D01*
X273102D01*
Y129452D01*
X273602D01*
Y125448D01*
X269398D01*
Y129452D01*
X269898D01*
Y131548D01*
X269398D01*
Y135552D01*
X270248D01*
Y140148D01*
X269398D01*
Y144352D01*
X269948D01*
Y146648D01*
X269398D01*
Y150852D01*
X270248D01*
Y154347D01*
G02Y156653I1252J1153D01*
G01Y161018D01*
X270296Y161066D01*
G03X270013Y161748I-283J282D01*
G01X260982D01*
X250248Y172482D01*
Y224982D01*
G37*
G36*
G01X258602Y129452D02*
Y125448D01*
X254398D01*
Y129452D01*
X254898D01*
Y131548D01*
X254398D01*
Y135552D01*
X255248D01*
Y140148D01*
X254398D01*
Y144352D01*
X254948D01*
Y146648D01*
X254398D01*
Y150852D01*
X255248D01*
Y154347D01*
G02X257752I1252J1153D01*
G01Y150852D01*
X258602D01*
Y146648D01*
X258052D01*
Y144352D01*
X258602D01*
Y140148D01*
X257752D01*
Y135552D01*
X258602D01*
Y131548D01*
X258102D01*
Y129452D01*
X258602D01*
G37*
G36*
G01X89252Y24982D02*
X84518Y20248D01*
X81518D01*
X78252Y16982D01*
Y13998D01*
X84982D01*
Y5002D01*
X69018D01*
Y13998D01*
X75748D01*
Y18018D01*
X77796Y20066D01*
G03X77513Y20748I-283J282D01*
G01X65352D01*
Y19898D01*
X61148D01*
Y20448D01*
X58852D01*
Y19898D01*
X58002D01*
Y17032D01*
X57863Y16893D01*
G03X58004Y16552I141J-141D01*
G01X58602D01*
Y12548D01*
X58102D01*
Y10452D01*
X58602D01*
Y6448D01*
X54398D01*
Y10452D01*
X54898D01*
Y12548D01*
X54398D01*
Y16552D01*
X55248D01*
Y17818D01*
X55498Y18068D01*
Y19898D01*
X54648D01*
Y24102D01*
X58852D01*
Y23552D01*
X61148D01*
Y24102D01*
X65352D01*
Y23252D01*
X81018D01*
X81518Y22752D01*
X83482D01*
X86748Y26018D01*
Y30729D01*
G02X88799Y37410I1252J3271D01*
G01X88907Y37384D01*
X91725Y40202D01*
X92498D01*
Y48502D01*
X112708D01*
X114502Y46708D01*
Y21998D01*
X92498D01*
Y35056D01*
G03X91816Y35339I-400J0D01*
G01X91384Y34907D01*
X91410Y34799D01*
G02X89252Y30729I-3410J-799D01*
G01Y24982D01*
G37*
G36*
G01X15398Y414948D02*
Y418952D01*
X15898D01*
Y419498D01*
X1998D01*
Y455502D01*
X35502D01*
Y419498D01*
X19102D01*
Y418952D01*
X19602D01*
Y414948D01*
X15398D01*
G37*
G36*
G01X312898Y218952D02*
X313398D01*
Y219498D01*
X304792D01*
X294498Y229792D01*
Y250208D01*
X302292Y258002D01*
X325502D01*
Y219498D01*
X316602D01*
Y218952D01*
X317102D01*
Y214948D01*
X312898D01*
Y218952D01*
G37*
G36*
G01X311602Y40502D02*
X325502D01*
Y1998D01*
X294498D01*
Y40502D01*
X308398D01*
Y41048D01*
X307898D01*
Y45052D01*
X312102D01*
Y41048D01*
X311602D01*
Y40502D01*
G37*
G54D47*
X120000Y8900D03*
G54D46*
X14000Y136000D03*
G54D48*
X129050Y33700D03*
G54D45*
X10500Y399000D03*
X275500Y13000D03*
%LPD*%
G75*
G36*
G01X2500Y2500D02*
Y40000D01*
X32500D01*
Y34102D01*
X31148D01*
Y30898D01*
X32500D01*
Y2500D01*
X2500D01*
G37*
G36*
G01X151225Y8252D02*
X144752Y14725D01*
Y49725D01*
X138725Y55752D01*
X124775D01*
X124184Y55161D01*
G02X123502Y55444I-282J283D01*
G01Y63502D01*
X114998D01*
Y56844D01*
G02X114316Y56561I-400J0D01*
G01X107625Y63252D01*
X68725D01*
X54202Y77775D01*
Y86898D01*
X54452D01*
Y87398D01*
X56548D01*
Y86898D01*
X58782D01*
X62382Y83298D01*
X68398D01*
Y82548D01*
X68898D01*
Y80452D01*
X68398D01*
Y76448D01*
X72602D01*
Y80452D01*
X72102D01*
Y82548D01*
X72602D01*
Y86552D01*
X72487D01*
G02X72204Y87234I0J400D01*
G01X74252Y89282D01*
Y92398D01*
X74602D01*
Y101202D01*
X71398D01*
Y92398D01*
X71748D01*
Y90318D01*
X69248Y87818D01*
Y86552D01*
X68398D01*
Y85802D01*
X63418D01*
X60551Y88668D01*
Y91102D01*
X59802D01*
Y100668D01*
X59704Y100766D01*
G02X59987Y101448I283J282D01*
G01X60102D01*
Y105452D01*
X59602D01*
Y107548D01*
X60102D01*
Y107563D01*
G02X60784Y107846I400J0D01*
G01X60882Y107748D01*
X71468D01*
X73000Y109280D01*
X74532Y107748D01*
X90118D01*
X90216Y107846D01*
G02X90898Y107563I282J-283D01*
G01Y107548D01*
X91398D01*
Y105452D01*
X90898D01*
Y101448D01*
X91748D01*
Y92018D01*
X89982Y90252D01*
X81018D01*
X79252Y92018D01*
Y92398D01*
X79602D01*
Y101202D01*
X76398D01*
Y92398D01*
X76748D01*
Y86552D01*
X75898D01*
Y82548D01*
X76398D01*
Y80452D01*
X75898D01*
Y76448D01*
X80102D01*
Y80452D01*
X79602D01*
Y82548D01*
X80102D01*
Y86552D01*
X79252D01*
Y87513D01*
G02X79934Y87796I400J0D01*
G01X79982Y87748D01*
X91018D01*
X94252Y90982D01*
Y101448D01*
X95102D01*
Y105452D01*
X94602D01*
Y107548D01*
X95102D01*
Y111552D01*
X90898D01*
Y110802D01*
X89632D01*
X89082Y110252D01*
X75568D01*
X74363Y111457D01*
G02X74504Y111798I141J141D01*
G01X74602D01*
Y119432D01*
X75418Y120248D01*
X76398D01*
Y111798D01*
X79602D01*
Y120602D01*
X78237D01*
G02X77954Y121284I0J400D01*
G01X79802Y123132D01*
Y124398D01*
X80552D01*
Y125248D01*
X88518D01*
X113518Y150248D01*
X151018D01*
X162802Y162032D01*
Y165148D01*
X165602D01*
Y175252D01*
X164227D01*
G02X163944Y175934I0J400D01*
G01X185252Y197242D01*
Y200748D01*
X185602D01*
Y210852D01*
X182398D01*
Y200748D01*
X182748D01*
Y198278D01*
X160298Y175828D01*
Y175252D01*
X157398D01*
Y165148D01*
X157748D01*
Y164318D01*
X156182Y162752D01*
X107482D01*
X92482Y147752D01*
X85118D01*
X84154Y148716D01*
G02X84437Y149398I283J282D01*
G01X84452D01*
Y149898D01*
X86548D01*
Y149398D01*
X90552D01*
Y153602D01*
X86548D01*
Y153102D01*
X84452D01*
Y153602D01*
X83702D01*
Y154868D01*
X83202Y155368D01*
Y157948D01*
X84452D01*
Y158648D01*
X86548D01*
Y157948D01*
X91552D01*
Y165052D01*
X86548D01*
Y164352D01*
X84452D01*
Y165052D01*
X81218D01*
X79584Y166686D01*
X76752D01*
Y169898D01*
X77052D01*
Y178702D01*
X76752D01*
Y179968D01*
X73468Y183252D01*
X51482D01*
X48748Y180518D01*
Y177998D01*
X42018D01*
Y169002D01*
X57982D01*
Y177998D01*
X51252D01*
Y179482D01*
X52518Y180748D01*
X72432D01*
X74137Y179043D01*
G02X73996Y178702I-141J-141D01*
G01X73948D01*
Y169898D01*
X74248D01*
Y166218D01*
X73734Y165704D01*
G02X73052Y165987I-282J283D01*
G01Y166102D01*
X69048D01*
Y165602D01*
X66952D01*
Y166102D01*
X62948D01*
Y165752D01*
X34775D01*
X27934Y158911D01*
G02X27252Y159194I-282J283D01*
G01Y175775D01*
X53725Y202248D01*
X75998D01*
Y200792D01*
X77792Y198998D01*
X86792D01*
X92792Y192998D01*
X93398D01*
Y188948D01*
X97602D01*
Y192998D01*
X98792D01*
X106292Y185498D01*
X113002D01*
Y215002D01*
X85102D01*
Y219352D01*
X84252D01*
Y223948D01*
X85102D01*
Y227952D01*
X84602D01*
Y230048D01*
X85102D01*
Y230798D01*
X86368D01*
X88568Y232998D01*
X89398D01*
Y232648D01*
X96002D01*
Y235852D01*
X89398D01*
Y235502D01*
X87532D01*
X85784Y233754D01*
G02X85102Y234037I-282J283D01*
G01Y234052D01*
X80898D01*
Y230048D01*
X81398D01*
Y227952D01*
X80898D01*
Y223948D01*
X81748D01*
Y219352D01*
X80898D01*
Y215002D01*
X75998D01*
Y205752D01*
X58194D01*
G02X57911Y206434I0J400D01*
G01X69752Y218275D01*
Y233275D01*
X83725Y247248D01*
X137775D01*
X166748Y218275D01*
Y211875D01*
X167248Y211375D01*
Y205800D01*
G03X167383Y205127I1752J1D01*
G01X167398Y205090D01*
Y200748D01*
X170602D01*
Y205090D01*
X170617Y205127D01*
G03X170752Y205800I-1617J674D01*
G01Y212825D01*
X170252Y213325D01*
Y219725D01*
X139225Y250752D01*
X82275D01*
X66248Y234725D01*
Y231244D01*
G02X65566Y230961I-400J0D01*
G01X57602Y238925D01*
Y240452D01*
X57102D01*
Y242548D01*
X57602D01*
Y246552D01*
X53398D01*
Y246537D01*
G02X52716Y246254I-400J0D01*
G01X51218Y247752D01*
X43771D01*
G03X41752Y249771I-3271J-1252D01*
G01Y250232D01*
X42752Y251232D01*
Y270216D01*
G03X40248I-1252J2784D01*
G01Y252268D01*
X39248Y251268D01*
Y249771D01*
G03X43771Y245248I1252J-3271D01*
G01X50182D01*
X52132Y243298D01*
X53398D01*
Y242548D01*
X53898D01*
Y240452D01*
X53398D01*
Y236448D01*
X55125D01*
X66248Y225325D01*
Y219725D01*
X27934Y181411D01*
G02X27252Y181694I-282J283D01*
G01Y199725D01*
X7252Y219725D01*
Y276930D01*
X12570Y282248D01*
X39775D01*
X48493Y273530D01*
X48479Y273431D01*
G03X51069Y276021I3021J-431D01*
G01X50970Y276007D01*
X41225Y285752D01*
X11120D01*
X7934Y282566D01*
G02X7252Y282849I-282J283D01*
G01Y302175D01*
X9075Y303998D01*
X11398D01*
Y302952D01*
X10898D01*
Y298948D01*
X15102D01*
Y302952D01*
X14602D01*
Y303998D01*
X15998D01*
Y298292D01*
X20792Y293498D01*
X27502D01*
Y294263D01*
G02X28184Y294546I400J0D01*
G01X32482Y290248D01*
X42482D01*
X58645Y274085D01*
X58606Y273968D01*
G03X60532Y275894I2894J-968D01*
G01X60415Y275855D01*
X44204Y292066D01*
G02X44487Y292748I283J282D01*
G01X103518D01*
X109252Y298482D01*
Y320982D01*
X113518Y325248D01*
X117948D01*
Y324398D01*
X121952D01*
Y324898D01*
X124048D01*
Y324398D01*
X124798D01*
Y323132D01*
X125498Y322432D01*
Y306002D01*
X125148D01*
Y299398D01*
X128352D01*
Y306002D01*
X128002D01*
Y323468D01*
X127754Y323716D01*
G02X128037Y324398I283J282D01*
G01X128052D01*
Y328602D01*
X124048D01*
Y328102D01*
X121952D01*
Y328602D01*
X117948D01*
Y327752D01*
X112482D01*
X106748Y322018D01*
Y299518D01*
X102482Y295252D01*
X42518D01*
X38852Y298918D01*
Y300381D01*
G02X39512Y300684I400J0D01*
G03X42752Y305784I1987J2317D01*
G01Y308518D01*
X38518Y312752D01*
X33518D01*
X32752Y313518D01*
Y315448D01*
X33602D01*
Y319452D01*
X33102D01*
Y321548D01*
X33602D01*
Y325552D01*
X33487D01*
G02X33204Y326234I0J400D01*
G01X98718Y391748D01*
X168018D01*
X170252Y393982D01*
Y395746D01*
X173607D01*
G02X173889Y395063I-1J-400D01*
G01X165578Y386752D01*
X98482D01*
X40248Y328518D01*
Y325552D01*
X39398D01*
Y321548D01*
X39898D01*
Y319452D01*
X39398D01*
Y315448D01*
X40248D01*
Y314153D01*
G03X42752I1252J-1153D01*
G01Y315448D01*
X43602D01*
Y319452D01*
X43102D01*
Y321548D01*
X43602D01*
Y325552D01*
X42752D01*
Y327482D01*
X99518Y384248D01*
X271614D01*
X281846Y394480D01*
Y395746D01*
X297060D01*
Y392829D01*
X296432Y392202D01*
X296359Y392196D01*
G03X298196Y390359I141J-1696D01*
G01X298202Y390432D01*
X299562Y391793D01*
Y395746D01*
X301175D01*
Y410530D01*
X294393D01*
G02X294111Y411213I1J400D01*
G01X295252Y412354D01*
Y416847D01*
G03X292748I-1252J1153D01*
G01Y413390D01*
X291154Y411796D01*
Y410530D01*
X287752D01*
Y423498D01*
X298502D01*
Y438398D01*
X300452D01*
Y438898D01*
X302548D01*
Y438398D01*
X306552D01*
Y439248D01*
X310982D01*
X312748Y437482D01*
Y296018D01*
X270982Y254252D01*
X200982D01*
X197748Y251018D01*
Y223518D01*
X193384Y219154D01*
G02X192702Y219437I-282J283D01*
G01Y266068D01*
X176018Y282752D01*
X161018D01*
X146752Y297018D01*
Y306998D01*
X147102D01*
Y313602D01*
X143898D01*
Y306998D01*
X144248D01*
Y298887D01*
G02X143566Y298604I-400J0D01*
G01X143113Y299057D01*
G02X143254Y299398I141J141D01*
G01X143352D01*
Y306002D01*
X140148D01*
Y299398D01*
X140498D01*
Y298132D01*
X141748Y296882D01*
Y291552D01*
X140898D01*
Y287548D01*
X141398D01*
Y285452D01*
X140898D01*
Y281448D01*
X141748D01*
Y279518D01*
X139982Y277752D01*
X134982D01*
X133000Y275770D01*
X131018Y277752D01*
X123518D01*
X121752Y279518D01*
Y281448D01*
X122602D01*
Y285452D01*
X122102D01*
Y287548D01*
X122602D01*
Y291552D01*
X121752D01*
Y297918D01*
X120613Y299057D01*
G02X120754Y299398I141J141D01*
G01X120852D01*
Y306002D01*
X117648D01*
Y299398D01*
X117998D01*
Y298132D01*
X119248Y296882D01*
Y291552D01*
X118398D01*
Y287548D01*
X118898D01*
Y285452D01*
X118398D01*
Y281448D01*
X119248D01*
Y278482D01*
X122482Y275248D01*
X129982D01*
X131748Y273482D01*
Y268482D01*
X177748Y222482D01*
Y210852D01*
X177398D01*
Y200748D01*
X180602D01*
Y210852D01*
X180252D01*
Y223518D01*
X134252Y269518D01*
Y273482D01*
X136018Y275248D01*
X141018D01*
X144252Y278482D01*
Y281448D01*
X145102D01*
Y285452D01*
X144602D01*
Y287548D01*
X145102D01*
Y291552D01*
X144252D01*
Y295013D01*
G02X144934Y295296I400J0D01*
G01X159982Y280248D01*
X174982D01*
X190198Y265032D01*
Y210852D01*
X187398D01*
Y200748D01*
X190198D01*
Y191932D01*
X200498Y181632D01*
Y175252D01*
X197398D01*
Y165148D01*
X197748D01*
Y145882D01*
X197846Y145784D01*
G02X197563Y145102I-283J-282D01*
G01X197548D01*
Y144602D01*
X195452D01*
Y145102D01*
X195437D01*
G02X195154Y145784I0J400D01*
G01X195252Y145882D01*
Y165148D01*
X195602D01*
Y175252D01*
X192398D01*
Y165148D01*
X192748D01*
Y146918D01*
X192198Y146368D01*
Y145102D01*
X191448D01*
Y140898D01*
X192198D01*
Y139632D01*
X192748Y139082D01*
Y136653D01*
G03X195252I1252J-1153D01*
G01Y140118D01*
X195154Y140216D01*
G02X195437Y140898I283J282D01*
G01X195452D01*
Y141398D01*
X197548D01*
Y140898D01*
X201552D01*
Y141013D01*
G02X202234Y141296I400J0D01*
G01X202748Y140782D01*
Y138052D01*
X201898D01*
Y134048D01*
X202398D01*
Y131952D01*
X201898D01*
Y127948D01*
X202748D01*
Y114982D01*
X208482Y109248D01*
X278482D01*
X280248Y107482D01*
Y103518D01*
X279843Y103113D01*
G02X279502Y103254I-141J141D01*
G01Y103502D01*
X270998D01*
Y98502D01*
X237002D01*
Y103502D01*
X228498D01*
Y98502D01*
X194502D01*
Y103502D01*
X185998D01*
Y98502D01*
X152002D01*
Y103502D01*
X143498D01*
Y94998D01*
X279502D01*
Y99347D01*
X279605Y99404D01*
G03X279885Y99615I-606J1095D01*
G01X282752Y102482D01*
Y108518D01*
X279518Y111752D01*
X209518D01*
X205252Y116018D01*
Y127948D01*
X206102D01*
Y131952D01*
X205602D01*
Y134048D01*
X206102D01*
Y138052D01*
X205252D01*
Y141818D01*
X202818Y144252D01*
X201552D01*
Y145102D01*
X200802D01*
Y146368D01*
X200252Y146918D01*
Y153998D01*
X201898D01*
Y150448D01*
X206102D01*
Y153998D01*
X215525D01*
X249775Y119748D01*
X304775D01*
X316248Y108275D01*
Y73725D01*
X296225Y53702D01*
X296052D01*
X283298Y40948D01*
Y40775D01*
X250775Y8252D01*
X151225D01*
G37*
G36*
G01X23576Y305237D02*
G03Y300763I-2076J-2237D01*
G02X24248Y300470I272J-293D01*
G01Y298482D01*
X27000Y295730D01*
Y294000D01*
X21000D01*
X16500Y298500D01*
Y304500D01*
X14602D01*
Y305048D01*
X15102D01*
Y309052D01*
X10898D01*
Y305048D01*
X11398D01*
Y304500D01*
X9000D01*
Y312000D01*
X18000D01*
X22500Y307500D01*
X24248D01*
Y305530D01*
G02X23576Y305237I-400J0D01*
G37*
G36*
G01X101018Y402748D02*
X120518D01*
X125166Y407396D01*
X125287Y407349D01*
G03X123349Y409287I1213J3151D01*
G01X123396Y409166D01*
X119482Y405252D01*
X99982D01*
X21748Y327018D01*
Y315982D01*
X29982Y307748D01*
X32482D01*
X36348Y303882D01*
Y297882D01*
X40796Y293434D01*
G02X40513Y292752I-283J-282D01*
G01X33518D01*
X27502Y298768D01*
Y308002D01*
X26752D01*
Y309518D01*
X19252Y317018D01*
Y328482D01*
X63002Y372232D01*
Y405998D01*
X63352D01*
Y412602D01*
X60148D01*
Y405998D01*
X60498D01*
Y373268D01*
X16748Y329518D01*
Y315982D01*
X24248Y308482D01*
Y308002D01*
X22708D01*
X18208Y312502D01*
X8498D01*
Y308370D01*
G03X8412Y308288I1165J-1308D01*
G01X7934Y307811D01*
G02X7252Y308094I-282J283D01*
G01Y328775D01*
X48252Y369775D01*
Y419775D01*
X63225Y434748D01*
X97498D01*
Y423498D01*
X102263D01*
G02X102546Y422816I0J-400D01*
G01X101482Y421752D01*
X70552D01*
Y422602D01*
X66548D01*
Y422102D01*
X64452D01*
Y422602D01*
X60448D01*
Y418398D01*
X61198D01*
Y416532D01*
X63982Y413748D01*
X67082D01*
X67887Y412943D01*
G02X67746Y412602I-141J-141D01*
G01X67648D01*
Y405998D01*
X70852D01*
Y412602D01*
X70502D01*
Y413868D01*
X68118Y416252D01*
X65018D01*
X63702Y417568D01*
Y418398D01*
X64452D01*
Y418898D01*
X66548D01*
Y418398D01*
X70552D01*
Y419248D01*
X102518D01*
X106768Y423498D01*
X135248D01*
Y413635D01*
G03X137751I1251J-3135D01*
G01Y423498D01*
X168438D01*
Y410530D01*
X166825D01*
Y395746D01*
X167748D01*
Y395018D01*
X166982Y394252D01*
X97682D01*
X30248Y326818D01*
Y325552D01*
X29398D01*
Y321548D01*
X29898D01*
Y319452D01*
X29398D01*
Y315448D01*
X30248D01*
Y312482D01*
X31796Y310934D01*
G02X31513Y310252I-283J-282D01*
G01X31018D01*
X24252Y317018D01*
Y325982D01*
X101018Y402748D01*
G37*
G36*
G01X2500Y420000D02*
Y455000D01*
X35000D01*
Y420000D01*
X19102D01*
Y421352D01*
X15898D01*
Y420000D01*
X2500D01*
G37*
G36*
G01X62806Y63252D02*
X48725D01*
X27252Y84725D01*
Y138275D01*
X36225Y147248D01*
X59775D01*
X64298Y142725D01*
Y138502D01*
X62498D01*
Y135602D01*
X61952D01*
Y136102D01*
X57948D01*
Y131898D01*
X61952D01*
Y132398D01*
X62498D01*
Y128102D01*
X61952D01*
Y128602D01*
X57948D01*
Y124398D01*
X61952D01*
Y124898D01*
X62498D01*
Y110252D01*
X61918D01*
X61368Y110802D01*
X60102D01*
Y111552D01*
X55898D01*
Y107548D01*
X56398D01*
Y105452D01*
X55898D01*
Y101448D01*
X56748D01*
Y100182D01*
X57298Y99632D01*
Y91102D01*
X56548D01*
Y90602D01*
X54452D01*
Y91102D01*
X50448D01*
Y86898D01*
X50698D01*
Y76325D01*
X63089Y63934D01*
G02X62806Y63252I-283J-282D01*
G37*
G36*
G01X80552Y127752D02*
Y128602D01*
X76548D01*
Y128102D01*
X75502D01*
Y138502D01*
X67802D01*
Y144175D01*
X61225Y150752D01*
X34775D01*
X27934Y143911D01*
G02X27252Y144194I-282J283D01*
G01Y153275D01*
X36225Y162248D01*
X62948D01*
Y161898D01*
X66952D01*
Y162398D01*
X69048D01*
Y161898D01*
X73052D01*
Y162748D01*
X74318D01*
X75752Y164182D01*
X78548D01*
X79448Y163282D01*
Y157948D01*
X80698D01*
Y154332D01*
X80746Y154284D01*
G02X80463Y153602I-283J-282D01*
G01X80448D01*
Y149398D01*
X81198D01*
Y148132D01*
X84082Y145248D01*
X93518D01*
X108518Y160248D01*
X156513D01*
G02X156796Y159566I0J-400D01*
G01X149982Y152752D01*
X112482D01*
X87482Y127752D01*
X80552D01*
G37*
G36*
G01X38695Y305074D02*
X34204Y309566D01*
G02X34487Y310248I283J282D01*
G01X37482D01*
X40248Y307482D01*
Y305784D01*
G03X39270Y305084I1253J-2783D01*
G02X38695Y305074I-292J273D01*
G37*
G36*
G01X63000Y111000D02*
Y124898D01*
X64048D01*
Y124398D01*
X68052D01*
Y128602D01*
X64048D01*
Y128102D01*
X63000D01*
Y132398D01*
X64048D01*
Y131898D01*
X68052D01*
Y136102D01*
X64048D01*
Y135602D01*
X63000D01*
Y138000D01*
X75000D01*
Y128102D01*
X74452D01*
Y128602D01*
X70448D01*
Y124398D01*
X73933D01*
G02X74216Y123716I0J-400D01*
G01X70500Y120000D01*
Y111000D01*
X63000D01*
G37*
G36*
G01X93000Y22500D02*
Y48000D01*
X112500D01*
X114000Y46500D01*
Y22500D01*
X93000D01*
G37*
G36*
G01X106500Y186000D02*
X99000Y193500D01*
X97102D01*
Y195048D01*
X97602D01*
Y199052D01*
X93398D01*
Y195048D01*
X93898D01*
Y193500D01*
X93000D01*
X87000Y199500D01*
X78000D01*
X76500Y201000D01*
Y214500D01*
X81448D01*
Y212852D01*
X80898D01*
Y208648D01*
X85102D01*
Y212852D01*
X84552D01*
Y214500D01*
X112500D01*
Y186000D01*
X106500D01*
G37*
G36*
G01X115500Y22500D02*
Y63000D01*
X123000D01*
Y43102D01*
X121952D01*
Y43602D01*
X117948D01*
Y39398D01*
X121952D01*
Y39898D01*
X123000D01*
Y22500D01*
X115500D01*
G37*
G36*
G01X107953Y424683D02*
X124770Y441500D01*
X140515D01*
G02X140797Y440817I-1J-400D01*
G01X140082Y440102D01*
X138648D01*
Y433498D01*
X141852D01*
Y438332D01*
X142752Y439232D01*
X144452D01*
X144468Y439248D01*
X146448D01*
Y438398D01*
X150452D01*
Y438898D01*
X152548D01*
Y438398D01*
X156552D01*
Y439248D01*
X164518D01*
X166770Y441500D01*
X185515D01*
G02X185797Y440817I-1J-400D01*
G01X185082Y440102D01*
X183648D01*
Y433802D01*
X179352D01*
Y440102D01*
X176148D01*
Y433802D01*
X172461D01*
G03X170615Y433885I-961J-802D01*
G01X168438Y431707D01*
Y424000D01*
X137752D01*
Y425898D01*
X138102D01*
Y432502D01*
X134898D01*
Y425898D01*
X135248D01*
Y424000D01*
X108235D01*
G02X107953Y424683I1J400D01*
G37*
G36*
G01X98000Y424000D02*
Y441500D01*
X120265D01*
G02X120547Y440817I-1J-400D01*
G01X103730Y424000D01*
X98000D01*
G37*
G36*
G01X151500Y103000D02*
Y98000D01*
X186500D01*
Y103000D01*
X194000D01*
Y98000D01*
X229000D01*
Y103000D01*
X236500D01*
Y98000D01*
X271500D01*
Y103000D01*
X279000D01*
Y95500D01*
X144000D01*
Y103000D01*
X151500D01*
G37*
G36*
G01X125954Y442684D02*
X135018Y451748D01*
X172513D01*
G02X172796Y451066I0J-400D01*
G01X163732Y442002D01*
X156552D01*
Y442602D01*
X152548D01*
Y442102D01*
X150452D01*
Y442602D01*
X146448D01*
Y442002D01*
X126237D01*
G02X125954Y442684I0J400D01*
G37*
G36*
G01X167954D02*
X177018Y451748D01*
X212513D01*
G02X212796Y451066I0J-400D01*
G01X203732Y442002D01*
X201552D01*
Y442602D01*
X197548D01*
Y442102D01*
X195452D01*
Y442602D01*
X191448D01*
Y442002D01*
X168237D01*
G02X167954Y442684I0J400D01*
G37*
G36*
G01X207748Y188002D02*
X200498D01*
Y186137D01*
G02X199816Y185854I-400J0D01*
G01X192702Y192968D01*
Y200748D01*
X195602D01*
Y210852D01*
X195252D01*
Y217482D01*
X199566Y221796D01*
G02X200248Y221513I282J-283D01*
G01Y221018D01*
X197748Y218518D01*
Y210852D01*
X197398D01*
Y200748D01*
X200602D01*
Y210852D01*
X200252D01*
Y217482D01*
X202066Y219296D01*
G02X202748Y219013I282J-283D01*
G01Y210852D01*
X202398D01*
Y200748D01*
X205602D01*
Y210852D01*
X205252D01*
Y219013D01*
G02X205934Y219296I400J0D01*
G01X207748Y217482D01*
Y210852D01*
X207398D01*
Y200748D01*
X208773D01*
G02X209056Y200066I0J-400D01*
G01X207748Y198758D01*
Y188002D01*
G37*
G36*
G01X192060Y392829D02*
X191432Y392202D01*
X191359Y392196D01*
G03X193196Y390359I141J-1696D01*
G01X193202Y390432D01*
X194562Y391793D01*
Y395746D01*
X196175D01*
Y410530D01*
X189393D01*
G02X189111Y411213I1J400D01*
G01X190252Y412354D01*
Y416847D01*
G03X187748I-1252J1153D01*
G01Y413390D01*
X186154Y411796D01*
Y410530D01*
X182752D01*
Y423498D01*
X202748D01*
Y411449D01*
X202984Y411213D01*
G02X202702Y410530I-283J-283D01*
G01X201825D01*
Y395746D01*
X208607D01*
G02X208889Y395063I-1J-400D01*
G01X200578Y386752D01*
X170083D01*
G02X169800Y387434I0J400D01*
G01X176846Y394480D01*
Y395746D01*
X192060D01*
Y392829D01*
G37*
G36*
G01X170940Y410530D02*
Y423498D01*
X180248D01*
Y410530D01*
X170940D01*
G37*
G36*
G01X186852Y433802D02*
Y438332D01*
X187752Y439232D01*
X189452D01*
X189468Y439248D01*
X191448D01*
Y438398D01*
X195452D01*
Y438898D01*
X197548D01*
Y438398D01*
X201552D01*
Y439248D01*
X204518D01*
X206770Y441500D01*
X220515D01*
G02X220797Y440817I-1J-400D01*
G01X220082Y440102D01*
X218648D01*
Y433802D01*
X214352D01*
Y440102D01*
X211148D01*
Y433802D01*
X207461D01*
G03X206500Y434252I-961J-801D01*
G01X191500D01*
G03X190539Y433802I0J-1251D01*
G01X186852D01*
G37*
G36*
G01X182752Y424000D02*
Y425898D01*
X183102D01*
Y432198D01*
X190539D01*
G03X191500Y431748I961J801D01*
G01X198482D01*
X202748Y427482D01*
Y424000D01*
X182752D01*
G37*
G36*
G01X170940D02*
Y430671D01*
X172385Y432115D01*
G03X172461Y432198I-884J886D01*
G01X179898D01*
Y425898D01*
X180248D01*
Y424000D01*
X170940D01*
G37*
G36*
G01X201000Y154500D02*
Y187500D01*
X207000D01*
Y163500D01*
X208500Y162000D01*
X219000D01*
Y154500D01*
X205602D01*
Y156548D01*
X206102D01*
Y160552D01*
X201898D01*
Y156548D01*
X202398D01*
Y154500D01*
X201000D01*
G37*
G36*
G01X227060Y392829D02*
X226432Y392202D01*
X226359Y392196D01*
G03X228196Y390359I141J-1696D01*
G01X228202Y390432D01*
X229562Y391793D01*
Y395746D01*
X231175D01*
Y410530D01*
X224393D01*
G02X224111Y411213I1J400D01*
G01X225252Y412354D01*
Y416847D01*
G03X222748I-1252J1153D01*
G01Y413390D01*
X221154Y411796D01*
Y410530D01*
X217752D01*
Y423498D01*
X237748D01*
Y411449D01*
X237984Y411213D01*
G02X237702Y410530I-283J-283D01*
G01X236825D01*
Y395746D01*
X243607D01*
G02X243889Y395063I-1J-400D01*
G01X235578Y386752D01*
X205083D01*
G02X204800Y387434I0J400D01*
G01X211846Y394480D01*
Y395746D01*
X227060D01*
Y392829D01*
G37*
G36*
G01X205940Y410530D02*
Y411796D01*
X205252Y412485D01*
Y423498D01*
X215248D01*
Y410530D01*
X205940D01*
G37*
G36*
G01X207954Y442684D02*
X214518Y449248D01*
X245013D01*
G02X245296Y448566I0J-400D01*
G01X238732Y442002D01*
X236552D01*
Y442602D01*
X232548D01*
Y442102D01*
X230452D01*
Y442602D01*
X226448D01*
Y442002D01*
X208237D01*
G02X207954Y442684I0J400D01*
G37*
G36*
G01X205252Y424000D02*
Y428518D01*
X202704Y431066D01*
G02X202987Y431748I283J282D01*
G01X206500D01*
G03X207461Y432198I0J1251D01*
G01X214898D01*
Y425898D01*
X215248D01*
Y424000D01*
X205252D01*
G37*
G36*
G01X262060Y392829D02*
X261432Y392202D01*
X261359Y392196D01*
G03X263196Y390359I141J-1696D01*
G01X263202Y390432D01*
X264562Y391793D01*
Y395746D01*
X266175D01*
Y410530D01*
X259393D01*
G02X259111Y411213I1J400D01*
G01X260252Y412354D01*
Y416847D01*
G03X257748I-1252J1153D01*
G01Y413390D01*
X256154Y411796D01*
Y410530D01*
X252752D01*
Y423498D01*
X272748D01*
Y411449D01*
X272984Y411213D01*
G02X272702Y410530I-283J-283D01*
G01X271825D01*
Y395746D01*
X278607D01*
G02X278889Y395063I-1J-400D01*
G01X270578Y386752D01*
X240083D01*
G02X239800Y387434I0J400D01*
G01X246846Y394480D01*
Y395746D01*
X262060D01*
Y392829D01*
G37*
G36*
G01X240940Y410530D02*
Y411796D01*
X240252Y412485D01*
Y423498D01*
X250248D01*
Y410530D01*
X240940D01*
G37*
G36*
G01X221852Y433802D02*
Y438332D01*
X222752Y439232D01*
X224452D01*
X224468Y439248D01*
X226448D01*
Y438398D01*
X230452D01*
Y438898D01*
X232548D01*
Y438398D01*
X236552D01*
Y439248D01*
X239518D01*
X241770Y441500D01*
X255515D01*
G02X255797Y440817I-1J-400D01*
G01X255082Y440102D01*
X253648D01*
Y433802D01*
X249352D01*
Y440102D01*
X246148D01*
Y433802D01*
X242461D01*
G03X241500Y434252I-961J-801D01*
G01X226500D01*
G03X225539Y433802I0J-1251D01*
G01X221852D01*
G37*
G36*
G01X240252Y424000D02*
Y428518D01*
X237704Y431066D01*
G02X237987Y431748I283J282D01*
G01X241500D01*
G03X242461Y432198I0J1251D01*
G01X249898D01*
Y425898D01*
X250248D01*
Y424000D01*
X240252D01*
G37*
G36*
G01X217752D02*
Y425898D01*
X218102D01*
Y432198D01*
X225539D01*
G03X226500Y431748I961J801D01*
G01X233482D01*
X237748Y427482D01*
Y424000D01*
X217752D01*
G37*
G36*
G01X242954Y442684D02*
X247018Y446748D01*
X277513D01*
G02X277796Y446066I0J-400D01*
G01X273732Y442002D01*
X271552D01*
Y442602D01*
X267548D01*
Y442102D01*
X265452D01*
Y442602D01*
X261448D01*
Y442002D01*
X243237D01*
G02X242954Y442684I0J400D01*
G37*
G36*
G01X275252Y424000D02*
Y428518D01*
X269518Y434252D01*
X261500D01*
G03X260539Y433802I0J-1251D01*
G01X256852D01*
Y438332D01*
X257752Y439232D01*
X259452D01*
X259468Y439248D01*
X261448D01*
Y438398D01*
X265452D01*
Y438898D01*
X267548D01*
Y438398D01*
X271552D01*
Y439248D01*
X274518D01*
X276770Y441500D01*
X290515D01*
G02X290797Y440817I-1J-400D01*
G01X290082Y440102D01*
X288648D01*
Y433498D01*
X291852D01*
Y438332D01*
X292752Y439232D01*
X294452D01*
X294468Y439248D01*
X296448D01*
Y438398D01*
X298000D01*
Y424000D01*
X287752D01*
Y425898D01*
X288102D01*
Y432502D01*
X284898D01*
Y425898D01*
X285248D01*
Y424000D01*
X275252D01*
G37*
G36*
G01X252752D02*
Y425898D01*
X253102D01*
Y432198D01*
X260539D01*
G03X261500Y431748I961J801D01*
G01X268482D01*
X272748Y427482D01*
Y424000D01*
X252752D01*
G37*
G36*
G01X275204Y249934D02*
X317066Y291796D01*
G02X317748Y291513I282J-283D01*
G01Y291018D01*
X275982Y249252D01*
X275487D01*
G02X275204Y249934I0J400D01*
G37*
G36*
G01X277704Y247434D02*
X319566Y289296D01*
G02X320248Y289013I282J-283D01*
G01Y288518D01*
X278482Y246752D01*
X277987D01*
G02X277704Y247434I0J400D01*
G37*
G36*
G01X280204Y244934D02*
X322066Y286796D01*
G02X322748Y286513I282J-283D01*
G01Y286018D01*
X280982Y244252D01*
X280487D01*
G02X280204Y244934I0J400D01*
G37*
G36*
G01X272704Y252434D02*
X314566Y294296D01*
G02X315248Y294013I282J-283D01*
G01Y293518D01*
X273482Y251752D01*
X272987D01*
G02X272704Y252434I0J400D01*
G37*
G36*
G01X275940Y410530D02*
Y411796D01*
X275252Y412485D01*
Y423498D01*
X285248D01*
Y410530D01*
X275940D01*
G37*
G36*
G01X314566Y439204D02*
X312018Y441752D01*
X306552D01*
Y442602D01*
X302548D01*
Y442102D01*
X300452D01*
Y442602D01*
X296448D01*
Y442002D01*
X278237D01*
G02X277954Y442684I0J400D01*
G01X279518Y444248D01*
X310982D01*
X315248Y439982D01*
Y439487D01*
G02X314566Y439204I-400J0D01*
G37*
G36*
G01X295000Y2500D02*
Y40000D01*
X308398D01*
Y38648D01*
X311602D01*
Y40000D01*
X325000D01*
Y2500D01*
X295000D01*
G37*
G36*
G01Y250000D02*
X302500Y257500D01*
X325000D01*
Y220000D01*
X316602D01*
Y221352D01*
X313398D01*
Y220000D01*
X305000D01*
X295000Y230000D01*
Y250000D01*
G37*
G36*
G01X317066Y441704D02*
X312704Y446066D01*
G02X312987Y446748I283J282D01*
G01X313482D01*
X317748Y442482D01*
Y441987D01*
G02X317066Y441704I-400J0D01*
G37*
G36*
G01X319566Y444204D02*
X315204Y448566D01*
G02X315487Y449248I283J282D01*
G01X315982D01*
X320248Y444982D01*
Y444487D01*
G02X319566Y444204I-400J0D01*
G37*
G36*
G01X322066Y446704D02*
X317704Y451066D01*
G02X317987Y451748I283J282D01*
G01X318482D01*
X322748Y447482D01*
Y446987D01*
G02X322066Y446704I-400J0D01*
G37*
%LPC*%
G75*
G36*
G01X231102Y321198D02*
Y320448D01*
X226898D01*
Y324452D01*
X227398D01*
Y326548D01*
X226898D01*
Y330552D01*
X227748D01*
Y334347D01*
G02X230252I1252J1153D01*
G01Y330552D01*
X231102D01*
Y326548D01*
X230602D01*
Y324452D01*
X231102D01*
Y324437D01*
G03X231784Y324154I400J0D01*
G01X238132Y330502D01*
X251998D01*
Y330852D01*
X258602D01*
Y327648D01*
X251998D01*
Y327998D01*
X239168D01*
X232368Y321198D01*
X231102D01*
G37*
G36*
G01X196102D02*
Y320448D01*
X191898D01*
Y324452D01*
X192398D01*
Y326548D01*
X191898D01*
Y330552D01*
X192748D01*
Y334347D01*
G02X195252I1252J1153D01*
G01Y330552D01*
X196102D01*
Y326548D01*
X195602D01*
Y324452D01*
X196102D01*
Y323702D01*
X197932D01*
X204732Y330502D01*
X211998D01*
Y330852D01*
X218602D01*
Y327648D01*
X211998D01*
Y327998D01*
X205768D01*
X205554Y327784D01*
G03X205837Y327102I283J-282D01*
G01X211002D01*
Y323898D01*
X204398D01*
Y325663D01*
G03X203716Y325946I-400J0D01*
G01X198968Y321198D01*
X196102D01*
G37*
G36*
G01X158602D02*
Y320448D01*
X154398D01*
Y324452D01*
X154898D01*
Y326548D01*
X154398D01*
Y330552D01*
X155248D01*
Y347365D01*
G02X157752I1252J3135D01*
G01Y330552D01*
X158602D01*
Y326548D01*
X158102D01*
Y324452D01*
X158602D01*
Y323702D01*
X160432D01*
X167232Y330502D01*
X174498D01*
Y330852D01*
X181102D01*
Y327648D01*
X174498D01*
Y327998D01*
X168268D01*
X168054Y327784D01*
G03X168337Y327102I283J-282D01*
G01X173502D01*
Y323898D01*
X166898D01*
Y325663D01*
G03X166216Y325946I-400J0D01*
G01X161468Y321198D01*
X158602D01*
G37*
G36*
G01X73602Y315448D02*
X72751D01*
Y305784D01*
G02X70248I-1251J-2784D01*
G01Y315448D01*
X69398D01*
Y319452D01*
X69898D01*
Y321548D01*
X69398D01*
Y325552D01*
X70248D01*
Y328847D01*
G02X72752I1252J1153D01*
G01Y325552D01*
X73602D01*
Y321548D01*
X73102D01*
Y319452D01*
X73602D01*
Y315448D01*
G37*
G36*
G01X62752Y305784D02*
G02X60248I-1252J-2784D01*
G01Y315448D01*
X59398D01*
Y319452D01*
X59898D01*
Y321548D01*
X59398D01*
Y325552D01*
X60248D01*
Y328847D01*
G02X62752I1252J1153D01*
G01Y325552D01*
X63602D01*
Y321548D01*
X63102D01*
Y319452D01*
X63602D01*
Y315448D01*
X62752D01*
Y305784D01*
G37*
G36*
G01X52752D02*
G02X50248I-1252J-2784D01*
G01Y315448D01*
X49398D01*
Y319452D01*
X49898D01*
Y321548D01*
X49398D01*
Y325552D01*
X50248D01*
Y328847D01*
G02X52752I1252J1153D01*
G01Y325552D01*
X53602D01*
Y321548D01*
X53102D01*
Y319452D01*
X53602D01*
Y315448D01*
X52752D01*
Y305784D01*
G37*
G36*
G01X117752Y341018D02*
X121018Y337752D01*
X143518D01*
X146752Y334518D01*
Y331552D01*
X147602D01*
Y327548D01*
X147102D01*
Y325452D01*
X147602D01*
Y321448D01*
X146752D01*
Y319518D01*
X150502Y315768D01*
Y306002D01*
X150852D01*
Y299398D01*
X147648D01*
Y306002D01*
X147998D01*
Y314732D01*
X144248Y318482D01*
Y321448D01*
X143398D01*
Y325452D01*
X143898D01*
Y327548D01*
X143398D01*
Y331552D01*
X144248D01*
Y333482D01*
X142482Y335248D01*
X119982D01*
X115248Y339982D01*
Y347365D01*
G02X117752I1252J3135D01*
G01Y341018D01*
G37*
G36*
G01X222752Y297948D02*
Y294153D01*
G02X220248I-1252J-1153D01*
G01Y297948D01*
X219398D01*
Y301952D01*
X219898D01*
Y304048D01*
X219398D01*
Y308052D01*
X220248D01*
Y309082D01*
X219698Y309632D01*
Y310898D01*
X218948D01*
Y315102D01*
X219698D01*
Y317282D01*
X216832Y320148D01*
X211998D01*
Y323352D01*
X218602D01*
Y321918D01*
X222202Y318318D01*
Y315102D01*
X222952D01*
Y314602D01*
X225048D01*
Y315102D01*
X229052D01*
Y310898D01*
X225048D01*
Y311398D01*
X222952D01*
Y310898D01*
X222937D01*
G03X222654Y310216I0J-400D01*
G01X222752Y310118D01*
Y308052D01*
X223602D01*
Y304048D01*
X223102D01*
Y301952D01*
X223602D01*
Y297948D01*
X222752D01*
G37*
G36*
G01X182748Y294153D02*
Y297948D01*
X181898D01*
Y301952D01*
X182398D01*
Y304048D01*
X181898D01*
Y308052D01*
X182748D01*
Y309082D01*
X182198Y309632D01*
Y310898D01*
X181448D01*
Y315102D01*
X182198D01*
Y317282D01*
X179332Y320148D01*
X174498D01*
Y323352D01*
X181102D01*
Y321918D01*
X184702Y318318D01*
Y315102D01*
X185452D01*
Y314602D01*
X187548D01*
Y315102D01*
X191552D01*
Y310898D01*
X187548D01*
Y311398D01*
X185452D01*
Y310898D01*
X185437D01*
G03X185154Y310216I0J-400D01*
G01X185252Y310118D01*
Y308052D01*
X186102D01*
Y304048D01*
X185602D01*
Y301952D01*
X186102D01*
Y297948D01*
X185252D01*
Y294153D01*
G02X182748I-1252J-1153D01*
G37*
G36*
G01X271102Y293702D02*
X275068D01*
X279068Y289702D01*
X279141Y289696D01*
G02X277304Y287859I-141J-1696D01*
G01X277298Y287932D01*
X274032Y291198D01*
X271102D01*
Y290448D01*
X266898D01*
Y291198D01*
X265018D01*
X263068Y289248D01*
X261802D01*
Y288898D01*
X254998D01*
Y292102D01*
X261802D01*
Y292004D01*
G03X262143Y291863I200J0D01*
G01X263982Y293702D01*
X266898D01*
Y294452D01*
X267398D01*
Y296548D01*
X266898D01*
Y300552D01*
X271102D01*
Y296548D01*
X270602D01*
Y294452D01*
X271102D01*
Y293702D01*
G37*
G36*
G01Y287302D02*
X273968D01*
X279068Y282202D01*
X279141Y282196D01*
G02X277304Y280359I-141J-1696D01*
G01X277298Y280432D01*
X272932Y284798D01*
X271102D01*
Y284048D01*
X270602D01*
Y281952D01*
X271102D01*
Y277948D01*
X266898D01*
Y281952D01*
X267398D01*
Y284048D01*
X266898D01*
Y284798D01*
X262742D01*
X262143Y285397D01*
G03X261802Y285256I-141J-141D01*
G01Y285158D01*
X254998D01*
Y288362D01*
X261802D01*
Y288012D01*
X263068D01*
X263778Y287302D01*
X266898D01*
Y288052D01*
X271102D01*
Y287302D01*
G37*
G36*
G01X243602Y281498D02*
Y277948D01*
X239398D01*
Y281498D01*
X231998D01*
Y296002D01*
X243208D01*
X245002Y294208D01*
Y292708D01*
X246208Y291502D01*
X254002D01*
Y286811D01*
G02Y286709I-800J-51D01*
G01Y281498D01*
X243602D01*
G37*
G36*
G01X160602Y210852D02*
Y200748D01*
X157398D01*
Y210852D01*
X157748D01*
Y212482D01*
X129982Y240248D01*
X118052D01*
Y239398D01*
X114048D01*
Y239898D01*
X111952D01*
Y239398D01*
X107948D01*
Y240248D01*
X96482D01*
X96343Y240387D01*
G03X96002Y240246I-141J-141D01*
G01Y240148D01*
X89398D01*
Y243352D01*
X96002D01*
Y243002D01*
X97268D01*
X97518Y242752D01*
X107948D01*
Y243602D01*
X111952D01*
Y243102D01*
X114048D01*
Y243602D01*
X118052D01*
Y242752D01*
X131018D01*
X160252Y213518D01*
Y210852D01*
X160602D01*
G37*
G36*
G01X128518Y205252D02*
X131752Y202018D01*
Y196552D01*
X132602D01*
Y195802D01*
X135898D01*
Y196552D01*
X140102D01*
Y195802D01*
X141368D01*
X146752Y190418D01*
Y181552D01*
X147602D01*
Y180802D01*
X150968D01*
X155252Y176518D01*
Y175252D01*
X155602D01*
Y165148D01*
X152398D01*
Y175252D01*
X152496D01*
G03X152637Y175593I0J200D01*
G01X149932Y178298D01*
X147602D01*
Y177548D01*
X147102D01*
Y175452D01*
X147602D01*
Y171448D01*
X143398D01*
Y175452D01*
X143898D01*
Y177548D01*
X143398D01*
Y181552D01*
X144248D01*
Y189382D01*
X140784Y192846D01*
G03X140102Y192563I-282J-283D01*
G01Y192548D01*
X139602D01*
Y190452D01*
X140102D01*
Y186448D01*
X135898D01*
Y190452D01*
X136398D01*
Y192548D01*
X135898D01*
Y193298D01*
X132602D01*
Y192548D01*
X132102D01*
Y190452D01*
X132602D01*
Y186448D01*
X128398D01*
Y190452D01*
X128898D01*
Y192548D01*
X128398D01*
Y196552D01*
X129248D01*
Y200982D01*
X127482Y202748D01*
X123518D01*
X121752Y200982D01*
Y200602D01*
X122052D01*
Y191798D01*
X118948D01*
Y200602D01*
X119248D01*
Y202018D01*
X124748Y207518D01*
Y213502D01*
X118018D01*
Y222498D01*
X133982D01*
Y213502D01*
X127252D01*
Y206482D01*
X126704Y205934D01*
G03X126987Y205252I283J-282D01*
G01X128518D01*
G37*
G36*
G01X114452Y164898D02*
Y164398D01*
X110448D01*
Y168602D01*
X111198D01*
Y169182D01*
X109248Y171132D01*
Y172398D01*
X108948D01*
Y181202D01*
X112052D01*
Y172398D01*
X112004D01*
G03X111863Y172057I0J-200D01*
G01X113702Y170218D01*
Y168602D01*
X114452D01*
Y168102D01*
X116548D01*
Y168602D01*
X117298D01*
Y169868D01*
X119248Y171818D01*
Y172398D01*
X118948D01*
Y181202D01*
X122052D01*
Y172398D01*
X121752D01*
Y170782D01*
X120254Y169284D01*
G03X120537Y168602I283J-282D01*
G01X120552D01*
Y164398D01*
X116548D01*
Y164898D01*
X114452D01*
G37*
G36*
G01X185452Y156398D02*
Y155898D01*
X181448D01*
Y160102D01*
X182198D01*
Y161368D01*
X182748Y161918D01*
Y165148D01*
X182398D01*
Y175252D01*
X185602D01*
Y165148D01*
X185252D01*
Y160882D01*
X185154Y160784D01*
G03X185437Y160102I283J-282D01*
G01X185452D01*
Y159602D01*
X187548D01*
Y160102D01*
X187563D01*
G03X187846Y160784I0J400D01*
G01X187748Y160882D01*
Y165148D01*
X187398D01*
Y175252D01*
X190602D01*
Y165148D01*
X190252D01*
Y161918D01*
X190802Y161368D01*
Y160102D01*
X191552D01*
Y155898D01*
X187548D01*
Y156398D01*
X185452D01*
G37*
G36*
G01X138602Y126952D02*
Y122948D01*
X134398D01*
Y126952D01*
X134898D01*
Y129048D01*
X134398D01*
Y133052D01*
X135248D01*
Y134318D01*
X137682Y136752D01*
X141798D01*
Y136902D01*
X147848D01*
Y137952D01*
X150152D01*
Y136902D01*
X156202D01*
Y136752D01*
X158482D01*
X160248Y138518D01*
Y142948D01*
X159398D01*
Y146952D01*
X159898D01*
Y149048D01*
X159398D01*
Y153052D01*
X160248D01*
Y156018D01*
X167748Y163518D01*
Y165148D01*
X167398D01*
Y175252D01*
X170602D01*
Y165148D01*
X170252D01*
Y162482D01*
X162752Y154982D01*
Y153052D01*
X163602D01*
Y149048D01*
X163102D01*
Y146952D01*
X163602D01*
Y142948D01*
X162752D01*
Y137482D01*
X162704Y137434D01*
G03X162987Y136752I283J-282D01*
G01X165982D01*
X167748Y138518D01*
Y142948D01*
X166898D01*
Y146952D01*
X167398D01*
Y149048D01*
X166898D01*
Y153052D01*
X167748D01*
Y156018D01*
X172748Y161018D01*
Y165148D01*
X172398D01*
Y175252D01*
X175602D01*
Y165148D01*
X175252D01*
Y159982D01*
X170252Y154982D01*
Y153052D01*
X171102D01*
Y149048D01*
X170602D01*
Y146952D01*
X171102D01*
Y142948D01*
X170252D01*
Y137482D01*
X170204Y137434D01*
G03X170487Y136752I283J-282D01*
G01X173482D01*
X175248Y138518D01*
Y142948D01*
X174398D01*
Y146952D01*
X174898D01*
Y149048D01*
X174398D01*
Y153052D01*
X175248D01*
Y158518D01*
X177748Y161018D01*
Y165148D01*
X177398D01*
Y175252D01*
X180602D01*
Y165148D01*
X180252D01*
Y159982D01*
X177752Y157482D01*
Y153052D01*
X178602D01*
Y149048D01*
X178102D01*
Y146952D01*
X178602D01*
Y142948D01*
X177752D01*
Y137482D01*
X174518Y134248D01*
X156202D01*
Y134098D01*
X150152D01*
Y133048D01*
X147848D01*
Y134098D01*
X141798D01*
Y134248D01*
X138718D01*
X138204Y133734D01*
G03X138487Y133052I283J-282D01*
G01X138602D01*
Y129048D01*
X138102D01*
Y126952D01*
X138602D01*
G37*
G36*
G01X242752Y103518D02*
X244518Y101752D01*
X245048D01*
Y101902D01*
X250852D01*
Y99098D01*
X245048D01*
Y99248D01*
X243482D01*
X240248Y102482D01*
Y104347D01*
G02X242752I1252J1153D01*
G01Y103518D01*
G37*
G36*
G01X200252D02*
X202018Y101752D01*
X202548D01*
Y101902D01*
X208352D01*
Y99098D01*
X202548D01*
Y99248D01*
X200982D01*
X197748Y102482D01*
Y104347D01*
G02X200252I1252J1153D01*
G01Y103518D01*
G37*
G36*
G01X157752D02*
X159518Y101752D01*
X160048D01*
Y101902D01*
X165852D01*
Y99098D01*
X160048D01*
Y99248D01*
X158482D01*
X155248Y102482D01*
Y104347D01*
G02X157752I1252J1153D01*
G01Y103518D01*
G37*
G36*
G01X123352Y101902D02*
Y99098D01*
X117548D01*
Y99248D01*
X115982D01*
X112748Y102482D01*
Y104347D01*
G02X115252I1252J1153D01*
G01Y103518D01*
X117018Y101752D01*
X117548D01*
Y101902D01*
X123352D01*
G37*
G36*
G01X253002Y292638D02*
X246198D01*
Y295842D01*
X251232D01*
X257748Y302358D01*
Y302948D01*
X256898D01*
Y306952D01*
X257398D01*
Y309048D01*
X256898D01*
Y313052D01*
X257748D01*
Y317532D01*
X257732Y317548D01*
Y319248D01*
X256832Y320148D01*
X251998D01*
Y323352D01*
X258602D01*
Y321918D01*
X260236Y320284D01*
Y319159D01*
G03X260918Y318876I400J0D01*
G01X261294Y319252D01*
X263948D01*
Y320102D01*
X267952D01*
Y319602D01*
X270048D01*
Y320102D01*
X274052D01*
Y315898D01*
X270048D01*
Y316398D01*
X267952D01*
Y315898D01*
X263948D01*
Y316748D01*
X262330D01*
X260252Y314670D01*
Y313052D01*
X261102D01*
Y309048D01*
X260602D01*
Y306952D01*
X261102D01*
Y302948D01*
X260252D01*
Y301322D01*
X255454Y296524D01*
G03X255737Y295842I283J-282D01*
G01X261802D01*
Y292638D01*
X254998D01*
Y295103D01*
G03X254316Y295386I-400J0D01*
G01X253002Y294072D01*
Y292638D01*
G37*
G36*
G01X82751Y305784D02*
G02X80248I-1251J-2784D01*
G01Y315448D01*
X79398D01*
Y319452D01*
X79898D01*
Y321548D01*
X79398D01*
Y325552D01*
X80248D01*
Y356018D01*
X100982Y376752D01*
X271614D01*
X281846Y366520D01*
Y365254D01*
X285248D01*
Y366847D01*
G02X287752I1252J1153D01*
G01Y365254D01*
X291154D01*
Y369076D01*
X290248Y369982D01*
Y371847D01*
G02X292752I1252J1153D01*
G01Y371018D01*
X293658Y370112D01*
Y365254D01*
X301175D01*
Y350470D01*
X300062D01*
Y346914D01*
X301738Y345238D01*
G02X299262Y342762I-1238J-1238D01*
G01X298311Y343712D01*
X296847Y342248D01*
X295500D01*
G02X293772Y344284I0J1751D01*
G03X293377Y344748I-395J64D01*
G01X290500D01*
G02Y348252I0J1752D01*
G01X294864D01*
X296560Y349947D01*
Y350470D01*
X287752D01*
Y330552D01*
X288602D01*
Y326548D01*
X288102D01*
Y324452D01*
X288602D01*
Y320448D01*
X284398D01*
Y324452D01*
X284898D01*
Y326548D01*
X284398D01*
Y330552D01*
X285248D01*
Y350470D01*
X275940D01*
Y342671D01*
X272518Y339248D01*
X175982D01*
X168438Y346793D01*
Y350470D01*
X166825D01*
Y365254D01*
X167013D01*
G03X167295Y365937I-1J400D01*
G01X166484Y366748D01*
X104518D01*
X92752Y354982D01*
Y325552D01*
X93602D01*
Y321548D01*
X93102D01*
Y319452D01*
X93602D01*
Y315448D01*
X92751D01*
Y305784D01*
G02X90248I-1252J-2784D01*
G01Y315448D01*
X89398D01*
Y319452D01*
X89898D01*
Y321548D01*
X89398D01*
Y325552D01*
X90248D01*
Y356018D01*
X103482Y369252D01*
X167520D01*
X170940Y365831D01*
Y365254D01*
X172013D01*
G03X172295Y365937I-1J400D01*
G01X163984Y374248D01*
X102018D01*
X82752Y354982D01*
Y325552D01*
X83602D01*
Y321548D01*
X83102D01*
Y319452D01*
X83602D01*
Y315448D01*
X82751D01*
Y305784D01*
G37*
G36*
G01X185252Y43581D02*
G02X182748I-1252J-15581D01*
G01Y52482D01*
X178482Y56748D01*
X158482D01*
X152748Y62482D01*
Y87482D01*
X152732Y87498D01*
X115998D01*
Y87746D01*
G03X115657Y87887I-200J0D01*
G01X112752Y84982D01*
Y78052D01*
X113602D01*
Y74048D01*
X113102D01*
Y71952D01*
X113602D01*
Y67948D01*
X109398D01*
Y71952D01*
X109898D01*
Y74048D01*
X109398D01*
Y78052D01*
X110248D01*
Y86018D01*
X115615Y91385D01*
G02X115895Y91596I886J-884D01*
G01X115998Y91653D01*
Y93502D01*
X254502D01*
Y87498D01*
X240252D01*
Y77482D01*
X240204Y77434D01*
G03X240487Y76752I283J-282D01*
G01X256448D01*
Y77602D01*
X260452D01*
Y77102D01*
X262548D01*
Y77602D01*
X266552D01*
Y76752D01*
X278482D01*
X280248Y78518D01*
Y87482D01*
X278482Y89248D01*
X277952D01*
Y89098D01*
X272148D01*
Y91902D01*
X277952D01*
Y91752D01*
X279518D01*
X282752Y88518D01*
Y77482D01*
X282704Y77434D01*
G03X282987Y76752I283J-282D01*
G01X288948D01*
Y77602D01*
X292952D01*
Y77102D01*
X295048D01*
Y77602D01*
X295798D01*
Y106932D01*
X288482Y114248D01*
X228482D01*
X211432Y131298D01*
X211359Y131304D01*
G02X213196Y133141I141J1696D01*
G01X213202Y133068D01*
X229518Y116752D01*
X289518D01*
X298302Y107968D01*
Y77602D01*
X299052D01*
Y73398D01*
X298302D01*
Y72132D01*
X283418Y57248D01*
X242518D01*
X237752Y52482D01*
Y43581D01*
G02X235248I-1252J-15581D01*
G01Y53518D01*
X241482Y59752D01*
X282382D01*
X295346Y72716D01*
G03X295063Y73398I-283J282D01*
G01X295048D01*
Y73898D01*
X292952D01*
Y73398D01*
X288948D01*
Y74248D01*
X266552D01*
Y73398D01*
X262548D01*
Y73898D01*
X260452D01*
Y73398D01*
X256448D01*
Y74248D01*
X224052D01*
Y73398D01*
X220048D01*
Y73898D01*
X217952D01*
Y73398D01*
X213948D01*
Y74248D01*
X181552D01*
Y73398D01*
X177548D01*
Y73898D01*
X175452D01*
Y73398D01*
X171448D01*
Y74248D01*
X159518D01*
X155252Y69982D01*
Y63518D01*
X159518Y59252D01*
X179518D01*
X185252Y53518D01*
Y43581D01*
G37*
G36*
G01X105102Y40452D02*
Y36448D01*
X100898D01*
Y40452D01*
X101398D01*
Y42548D01*
X100898D01*
Y46552D01*
X105102D01*
Y42548D01*
X104602D01*
Y40452D01*
X105102D01*
G37*
G54D57*
X154000Y205800D03*
X164000D03*
X174000D03*
X204000Y170200D03*
G54D51*
X31500Y273000D03*
X71500D03*
X91500D03*
X81500D03*
X31500Y303000D03*
G54D50*
X40500Y236500D03*
G54D56*
X146500Y350500D03*
X136500D03*
X126500D03*
X116500Y410500D03*
X146500D03*
X156500D03*
G54D49*
X21500Y273000D03*
G54D48*
X110950Y33700D03*
X120000D03*
G54D55*
X123000Y310300D03*
X65500Y401700D03*
X132750Y436800D03*
X282750D03*
G54D54*
X100300Y238000D03*
X247700Y325500D03*
G54D53*
X70500Y174300D03*
X65500D03*
Y193700D03*
X70500D03*
X80500Y174300D03*
X75500Y193700D03*
X80500D03*
X115500Y176800D03*
X105500D03*
X115500Y196200D03*
X105500D03*
X110500D03*
G54D45*
X38000Y104000D03*
G54D52*
X68000Y96800D03*
X83000D03*
Y116200D03*
X68000D03*
G54D58*
X147550Y100500D03*
X190050D03*
X232550D03*
X275050D03*
%LPD*%
G75*
G36*
G01X192952Y89248D02*
X193482D01*
X194047Y88683D01*
G02X193765Y88000I-283J-283D01*
G01X155252D01*
Y88518D01*
X152018Y91752D01*
X150452D01*
Y91902D01*
X144648D01*
Y89098D01*
X150452D01*
Y89248D01*
X150982D01*
X151547Y88683D01*
G02X151265Y88000I-283J-283D01*
G01X116500D01*
Y93000D01*
X254000D01*
Y88000D01*
X240252D01*
Y88518D01*
X237018Y91752D01*
X235452D01*
Y91902D01*
X229648D01*
Y89098D01*
X235452D01*
Y89248D01*
X235982D01*
X236547Y88683D01*
G02X236265Y88000I-283J-283D01*
G01X197752D01*
Y88518D01*
X194518Y91752D01*
X192952D01*
Y91902D01*
X187148D01*
Y89098D01*
X192952D01*
Y89248D01*
G37*
G36*
G01X155252Y74487D02*
Y87498D01*
X195232D01*
X195248Y87482D01*
Y78518D01*
X193482Y76752D01*
X181552D01*
Y77602D01*
X177548D01*
Y77102D01*
X175452D01*
Y77602D01*
X171448D01*
Y76752D01*
X158482D01*
X155934Y74204D01*
G02X155252Y74487I-282J283D01*
G37*
G36*
G01X176518Y365254D02*
X168206Y373566D01*
G02X168489Y374248I283J282D01*
G01X184577D01*
G02X184943Y373687I0J-400D01*
G03X185248Y371847I1557J-687D01*
G01Y369982D01*
X186154Y369076D01*
Y365254D01*
X182752D01*
Y366847D01*
G03X180248I-1252J1153D01*
G01Y365254D01*
X176518D01*
G37*
G36*
G01X192060Y349204D02*
X192748Y348515D01*
Y346653D01*
G03X195252I1252J-1153D01*
G01Y349551D01*
X195016Y349787D01*
G02X195298Y350470I283J283D01*
G01X196175D01*
Y365254D01*
X188658D01*
Y370112D01*
X187752Y371018D01*
Y371847D01*
G03X188057Y373687I-1252J1153D01*
G02X188423Y374248I366J161D01*
G01X199482D01*
X207793Y365937D01*
G02X207511Y365254I-283J-283D01*
G01X201825D01*
Y350470D01*
X203438D01*
Y349207D01*
X195982Y341752D01*
X177018D01*
X170940Y347829D01*
Y350470D01*
X192060D01*
Y349204D01*
G37*
G36*
G01X197704Y77434D02*
X197752Y77482D01*
Y87498D01*
X237732D01*
X237748Y87482D01*
Y78518D01*
X235982Y76752D01*
X224052D01*
Y77602D01*
X220048D01*
Y77102D01*
X217952D01*
Y77602D01*
X213948D01*
Y76752D01*
X197987D01*
G02X197704Y77434I0J400D01*
G37*
G36*
G01X227060Y349204D02*
X227748Y348515D01*
Y346653D01*
G03X230252I1252J-1153D01*
G01Y349551D01*
X230016Y349787D01*
G02X230298Y350470I283J283D01*
G01X231175D01*
Y365254D01*
X223658D01*
Y370112D01*
X222752Y371018D01*
Y371847D01*
G03X223057Y373687I-1252J1153D01*
G02X223423Y374248I366J161D01*
G01X235578D01*
X243889Y365937D01*
G02X243607Y365254I-283J-283D01*
G01X236825D01*
Y350470D01*
X238438D01*
Y348757D01*
X231432Y341752D01*
X200487D01*
G02X200204Y342434I0J400D01*
G01X205940Y348171D01*
Y350470D01*
X227060D01*
Y349204D01*
G37*
G36*
G01X215248Y366847D02*
Y365254D01*
X211846D01*
Y365424D01*
X203704Y373566D01*
G02X203987Y374248I283J282D01*
G01X219577D01*
G02X219943Y373687I0J-400D01*
G03X220248Y371847I1557J-687D01*
G01Y369982D01*
X221154Y369076D01*
Y365254D01*
X217752D01*
Y366847D01*
G03X215248I-1252J1153D01*
G37*
G36*
G01X232500Y282000D02*
Y295500D01*
X243000D01*
X244500Y294000D01*
Y292500D01*
X246000Y291000D01*
X253500D01*
Y282000D01*
X243102D01*
Y284048D01*
X243602D01*
Y288052D01*
X239398D01*
Y284048D01*
X239898D01*
Y282000D01*
X232500D01*
G37*
G36*
G01X235654Y342434D02*
X240940Y347721D01*
Y350470D01*
X261560D01*
Y344311D01*
G03X265062I1751J0D01*
G01Y344748D01*
X268000D01*
G03Y348252I0J1752D01*
G01X266536D01*
X265062Y349725D01*
Y350470D01*
X266175D01*
Y365254D01*
X258658D01*
Y370112D01*
X257752Y371018D01*
Y371847D01*
G03X258057Y373687I-1252J1153D01*
G02X258423Y374248I366J161D01*
G01X270578D01*
X278889Y365937D01*
G02X278607Y365254I-283J-283D01*
G01X271825D01*
Y350470D01*
X273438D01*
Y343707D01*
X271482Y341752D01*
X235937D01*
G02X235654Y342434I0J400D01*
G37*
G36*
G01X250248Y366847D02*
Y365254D01*
X246846D01*
Y366520D01*
X239800Y373566D01*
G02X240083Y374248I283J282D01*
G01X254577D01*
G02X254943Y373687I0J-400D01*
G03X255248Y371847I1557J-687D01*
G01Y369982D01*
X256154Y369076D01*
Y365254D01*
X252752D01*
Y366847D01*
G03X250248I-1252J1153D01*
G37*
%LPC*%
G75*
G54D59*
X249600Y286760D03*
G54D58*
X120450Y90500D03*
X162950D03*
X205450D03*
X247950D03*
%LPD*%
G75*
G54D10*
X4227Y51092D03*
Y73924D03*
G54D11*
Y48727D03*
Y76286D03*
G54D20*
X13000Y300950D03*
Y307050D03*
X17500Y416950D03*
Y423050D03*
X41500Y323550D03*
Y317450D03*
X31500Y323550D03*
Y317450D03*
X56500Y8450D03*
Y14550D03*
X70500Y78450D03*
Y84550D03*
X58000Y109550D03*
Y103450D03*
X55500Y244550D03*
Y238450D03*
X51500Y323550D03*
Y317450D03*
X61500Y323550D03*
Y317450D03*
X71500Y323550D03*
Y317450D03*
X78000Y78450D03*
Y84550D03*
X93000Y103450D03*
Y109550D03*
X95500Y190950D03*
Y197050D03*
X83000Y225950D03*
Y232050D03*
X81500Y323550D03*
Y317450D03*
X91500Y323550D03*
Y317450D03*
X103000Y38450D03*
Y44550D03*
X111500Y69950D03*
Y76050D03*
X120500Y289550D03*
Y283450D03*
X136500Y124950D03*
Y131050D03*
X145500Y173450D03*
Y179550D03*
X138000Y194550D03*
Y188450D03*
X130500Y194550D03*
Y188450D03*
X143000Y289550D03*
Y283450D03*
X145500Y323450D03*
Y329550D03*
X169000Y151050D03*
Y144950D03*
X161500Y151050D03*
Y144950D03*
X156500Y322450D03*
Y328550D03*
X176500Y151050D03*
Y144950D03*
X184000Y299950D03*
X194000Y322450D03*
X184000Y306050D03*
X194000Y328550D03*
X204000Y129950D03*
Y152450D03*
Y158550D03*
Y136050D03*
X241500Y279950D03*
Y286050D03*
X221500Y299950D03*
X229000Y322450D03*
X221500Y306050D03*
X229000Y328550D03*
X256500Y127450D03*
Y133550D03*
X259000Y311050D03*
Y304950D03*
X271500Y127450D03*
Y133550D03*
X281500Y127450D03*
Y133550D03*
X269000Y298550D03*
Y292450D03*
Y279950D03*
Y286050D03*
X286500Y322450D03*
Y328550D03*
X310000Y36950D03*
Y43050D03*
X299000Y127450D03*
Y133550D03*
X315000Y216950D03*
Y223050D03*
G54D12*
X4227Y58569D03*
Y66443D03*
G54D30*
X83000Y210750D03*
Y217250D03*
X256500Y148750D03*
Y142250D03*
X281500Y148750D03*
Y142250D03*
X271500Y148750D03*
Y142250D03*
X299000Y148750D03*
Y142250D03*
G54D21*
X10500Y399000D03*
X38000Y104000D03*
X275500Y13000D03*
G54D13*
X17500Y17500D03*
Y440000D03*
X310000Y17500D03*
Y242500D03*
G54D40*
X249600Y286760D03*
Y294240D03*
X258400D03*
Y290500D03*
Y286760D03*
G54D31*
X92700Y234250D03*
Y241750D03*
X100300Y238000D03*
X170200Y325500D03*
X177800Y321750D03*
Y329250D03*
X207700Y325500D03*
X215300Y321750D03*
Y329250D03*
X247700Y325500D03*
X255300Y321750D03*
Y329250D03*
G54D22*
X35550Y32500D03*
X29450D03*
X58550Y89000D03*
X52450D03*
X59950Y126500D03*
X66050D03*
X72450D03*
X59950Y134000D03*
X66050D03*
X71050Y164000D03*
X64950D03*
X62450Y420500D03*
X68550D03*
X78550Y126500D03*
X82450Y151500D03*
X88550D03*
X119950Y41500D03*
X118550Y166500D03*
X112450D03*
X109950Y241500D03*
X116050D03*
X119950Y326500D03*
X126050Y41500D03*
Y326500D03*
X148450Y440500D03*
X154550D03*
X179550Y75500D03*
X173450D03*
X193450Y143000D03*
X183450Y158000D03*
X189550D03*
Y313000D03*
X183450D03*
X193450Y440500D03*
X215950Y75500D03*
X199550Y143000D03*
Y440500D03*
X222050Y75500D03*
X227050Y313000D03*
X220950D03*
X228450Y440500D03*
X234550D03*
X264550Y75500D03*
X258450D03*
X265950Y318000D03*
X263450Y440500D03*
X272050Y318000D03*
X269550Y440500D03*
X297050Y75500D03*
X290950D03*
X298450Y440500D03*
X304550D03*
G54D41*
G01X14857Y67624D02*
X24131D01*
Y67500D01*
X38507Y53124D01*
G54D23*
X50000Y173500D03*
X77000Y9500D03*
X126000Y218000D03*
G54D32*
X120000Y8900D03*
G54D14*
X5000Y5000D03*
X17500D03*
X5000Y37500D03*
Y17500D03*
X17500Y30000D03*
X20000Y60000D03*
Y52500D03*
X25000Y55000D03*
Y60000D03*
X13500Y126000D03*
X7500Y136500D03*
X13500Y145500D03*
X22500Y289500D03*
X20000Y412500D03*
X15000D03*
X5000Y422500D03*
X17500Y427500D03*
X5000Y440000D03*
Y452500D03*
X17500D03*
X30000Y5000D03*
X40000Y30000D03*
Y35000D03*
X30000Y37500D03*
Y17500D03*
X36000Y231000D03*
X41500Y313000D03*
X32500Y422500D03*
X30000Y440000D03*
X32500Y452500D03*
X61500Y7500D03*
X70500Y73500D03*
X73500Y199500D03*
X51500Y330000D03*
X61500D03*
X71500D03*
X72000Y399000D03*
X67500Y396000D03*
X85500Y56500D03*
X78000Y73500D03*
X93000Y156000D03*
Y165000D03*
X97500Y270000D03*
X115500Y69000D03*
X106500D03*
X114000Y105500D03*
X102000Y184500D03*
X115500Y204000D03*
X106500Y235500D03*
X121500Y316500D03*
X115500Y313500D03*
X109500Y445500D03*
X120500Y429000D03*
X103000D03*
X105500Y434000D03*
Y439000D03*
X129000Y25500D03*
X132000Y46500D03*
X139500Y121500D03*
X133500D03*
X139500Y169500D03*
X135000Y184500D03*
X124500D03*
X130500Y289500D03*
X135000Y381000D03*
X125500Y436500D03*
X163000Y81500D03*
X156500Y105500D03*
X168000Y270000D03*
X166500Y319500D03*
X160500Y447000D03*
X148000Y426500D03*
X163000D03*
X155500Y434000D03*
X170500Y436500D03*
X194000Y135500D03*
X192000Y301500D03*
X184000Y293000D03*
X195000Y316500D03*
X194000Y345500D03*
Y335500D03*
X181500Y368000D03*
X186500Y373000D03*
X191500Y390500D03*
X189000Y418000D03*
X181500Y447000D03*
X173000Y439000D03*
X205500Y81500D03*
X199000Y105500D03*
X211500Y133000D03*
X208000Y146500D03*
X219000Y178000D03*
X216500Y185500D03*
X219000Y225500D03*
X214000Y235500D03*
X208500Y279000D03*
X216500Y368000D03*
X210500Y381500D03*
X195500Y436500D03*
X205500D03*
X208000Y439000D03*
X241500Y105500D03*
X228000Y233500D03*
X241500Y274500D03*
X221500Y293000D03*
X241000D03*
X229000Y345500D03*
Y335500D03*
X221500Y373000D03*
X226500Y390500D03*
X224000Y418000D03*
X220500Y445500D03*
X230500Y436500D03*
X240500D03*
X243000Y439000D03*
X248000Y81500D03*
X250500Y127500D03*
X249000Y133500D03*
X256500Y155500D03*
X244000Y233000D03*
X246500Y238000D03*
X263311Y344311D03*
X251500Y368000D03*
X256500Y373000D03*
X261500Y390500D03*
X259000Y418000D03*
X291000Y129000D03*
X276000Y127500D03*
X271500Y155500D03*
X281500D03*
X274000Y228000D03*
X279000Y235500D03*
X290000Y240000D03*
X268500Y274500D03*
Y303000D03*
X279000Y280500D03*
Y288000D03*
X286500Y318000D03*
X291000Y327000D03*
X273000Y322500D03*
X290500Y346500D03*
X268000D03*
X286500Y368000D03*
X280500Y426500D03*
X273000Y434000D03*
X278000Y439000D03*
X310000Y5000D03*
X297500D03*
Y17500D03*
X310000Y30000D03*
X297500Y37500D03*
X312500Y47500D03*
X307500D03*
X309000Y127500D03*
X299000Y155500D03*
X312500Y212500D03*
X305000Y222500D03*
X310000Y230000D03*
X300000Y252500D03*
X297500Y242500D03*
X310000Y255000D03*
X292500Y318000D03*
Y322500D03*
X297000Y319500D03*
X300500Y344000D03*
X295500D03*
X291500Y373000D03*
X296500Y390500D03*
X294000Y418000D03*
X322500Y5000D03*
Y17500D03*
Y37500D03*
X317500Y212500D03*
X322500Y222500D03*
Y255000D03*
Y242500D03*
X323000Y274000D03*
G54D42*
G01X14000Y93500D02*
X20000D01*
X25500Y88000D01*
G01X61750Y409300D02*
Y372750D01*
X18000Y329000D01*
Y316500D01*
X25500Y309000D01*
Y299000D01*
X33000Y291500D01*
X43000D01*
X61500Y273000D01*
G01X21500Y303000D02*
X17450Y307050D01*
G01D02*
X13000D01*
G01X126500Y410500D02*
X120000Y404000D01*
X100500D01*
X23000Y326500D01*
Y316500D01*
X30500Y309000D01*
X33000D01*
X37600Y304400D01*
Y298400D01*
X42000Y294000D01*
X103000D01*
X108000Y299000D01*
Y321500D01*
X113000Y326500D01*
X119950D01*
G01X50000Y173500D02*
Y180000D01*
X52000Y182000D01*
X72950D01*
X75500Y179450D01*
Y174300D01*
G01X40500Y246500D02*
X50700D01*
X52650Y244550D01*
X55500D01*
G01X41500Y273000D02*
Y251750D01*
X40500Y250750D01*
Y246500D01*
G01X31500Y317450D02*
Y313000D01*
X33000Y311500D01*
X38000D01*
X41500Y308000D01*
Y303000D01*
G01Y313000D02*
Y317450D01*
G01Y323550D02*
Y328000D01*
X99000Y385500D01*
X166096D01*
G01X169689Y403138D02*
X169000Y402449D01*
Y394500D01*
X167500Y393000D01*
X98200D01*
X31500Y326300D01*
Y323550D01*
G01X56750Y22000D02*
Y17550D01*
X56500Y17300D01*
Y14550D01*
G01X81000Y21500D02*
X80500Y22000D01*
X63250D01*
G01X70500Y84550D02*
X62900D01*
X58550Y88900D01*
Y89000D01*
G01X73000Y96800D02*
Y89800D01*
X70500Y87300D01*
Y84550D01*
G01X58000Y109550D02*
X60850D01*
X61400Y109000D01*
X70950D01*
X73000Y111050D01*
G01X93000Y109550D02*
X90150D01*
X89600Y109000D01*
X75050D01*
X73000Y111050D01*
G01X58550Y89000D02*
Y100150D01*
X58000Y100700D01*
Y103450D01*
G01X73000Y116200D02*
Y119600D01*
X74900Y121500D01*
X76400D01*
X78550Y123650D01*
Y126500D01*
G01X73000Y116200D02*
Y111050D01*
G01X68000Y121350D02*
Y116200D01*
G01X66050Y126500D02*
Y123300D01*
G01Y134000D02*
Y126500D01*
G01X68000Y121350D02*
X70150D01*
X72450Y123650D01*
G01X66050Y123300D02*
X68000Y121350D01*
G01X72450Y123650D02*
Y126500D01*
G01X75500Y165700D02*
X73800Y164000D01*
X71050D01*
G01X51500Y303000D02*
Y317450D01*
G01X61500Y303000D02*
Y317450D01*
G01X71500Y303000D02*
Y317450D01*
G01X51500Y323550D02*
Y330000D01*
G01X61500Y323550D02*
Y330000D01*
G01X71500Y323550D02*
Y330000D01*
G01X69250Y409300D02*
Y413350D01*
X67600Y415000D01*
X64500D01*
X62450Y417050D01*
Y420500D01*
G01X68550D02*
X102000D01*
X134500Y453000D01*
X176500D01*
G01X77000Y9500D02*
Y17500D01*
X81000Y21500D01*
G01D02*
X84000D01*
X88000Y25500D01*
Y34000D01*
G01X78000Y84550D02*
Y91500D01*
G01Y96800D02*
Y91500D01*
G01D02*
X80500Y89000D01*
X90500D01*
X93000Y91500D01*
Y103450D01*
G01X78550Y126500D02*
X88000D01*
X113000Y151500D01*
X150500D01*
X161550Y162550D01*
Y175310D01*
X184000Y197760D01*
Y205800D01*
G01X81950Y161500D02*
Y154850D01*
X82450Y154350D01*
Y151500D01*
G01X159000Y170200D02*
Y163800D01*
X156700Y161500D01*
X108000D01*
X93000Y146500D01*
X84600D01*
X82450Y148650D01*
Y151500D01*
G01X75500Y174300D02*
Y165700D01*
G01X81950Y161500D02*
Y162550D01*
X79066Y165434D01*
X75766D01*
X75500Y165700D01*
G01X95500Y201500D02*
Y197050D01*
G01X105500Y201500D02*
X103000Y204000D01*
X98000D01*
X95500Y201500D01*
G01X83000Y225950D02*
Y217250D01*
G01X109950Y241500D02*
X97000D01*
X96750Y241750D01*
X92700D01*
G01Y234250D02*
X88050D01*
X85850Y232050D01*
X83000D01*
G01X81500Y303000D02*
Y317450D01*
G01X91500Y303000D02*
Y317450D01*
G01X81500Y323550D02*
Y355500D01*
X101500Y375500D01*
X164502D01*
G01X169689Y357862D02*
Y365313D01*
X167002Y368000D01*
X104000D01*
X91500Y355500D01*
Y323550D01*
G01X116500Y90500D02*
X111500Y85500D01*
Y76050D01*
G01X120450Y100500D02*
X116500D01*
X114000Y103000D01*
Y105500D01*
G01X120450Y90500D02*
X116500D01*
G01X112450Y166500D02*
Y169700D01*
X110500Y171650D01*
Y176800D01*
G01X120500D02*
Y171300D01*
X118550Y169350D01*
Y166500D01*
G01X105500Y196200D02*
Y201500D01*
G01X123000Y204000D02*
X120500Y201500D01*
Y196200D01*
G01X116050Y241500D02*
X130500D01*
X159000Y213000D01*
Y205800D01*
G01X133000Y274000D02*
X130500Y276500D01*
X123000D01*
X120500Y279000D01*
Y283450D01*
G01Y289550D02*
Y297400D01*
X119250Y298650D01*
Y302700D01*
G01X116500Y350500D02*
Y340500D01*
X120500Y336500D01*
X143000D01*
X145500Y334000D01*
Y329550D01*
G01X136500Y131050D02*
Y133800D01*
X138200Y135500D01*
X144975D01*
G01X145500Y179550D02*
Y189900D01*
X140850Y194550D01*
X138000D01*
G01X154000Y170200D02*
Y176000D01*
X150450Y179550D01*
X145500D01*
G01X130500Y194550D02*
X138000D01*
G01X130500D02*
Y201500D01*
X128000Y204000D01*
X123000D01*
G01X126000Y218000D02*
Y207000D01*
X123000Y204000D01*
G01X133000Y274000D02*
X135500Y276500D01*
X140500D01*
X143000Y279000D01*
Y283450D01*
G01X179000Y205800D02*
Y223000D01*
X133000Y269000D01*
Y274000D01*
G01X204000Y179900D02*
X191450Y192450D01*
Y265550D01*
X175500Y281500D01*
X160500D01*
X145500Y296500D01*
Y310300D01*
G01X143000Y289550D02*
Y297400D01*
X141750Y298650D01*
Y302700D01*
G01X145500Y323450D02*
Y319000D01*
X149250Y315250D01*
Y302700D01*
G01X126750D02*
Y322950D01*
X126050Y323650D01*
Y326500D01*
G01X136500Y429200D02*
Y410500D01*
G01X148450Y440500D02*
X143950D01*
X143934Y440484D01*
X142234D01*
X140250Y438500D01*
Y436800D01*
G01X154000Y70500D02*
Y63000D01*
X159000Y58000D01*
X179000D01*
X184000Y53000D01*
Y28000D01*
G01X173450Y75500D02*
X159000D01*
X154000Y70500D01*
G01D02*
Y88000D01*
X151500Y90500D01*
X147550D01*
G01X162950Y100500D02*
X159000D01*
X156500Y103000D01*
Y105500D01*
G01X161500Y151050D02*
Y155500D01*
X169000Y163000D01*
Y170200D01*
G01Y151050D02*
Y155500D01*
X174000Y160500D01*
Y170200D01*
G01X153025Y135500D02*
X159000D01*
G01X166500D02*
X174000D01*
X176500Y138000D01*
Y144950D01*
G01X166500Y135500D02*
X169000Y138000D01*
Y144950D01*
G01X159000Y135500D02*
X166500D01*
G01X159000D02*
X161500Y138000D01*
Y144950D01*
G01X156500Y322450D02*
X160950D01*
X167750Y329250D01*
X177800D01*
G01X156500Y328550D02*
Y350500D01*
G01X196500Y340500D02*
X176500D01*
X169689Y347311D01*
Y357862D01*
G01X164502Y375500D02*
X175594Y364408D01*
Y357862D01*
G01X166096Y385500D02*
X175594Y394998D01*
Y403138D01*
G01X166096Y385500D02*
X201096D01*
G01X200000Y375500D02*
X164502D01*
G01X199000Y433000D02*
X191500D01*
G01X171500D02*
X169689Y431189D01*
Y403138D01*
G01X176500Y453000D02*
X164000Y440500D01*
X154550D01*
G01X194000Y75500D02*
X196500Y78000D01*
Y88000D01*
X194000Y90500D01*
X190050D01*
G01X194000Y75500D02*
X179550D01*
G01X194000Y142450D02*
X193450Y143000D01*
G01X194000Y170200D02*
Y146400D01*
X193450Y145850D01*
Y143000D01*
G01X194000Y135500D02*
Y139600D01*
X193450Y140150D01*
Y143000D01*
G01X176500Y151050D02*
Y158000D01*
X179000Y160500D01*
Y170200D01*
G01X184000D02*
Y161400D01*
X183450Y160850D01*
Y158000D01*
G01X189000Y170200D02*
Y161400D01*
X189550Y160850D01*
Y158000D01*
G01X304550Y440500D02*
X311500D01*
X314000Y438000D01*
Y295500D01*
X271500Y253000D01*
X201500D01*
X199000Y250500D01*
Y223000D01*
X194000Y218000D01*
Y205800D01*
G01X184000Y293000D02*
Y299950D01*
G01X183450Y313000D02*
Y317800D01*
X179500Y321750D01*
X177800D01*
G01X184000Y306050D02*
Y309600D01*
X183450Y310150D01*
Y313000D01*
G01X194000Y345500D02*
Y349033D01*
X193311Y349722D01*
Y357862D01*
G01X181500D02*
Y368000D01*
G01X186500Y373000D02*
Y370500D01*
X187406Y369594D01*
Y357862D01*
G01X191500Y390500D02*
X193311Y392311D01*
Y403138D01*
G01X189000Y418000D02*
Y412872D01*
X187406Y411278D01*
Y403138D01*
G01X181500Y429200D02*
Y403138D01*
G01X193450Y440500D02*
X188950D01*
X188934Y440484D01*
X187234D01*
X185250Y438500D01*
Y436800D01*
G01X209000Y170200D02*
Y198240D01*
X211500Y200740D01*
Y220500D01*
X209000Y223000D01*
Y240500D01*
X211500Y243000D01*
X281500D01*
X324000Y285500D01*
Y448000D01*
X319000Y453000D01*
X176500D01*
G01X215950Y75500D02*
X194000D01*
G01X205450Y100500D02*
X201500D01*
X199000Y103000D01*
Y105500D01*
G01X279000Y100500D02*
X281500Y103000D01*
Y108000D01*
X279000Y110500D01*
X209000D01*
X204000Y115500D01*
Y129950D01*
G01X211500Y133000D02*
X229000Y115500D01*
X289000D01*
X297050Y107450D01*
Y75500D01*
G01X204000Y136050D02*
Y141300D01*
X202300Y143000D01*
X199550D01*
G01X199000Y170200D02*
Y146400D01*
X199550Y145850D01*
Y143000D01*
G01X204000Y158550D02*
Y170200D01*
G01D02*
Y179900D01*
G01X214000Y170200D02*
Y183000D01*
X216500Y185500D01*
G01X199000Y205800D02*
Y218000D01*
X201500Y220500D01*
Y248000D01*
X204000Y250500D01*
X274000D01*
X316500Y293000D01*
Y440500D01*
X311500Y445500D01*
X279000D01*
X274000Y440500D01*
X269550D01*
G01X234550D02*
X239000D01*
X246500Y448000D01*
X314000D01*
X319000Y443000D01*
Y290500D01*
X276500Y248000D01*
X206500D01*
X204000Y245500D01*
Y205800D01*
G01X199550Y440500D02*
X204000D01*
X214000Y450500D01*
X316500D01*
X321500Y445500D01*
Y288000D01*
X279000Y245500D01*
X209000D01*
X206500Y243000D01*
Y220500D01*
X209000Y218000D01*
Y205800D01*
G01X214000D02*
Y235500D01*
G01X194000Y322450D02*
X198450D01*
X205250Y329250D01*
X215300D01*
G01X220950Y313000D02*
Y317800D01*
X217000Y321750D01*
X215300D01*
G01X194000Y328550D02*
Y335500D01*
G01X204689Y357862D02*
Y348689D01*
X196500Y340500D01*
G01X231950D02*
X196500D01*
G01X216500Y357862D02*
Y368000D01*
G01X200000Y375500D02*
X210594Y364906D01*
Y357862D01*
G01X201096Y385500D02*
X210594Y394998D01*
Y403138D01*
G01X201096Y385500D02*
X236096D01*
G01X236298Y375298D02*
X236096Y375500D01*
X200000D01*
G01X204689Y403138D02*
Y411278D01*
X204000Y411967D01*
Y428000D01*
X199000Y433000D01*
G01X216500Y429200D02*
Y403138D01*
G01X234000Y433000D02*
X226500D01*
G01X206500D02*
X199000D01*
G01X297050Y75500D02*
Y72650D01*
X282900Y58500D01*
X242000D01*
X236500Y53000D01*
Y28000D01*
G01X232550Y90500D02*
X236500D01*
X239000Y88000D01*
Y78000D01*
X236500Y75500D01*
G01D02*
X258450D01*
G01X236500D02*
X222050D01*
G01X247950Y100500D02*
X244000D01*
X241500Y103000D01*
Y105500D01*
G01X219000Y170200D02*
Y178000D01*
G01Y205800D02*
Y225500D01*
G01X221500Y293000D02*
Y299950D01*
G01X241500Y286050D02*
X244740D01*
G01X221500Y306050D02*
Y309600D01*
X220950Y310150D01*
Y313000D01*
G01X255300Y329250D02*
X238650D01*
X231850Y322450D01*
X229000D01*
G01Y345500D02*
Y349033D01*
X228311Y349722D01*
Y357862D01*
G01X229000Y328550D02*
Y335500D01*
G01X239689Y357862D02*
Y348239D01*
X231950Y340500D01*
G01X274689Y357862D02*
Y343189D01*
X272000Y340500D01*
X231950D01*
G01X221500Y373000D02*
Y370500D01*
X222406Y369594D01*
Y357862D01*
G01X236298Y375298D02*
X245594Y366002D01*
Y357862D01*
G01X236096Y385500D02*
X245594Y394998D01*
Y403138D01*
G01X236096Y385500D02*
X271096D01*
X280594Y394998D01*
Y403138D01*
G01X226500Y390500D02*
X228311Y392311D01*
Y403138D01*
G01X236298Y375298D02*
X236500Y375500D01*
X271096D01*
X280594Y366002D01*
Y357862D01*
G01X239689Y403138D02*
Y411278D01*
X239000Y411967D01*
Y428000D01*
X234000Y433000D01*
G01X224000Y418000D02*
Y412872D01*
X222406Y411278D01*
Y403138D01*
G01X228450Y440500D02*
X223950D01*
X223934Y440484D01*
X222234D01*
X220250Y438500D01*
Y436800D01*
G01X274689Y403138D02*
Y411278D01*
X274000Y411967D01*
Y428000D01*
X269000Y433000D01*
X261500D01*
G01X241500D02*
X234000D01*
G01X279000Y75500D02*
X264550D01*
G01X256500Y133550D02*
Y142250D01*
G01Y155500D02*
Y148750D01*
G01X244000Y233000D02*
X251500Y225500D01*
Y173000D01*
X261500Y163000D01*
X274000D01*
G01X279000Y173000D02*
X274000Y168000D01*
X261500D01*
X254000Y175500D01*
Y230500D01*
X246500Y238000D01*
G01X264000Y190500D02*
Y210500D01*
X274000Y220500D01*
Y228000D01*
G01X269000Y286050D02*
X263260D01*
X262550Y286760D01*
X258400D01*
G01X269000Y292450D02*
X264500D01*
X262550Y290500D01*
X258400D01*
G01X249600Y294240D02*
X251400D01*
X259000Y301840D01*
Y304950D01*
G01X244740Y286050D02*
X245450Y286760D01*
G01D02*
X249600D01*
G01X259000Y311050D02*
Y315188D01*
G01D02*
Y318050D01*
X258984Y318066D01*
Y319766D01*
X257000Y321750D01*
X255300D01*
G01X265950Y318000D02*
X261812D01*
X259000Y315188D01*
G01X251500Y357862D02*
Y368000D01*
G01X256500Y373000D02*
Y370500D01*
X257406Y369594D01*
Y357862D01*
G01X261500Y390500D02*
X263311Y392311D01*
Y403138D01*
G01X259000Y418000D02*
Y412872D01*
X257406Y411278D01*
Y403138D01*
G01X251500Y429200D02*
Y403138D01*
G01X263450Y440500D02*
X258950D01*
X258934Y440484D01*
X257234D01*
X255250Y438500D01*
Y436800D01*
G01X290950Y75500D02*
X279000D01*
G01X275050Y90500D02*
X279000D01*
X281500Y88000D01*
Y78000D01*
X279000Y75500D01*
G01X275050Y100500D02*
X279000D01*
G01X271500Y133550D02*
Y142250D01*
G01X281500Y133550D02*
Y142250D01*
G01X271500Y148750D02*
Y155500D01*
G01D02*
Y160500D01*
X274000Y163000D01*
G01X281500Y155500D02*
Y148750D01*
G01X294000Y190500D02*
Y170500D01*
X286500Y163000D01*
X274000D01*
G01X279000Y208000D02*
Y235500D01*
G01Y280500D02*
X273450Y286050D01*
X269000D01*
G01Y292450D02*
X274550D01*
X279000Y288000D01*
G01X286500Y357862D02*
Y328550D01*
G01Y368000D02*
Y357862D01*
G01Y429200D02*
Y403138D01*
G01X299000Y133550D02*
Y142250D01*
G01Y155500D02*
Y148750D01*
G01X291500Y373000D02*
Y370500D01*
X292406Y369594D01*
Y357862D01*
G01X296500Y390500D02*
X298311Y392311D01*
Y403138D01*
G01X294000Y418000D02*
Y412872D01*
X292406Y411278D01*
Y403138D01*
G01X298450Y440500D02*
X293950D01*
X293934Y440484D01*
X292234D01*
X290250Y438500D01*
Y436800D01*
G54D33*
X110950Y33700D03*
X120000D03*
X129050D03*
G54D15*
X14857Y52664D03*
Y72349D03*
G54D24*
X40500Y236500D03*
Y246500D03*
X88000Y34000D03*
X78000D03*
X264000Y190500D03*
X279000Y173000D03*
Y190500D03*
Y208000D03*
X294000Y190500D03*
G54D43*
G01X25500Y88000D02*
Y84000D01*
X48000Y61500D01*
X68000D01*
G01X38507Y53124D02*
X58876D01*
X78000Y34000D01*
G01X25500Y88000D02*
Y139000D01*
G01Y154000D02*
Y139000D01*
G01X64950Y164000D02*
X35500D01*
X25500Y154000D01*
G01Y176500D02*
Y154000D01*
G01Y139000D02*
X35500Y149000D01*
X60500D01*
X66050Y143450D01*
Y134000D01*
G01X53000Y204000D02*
X25500Y176500D01*
G01X5500Y277655D02*
Y219000D01*
X25500Y199000D01*
Y176500D01*
G01X5500Y277655D02*
X11845Y284000D01*
X40500D01*
X51500Y273000D01*
G01X5500Y302900D02*
Y277655D01*
G01Y302900D02*
Y329500D01*
X46500Y370500D01*
Y420500D01*
X62500Y436500D01*
X98450D01*
G01X9650Y307050D02*
X5500Y302900D01*
G01X13000Y307050D02*
X9650D01*
G01X119950Y48450D02*
X106900Y61500D01*
X68000D01*
G01D02*
X52450Y77050D01*
Y89000D01*
G01X53000Y204000D02*
X80500D01*
G01X68000Y226050D02*
Y219000D01*
X53000Y204000D01*
G01X169000Y205800D02*
Y212100D01*
X168500Y212600D01*
Y219000D01*
X138500Y249000D01*
X83000D01*
X68000Y234000D01*
Y226050D01*
G01X55500Y238450D02*
X55600D01*
X68000Y226050D01*
G01X88000Y34000D02*
X92450Y38450D01*
X103000D01*
G01X80500Y204000D02*
X88450D01*
G01X80500D02*
X83000Y206500D01*
G01X88450Y204000D02*
X95400Y197050D01*
X95500D01*
G01X88450Y204450D02*
Y204000D01*
G01X83000Y206500D02*
Y210750D01*
G01X103000Y436500D02*
X98450D01*
G01D02*
X103000Y431950D01*
Y429000D01*
G01X318000Y109000D02*
Y73000D01*
X296950Y51950D01*
X296777D01*
X285050Y40223D01*
Y40050D01*
X251500Y6500D01*
X150500D01*
X143000Y14000D01*
Y49000D01*
X138000Y54000D01*
X125500D01*
X119950Y48450D01*
G01D02*
Y41500D01*
G01X105500Y439000D02*
X103000Y436500D01*
G01D02*
X105500Y434000D01*
G01X318000Y109000D02*
X305500Y121500D01*
X250500D01*
X213450Y158550D01*
G01D02*
X204000D01*
G01X241000Y293000D02*
Y289800D01*
X241500Y289300D01*
G01D02*
Y286050D01*
G01X268000Y346500D02*
X265811D01*
X263311Y349000D01*
G01D02*
Y344311D01*
G01Y357862D02*
Y349000D01*
G01X279000Y190500D02*
X295000Y206500D01*
X310500D01*
G01D02*
X290000Y227000D01*
Y240000D01*
G01X310500Y206500D02*
X318000Y199000D01*
Y109000D01*
G01X295500Y344000D02*
X296122D01*
X298311Y346189D01*
G01D02*
X300500Y344000D01*
G01X298311Y349222D02*
Y346189D01*
G01Y349222D02*
X295589Y346500D01*
X290500D01*
G01X298311Y357862D02*
Y349222D01*
G54D34*
X120450Y90500D03*
Y100500D03*
X147550D03*
Y90500D03*
X162950D03*
Y100500D03*
X190050D03*
Y90500D03*
X205450D03*
Y100500D03*
X232550D03*
Y90500D03*
X247950D03*
Y100500D03*
X275050D03*
Y90500D03*
G54D16*
X14857Y57388D03*
Y59947D03*
Y62506D03*
Y65065D03*
Y67624D03*
G54D25*
X63250Y22000D03*
X56750D03*
G54D44*
G01X11505Y57388D02*
X14857D01*
G01D02*
X18209D01*
G01X14000Y127817D02*
Y136000D01*
G01D02*
Y144183D01*
G01X9302Y136000D02*
X14000D01*
G01D02*
X18698D01*
G01X13000Y298748D02*
Y300950D01*
G01X10698D02*
X13000D01*
G01D02*
X15302D01*
G01X21500Y299748D02*
Y303000D01*
G01D02*
Y306252D01*
G01X18248Y303000D02*
X21500D01*
G01X17500Y414748D02*
Y416950D01*
G01X15198D02*
X17500D01*
G01D02*
X19802D01*
G01X35550Y30198D02*
Y32500D01*
G01D02*
Y34802D01*
G01Y32500D02*
X37752D01*
G01X40500Y232798D02*
Y236500D01*
G01D02*
Y240202D01*
G01X36798Y236500D02*
X40500D01*
G01D02*
X44202D01*
G01X56500Y6248D02*
Y8450D01*
G01X54198D02*
X56500D01*
G01D02*
X58802D01*
G01X70500Y76248D02*
Y78450D01*
G01X68198D02*
X70500D01*
G01D02*
X72802D01*
G01X68000Y92198D02*
Y96800D01*
G01D02*
Y101402D01*
G01X66198Y96800D02*
X68000D01*
G01D02*
X69802D01*
G01X59950Y131698D02*
Y134000D01*
G01D02*
Y136302D01*
G01X57748Y134000D02*
X59950D01*
G01Y124198D02*
Y126500D01*
G01D02*
Y128802D01*
G01X57748Y126500D02*
X59950D01*
G01X72450D02*
Y128802D01*
G01X70248Y126500D02*
X72450D01*
G01X68000Y111598D02*
Y116200D01*
G01X66198D02*
X68000D01*
G01D02*
X69802D01*
G01X65500Y398198D02*
Y401700D01*
G01D02*
Y405202D01*
G01X63698Y401700D02*
X65500D01*
G01D02*
X67302D01*
G01X78000Y76248D02*
Y78450D01*
G01X75698D02*
X78000D01*
G01D02*
X80302D01*
G01X83000Y92198D02*
Y96800D01*
G01D02*
Y101402D01*
G01X81198Y96800D02*
X83000D01*
G01D02*
X84802D01*
G01X89050Y157748D02*
Y161500D01*
G01X88550Y149198D02*
Y151500D01*
G01D02*
Y153802D01*
G01Y151500D02*
X90752D01*
G01X89050Y161500D02*
Y165252D01*
G01Y161500D02*
X91752D01*
G01X95500Y188748D02*
Y190950D01*
G01X93198D02*
X95500D01*
G01D02*
X97802D01*
G01X75500Y189098D02*
Y193700D01*
G01D02*
Y198302D01*
G01X73748Y193700D02*
X75500D01*
G01D02*
X77252D01*
G01X80698Y210750D02*
X83000D01*
G01D02*
X85302D01*
G01X96798Y238000D02*
X100300D01*
G01X91500Y269748D02*
Y273000D01*
G01D02*
Y276252D01*
G01X88248Y273000D02*
X91500D01*
G01D02*
X94752D01*
G01X120000Y29948D02*
Y33700D01*
G01D02*
Y37452D01*
G01X118098Y33700D02*
X120000D01*
G01D02*
X121902D01*
G01X103000Y36248D02*
Y38450D01*
G01X110950Y29948D02*
Y33700D01*
G01D02*
Y37452D01*
G01X109048Y33700D02*
X110950D01*
G01D02*
X112852D01*
G01X119950Y39198D02*
Y41500D01*
G01X117748D02*
X119950D01*
G01X103000Y38450D02*
X105302D01*
G01X111500Y67748D02*
Y69950D01*
G01X109198D02*
X111500D01*
G01D02*
X113802D01*
G01X120450Y88898D02*
Y90500D01*
G01D02*
Y92102D01*
G01Y90500D02*
X123552D01*
G01X115500Y172198D02*
Y176800D01*
G01D02*
Y181402D01*
G01X113748Y176800D02*
X115500D01*
G01D02*
X117252D01*
G01X115500Y191598D02*
Y196200D01*
G01D02*
Y200802D01*
G01X113748Y196200D02*
X115500D01*
G01D02*
X117252D01*
G01X105500Y191598D02*
Y196200D01*
G01X103748D02*
X105500D01*
G01D02*
X107252D01*
G01X100300Y236198D02*
Y238000D01*
G01D02*
Y239802D01*
G01Y238000D02*
X103802D01*
G01X121198Y310300D02*
X123000D01*
G01X129050Y29948D02*
Y33700D01*
G01D02*
Y37452D01*
G01X127148Y33700D02*
X129050D01*
G01D02*
X130952D01*
G01X126050Y39198D02*
Y41500D01*
G01D02*
Y43802D01*
G01Y41500D02*
X128252D01*
G01X144448Y100500D02*
X147550D01*
G01X136500Y122748D02*
Y124950D01*
G01X134198D02*
X136500D01*
G01D02*
X138802D01*
G01X145500Y171248D02*
Y173450D01*
G01X143198D02*
X145500D01*
G01D02*
X147802D01*
G01X130500Y186248D02*
Y188450D01*
G01X128198D02*
X130500D01*
G01D02*
X132802D01*
G01X138000Y186248D02*
Y188450D01*
G01X135698D02*
X138000D01*
G01D02*
X140302D01*
G01X123000Y306798D02*
Y310300D01*
G01D02*
Y313802D01*
G01Y310300D02*
X124802D01*
G01X132750Y433298D02*
Y436800D01*
G01D02*
Y440302D01*
G01X130948Y436800D02*
X132750D01*
G01D02*
X134552D01*
G01X162950Y88898D02*
Y90500D01*
G01D02*
Y92102D01*
G01X159848Y90500D02*
X162950D01*
G01D02*
X166052D01*
G01X147550Y98898D02*
Y100500D01*
G01D02*
Y102102D01*
G01Y100500D02*
X150652D01*
G01X164000Y164948D02*
Y170200D01*
G01D02*
X165802D01*
G01X166698Y325500D02*
X170200D01*
G01X191500Y433000D02*
X171500D01*
G01X190050Y98898D02*
Y100500D01*
G01D02*
Y102102D01*
G01X186948Y100500D02*
X190050D01*
G01D02*
X193152D01*
G01X174000Y200548D02*
Y205800D01*
G01D02*
Y211052D01*
G01X172198Y205800D02*
X174000D01*
G01D02*
X175802D01*
G01X170200Y323698D02*
Y325500D01*
G01D02*
Y327302D01*
G01Y325500D02*
X173702D01*
G01X189550Y310698D02*
Y313000D01*
G01D02*
Y315302D01*
G01Y313000D02*
X191752D01*
G01X177750Y436800D02*
Y440302D01*
G01X175948Y436800D02*
X177750D01*
G01D02*
X179552D01*
G01X205450Y88898D02*
Y90500D01*
G01D02*
Y92102D01*
G01X202348Y90500D02*
X205450D01*
G01D02*
X208552D01*
G01X204000Y150248D02*
Y152450D01*
G01X201698D02*
X204000D01*
G01D02*
X206302D01*
G01X202198Y170200D02*
X204000D01*
G01D02*
X205802D01*
G01X207700Y323698D02*
Y325500D01*
G01D02*
Y327302D01*
G01X204198Y325500D02*
X207700D01*
G01D02*
X211202D01*
G01X212750Y436800D02*
Y440302D01*
G01X210948Y436800D02*
X212750D01*
G01D02*
X214552D01*
G01X226500Y433000D02*
X206500D01*
G01X232550Y98898D02*
Y100500D01*
G01D02*
Y102102D01*
G01X229448Y100500D02*
X232550D01*
G01D02*
X235652D01*
G01X239198Y279950D02*
X241500D01*
G01X227050Y310698D02*
Y313000D01*
G01D02*
Y315302D01*
G01Y313000D02*
X229252D01*
G01X261500Y433000D02*
X241500D01*
G01X247950Y88898D02*
Y90500D01*
G01D02*
Y92102D01*
G01X244848Y90500D02*
X247950D01*
G01D02*
X251052D01*
G01X256500Y125248D02*
Y127450D01*
G01X254198D02*
X256500D01*
G01D02*
X258802D01*
G01X241500Y277748D02*
Y279950D01*
G01X258400Y294240D02*
Y296042D01*
G01X254798Y294240D02*
X258400D01*
G01D02*
X262002D01*
G01X241500Y279950D02*
X243802D01*
G01X249600Y284958D02*
Y286760D01*
G01D02*
Y288562D01*
G01Y286760D02*
X253202D01*
G01X247700Y323698D02*
Y325500D01*
G01D02*
Y327302D01*
G01X244198Y325500D02*
X247700D01*
G01D02*
X251202D01*
G01X247750Y436800D02*
Y440302D01*
G01X245948Y436800D02*
X247750D01*
G01D02*
X249552D01*
G01X275050Y98898D02*
Y100500D01*
G01D02*
Y102102D01*
G01X271948Y100500D02*
X275050D01*
G01X281500Y125248D02*
Y127450D01*
G01X279198D02*
X281500D01*
G01D02*
X283802D01*
G01X271500Y125248D02*
Y127450D01*
G01X269198D02*
X271500D01*
G01D02*
X273802D01*
G01X269000Y277748D02*
Y279950D01*
G01X266698D02*
X269000D01*
G01D02*
X271302D01*
G01X269000Y298550D02*
Y300752D01*
G01X266698Y298550D02*
X269000D01*
G01D02*
X271302D01*
G01X286500Y320248D02*
Y322450D01*
G01X284198D02*
X286500D01*
G01D02*
X288802D01*
G01X272050Y315698D02*
Y318000D01*
G01D02*
Y320302D01*
G01Y318000D02*
X274252D01*
G01X282750Y433298D02*
Y436800D01*
G01D02*
Y440302D01*
G01X280948Y436800D02*
X282750D01*
G01D02*
X284552D01*
G01X310000Y43050D02*
Y45252D01*
G01X307698Y43050D02*
X310000D01*
G01D02*
X312302D01*
G01X299000Y125248D02*
Y127450D01*
G01X296698D02*
X299000D01*
G01D02*
X301302D01*
G01X312698Y216950D02*
X315000D01*
G01Y214748D02*
Y216950D01*
G01D02*
X317302D01*
G54D26*
X73000Y96800D03*
X68000D03*
Y116200D03*
X73000D03*
X83000Y96800D03*
X78000D03*
Y116200D03*
X83000D03*
G54D17*
X14000Y93500D03*
Y136000D03*
G54D35*
X116500Y350500D03*
Y410500D03*
X146500Y350500D03*
X136500D03*
X126500D03*
Y410500D03*
X136500D03*
X146500D03*
X156500Y350500D03*
Y410500D03*
G54D36*
X144975Y135500D03*
X153025D03*
G54D27*
X70500Y174300D03*
X65500D03*
Y193700D03*
X70500D03*
X80500Y174300D03*
X75500D03*
Y193700D03*
X80500D03*
X120500Y176800D03*
X115500D03*
X110500D03*
X105500D03*
Y196200D03*
X110500D03*
X115500D03*
X120500D03*
G54D18*
X21500Y273000D03*
G54D28*
X65500Y401700D03*
X61750Y409300D03*
X69250D03*
X119250Y302700D03*
X126750D03*
X141750D03*
X123000Y310300D03*
X145500D03*
X136500Y429200D03*
X132750Y436800D03*
X140250D03*
X149250Y302700D03*
X181500Y429200D03*
X177750Y436800D03*
X185250D03*
X216500Y429200D03*
X212750Y436800D03*
X220250D03*
X251500Y429200D03*
X247750Y436800D03*
X255250D03*
X286500Y429200D03*
X282750Y436800D03*
X290250D03*
G54D37*
X169000Y170200D03*
X164000D03*
X159000D03*
X154000D03*
Y205800D03*
X159000D03*
X164000D03*
X169000D03*
X194000Y170200D03*
X189000D03*
X184000D03*
X179000D03*
X174000D03*
Y205800D03*
X179000D03*
X184000D03*
X189000D03*
X194000D03*
X214000Y170200D03*
X209000D03*
X204000D03*
X199000D03*
Y205800D03*
X204000D03*
X209000D03*
X214000D03*
X219000Y170200D03*
Y205800D03*
G54D19*
X21500Y303000D03*
X51500Y273000D03*
X41500D03*
X31500D03*
Y303000D03*
X41500D03*
X51500D03*
X71500Y273000D03*
X61500D03*
Y303000D03*
X71500D03*
X91500Y273000D03*
X81500D03*
Y303000D03*
X91500D03*
G54D29*
X89050Y161500D03*
X81950D03*
G54D38*
X169689Y357862D03*
Y403138D03*
X193311Y357862D03*
X187406D03*
X181500D03*
X175594D03*
Y403138D03*
X181500D03*
X187406D03*
X193311D03*
X216500Y357862D03*
X210594D03*
X204689D03*
Y403138D03*
X210594D03*
X216500D03*
X239689Y357862D03*
X228311D03*
X222406D03*
X239689Y403138D03*
X222406D03*
X228311D03*
X263311Y357862D03*
X257406D03*
X251500D03*
X245594D03*
Y403138D03*
X251500D03*
X257406D03*
X263311D03*
X286500Y357862D03*
X280594D03*
X274689D03*
Y403138D03*
X280594D03*
X286500D03*
X298311Y357862D03*
X292406D03*
Y403138D03*
X298311D03*
G54D39*
X184000Y28000D03*
X236500D03*
M02*
